M48
; DRILL file {KiCad (5.1.12)-1} date 11/30/21 03:04:52
; FORMAT={-:-/ absolute / inch / decimal}
; #@! TF.CreationDate,2021-11-30T03:04:52-08:00
; #@! TF.GenerationSoftware,Kicad,Pcbnew,(5.1.12)-1
; #@! TF.FileFunction,Plated,1,2,PTH
FMAT,2
INCH
T1C0.0320
T2C0.0354
T3C0.0500
T4C0.0512
%
G90
G05
T1
X4.1371Y-4.838
X4.1371Y-5.4373
X4.1871Y-4.7858
X4.1871Y-5.3858
X4.2371Y-4.838
X4.2371Y-5.4373
X4.2871Y-4.7858
X4.2871Y-5.3858
X4.3371Y-4.838
X4.3371Y-5.4373
X4.3871Y-4.7858
X4.3871Y-5.3858
X4.4371Y-4.838
X4.4371Y-5.4373
X4.4871Y-4.7858
X4.4871Y-5.3858
X4.5371Y-4.838
X4.5371Y-5.4373
X4.5871Y-4.7858
X4.5871Y-5.3858
X4.6371Y-4.838
X4.6371Y-5.4373
X4.6871Y-4.7858
X4.6871Y-5.3858
X4.7371Y-4.838
X4.7371Y-5.4373
X4.7871Y-4.7858
X4.7871Y-5.3858
X4.8371Y-4.838
X4.8371Y-5.4373
X4.8871Y-4.7858
X4.8871Y-5.3858
X4.9371Y-4.838
X4.9371Y-5.4373
X4.9871Y-4.7858
X4.9871Y-5.3858
X5.0371Y-4.838
X5.0371Y-5.4373
X5.0871Y-4.7858
X5.0871Y-5.3858
X5.1371Y-4.838
X5.1371Y-5.4373
X5.1871Y-4.7858
X5.1871Y-5.3858
X5.2371Y-4.838
X5.2371Y-5.4373
X5.2871Y-4.7858
X5.2871Y-5.3858
T3
X4.1441Y-2.9075
X4.1441Y-3.5768
X4.1441Y-4.2461
X4.341Y-2.8248
X4.341Y-3.4941
X4.341Y-4.1634
X4.5378Y-2.9075
X4.5378Y-3.5768
X4.5378Y-4.2461
X4.8528Y-2.9075
X4.8528Y-3.5768
X4.8528Y-4.2461
X5.0496Y-2.8248
X5.0496Y-3.4941
X5.0496Y-4.1634
X5.2465Y-2.9075
X5.2465Y-3.5768
X5.2465Y-4.2461
X5.5615Y-2.9075
X5.5615Y-3.5768
X5.5615Y-4.2461
X5.7583Y-2.8248
X5.7583Y-3.4941
X5.7583Y-4.1634
X5.9552Y-2.9075
X5.9552Y-3.5768
X5.9552Y-4.2461
X6.2701Y-2.9075
X6.2701Y-3.5768
X6.2701Y-4.2461
X6.2701Y-5.0039
X6.467Y-2.8248
X6.467Y-3.4941
X6.467Y-4.1634
X6.467Y-4.9213
X6.6638Y-2.9075
X6.6638Y-3.5768
X6.6638Y-4.2461
X6.6638Y-5.0039
X6.9788Y-2.9075
X6.9788Y-3.5768
X6.9788Y-4.2461
X6.9788Y-5.0039
X7.1756Y-2.8248
X7.1756Y-3.4941
X7.1756Y-4.1634
X7.1756Y-4.9213
X7.3725Y-2.9075
X7.3725Y-3.5768
X7.3725Y-4.2461
X7.3725Y-5.0039
T4
X5.6304Y-4.8563
X5.8863Y-4.8563
T2
G00X5.6685Y-5.0179
M15
G01X5.6685Y-5.0022
M16
G05
G00X5.6685Y-5.0179
M15
G01X5.6685Y-5.0022
M16
G05
G00X5.6685Y-5.1754
M15
G01X5.6685Y-5.1596
M16
G05
G00X5.6685Y-5.1754
M15
G01X5.6685Y-5.1596
M16
G05
G00X5.6685Y-5.2935
M15
G01X5.6685Y-5.2778
M16
G05
G00X5.6685Y-5.2935
M15
G01X5.6685Y-5.2778
M16
G05
G00X5.6687Y-4.9589
M15
G01X5.6687Y-4.9746
M16
G05
G00X5.6687Y-4.9589
M15
G01X5.6687Y-4.9746
M16
G05
G00X5.8496Y-4.9746
M15
G01X5.8496Y-4.9589
M16
G05
G00X5.8496Y-4.9746
M15
G01X5.8496Y-4.9589
M16
G05
G00X5.8498Y-5.0022
M15
G01X5.8498Y-5.0179
M16
G05
G00X5.8498Y-5.0022
M15
G01X5.8498Y-5.0179
M16
G05
G00X5.8498Y-5.1596
M15
G01X5.8498Y-5.1754
M16
G05
G00X5.8498Y-5.1596
M15
G01X5.8498Y-5.1754
M16
G05
G00X5.8498Y-5.2778
M15
G01X5.8498Y-5.2935
M16
G05
G00X5.8498Y-5.2778
M15
G01X5.8498Y-5.2935
M16
G05
T0
M30
