%TF.GenerationSoftware,KiCad,Pcbnew,(5.1.12)-1*%
%TF.CreationDate,2021-11-30T03:04:48-08:00*%
%TF.ProjectId,orthodox_v2,6f727468-6f64-46f7-985f-76322e6b6963,rev?*%
%TF.SameCoordinates,Original*%
%TF.FileFunction,Legend,Top*%
%TF.FilePolarity,Positive*%
%FSLAX46Y46*%
G04 Gerber Fmt 4.6, Leading zero omitted, Abs format (unit mm)*
G04 Created by KiCad (PCBNEW (5.1.12)-1) date 2021-11-30 03:04:48*
%MOMM*%
%LPD*%
G01*
G04 APERTURE LIST*
%ADD10C,0.037500*%
%ADD11C,0.150000*%
%ADD12C,0.125000*%
G04 APERTURE END LIST*
D10*
X112828676Y-132449114D02*
X112828676Y-132663400D01*
X112804866Y-132706257D01*
X112757247Y-132734828D01*
X112685819Y-132749114D01*
X112638200Y-132749114D01*
X113304866Y-132749114D02*
X113066771Y-132749114D01*
X113066771Y-132449114D01*
X113757247Y-132720542D02*
X113733438Y-132734828D01*
X113662009Y-132749114D01*
X113614390Y-132749114D01*
X113542961Y-132734828D01*
X113495342Y-132706257D01*
X113471533Y-132677685D01*
X113447723Y-132620542D01*
X113447723Y-132577685D01*
X113471533Y-132520542D01*
X113495342Y-132491971D01*
X113542961Y-132463400D01*
X113614390Y-132449114D01*
X113662009Y-132449114D01*
X113733438Y-132463400D01*
X113757247Y-132477685D01*
X114114390Y-132449114D02*
X114114390Y-132663400D01*
X114090580Y-132706257D01*
X114042961Y-132734828D01*
X113971533Y-132749114D01*
X113923914Y-132749114D01*
X114590580Y-132749114D02*
X114352485Y-132749114D01*
X114352485Y-132449114D01*
X115042961Y-132720542D02*
X115019152Y-132734828D01*
X114947723Y-132749114D01*
X114900104Y-132749114D01*
X114828676Y-132734828D01*
X114781057Y-132706257D01*
X114757247Y-132677685D01*
X114733438Y-132620542D01*
X114733438Y-132577685D01*
X114757247Y-132520542D01*
X114781057Y-132491971D01*
X114828676Y-132463400D01*
X114900104Y-132449114D01*
X114947723Y-132449114D01*
X115019152Y-132463400D01*
X115042961Y-132477685D01*
X115400104Y-132449114D02*
X115400104Y-132663400D01*
X115376295Y-132706257D01*
X115328676Y-132734828D01*
X115257247Y-132749114D01*
X115209628Y-132749114D01*
X115876295Y-132749114D02*
X115638200Y-132749114D01*
X115638200Y-132449114D01*
X116328676Y-132720542D02*
X116304866Y-132734828D01*
X116233438Y-132749114D01*
X116185819Y-132749114D01*
X116114390Y-132734828D01*
X116066771Y-132706257D01*
X116042961Y-132677685D01*
X116019152Y-132620542D01*
X116019152Y-132577685D01*
X116042961Y-132520542D01*
X116066771Y-132491971D01*
X116114390Y-132463400D01*
X116185819Y-132449114D01*
X116233438Y-132449114D01*
X116304866Y-132463400D01*
X116328676Y-132477685D01*
X116685819Y-132449114D02*
X116685819Y-132663400D01*
X116662009Y-132706257D01*
X116614390Y-132734828D01*
X116542961Y-132749114D01*
X116495342Y-132749114D01*
X117162009Y-132749114D02*
X116923914Y-132749114D01*
X116923914Y-132449114D01*
X117614390Y-132720542D02*
X117590580Y-132734828D01*
X117519152Y-132749114D01*
X117471533Y-132749114D01*
X117400104Y-132734828D01*
X117352485Y-132706257D01*
X117328676Y-132677685D01*
X117304866Y-132620542D01*
X117304866Y-132577685D01*
X117328676Y-132520542D01*
X117352485Y-132491971D01*
X117400104Y-132463400D01*
X117471533Y-132449114D01*
X117519152Y-132449114D01*
X117590580Y-132463400D01*
X117614390Y-132477685D01*
D11*
%TO.C,MX6*%
X135261000Y-118649900D02*
X134261000Y-118649900D01*
X135261000Y-117649900D02*
X135261000Y-118649900D01*
X135261000Y-104649900D02*
X135261000Y-105649900D01*
X134261000Y-104649900D02*
X135261000Y-104649900D01*
X121261000Y-104649900D02*
X122261000Y-104649900D01*
X121261000Y-105649900D02*
X121261000Y-104649900D01*
X121261000Y-118649900D02*
X121261000Y-117649900D01*
X122261000Y-118649900D02*
X121261000Y-118649900D01*
%TO.C,U2*%
X143481000Y-139454900D02*
X149081000Y-139454900D01*
X149081000Y-137454900D02*
X149081000Y-139454900D01*
X143481000Y-137454900D02*
X143481000Y-139454900D01*
X149331000Y-137454900D02*
X149331000Y-125354900D01*
X143231000Y-137454900D02*
X143231000Y-125354900D01*
X143231000Y-125354900D02*
X149331000Y-125354900D01*
X143231000Y-137454900D02*
X149331000Y-137454900D01*
%TO.C,MX1*%
X104261000Y-84649900D02*
X103261000Y-84649900D01*
X103261000Y-84649900D02*
X103261000Y-83649900D01*
X103261000Y-71649900D02*
X103261000Y-70649900D01*
X103261000Y-70649900D02*
X104261000Y-70649900D01*
X116261000Y-70649900D02*
X117261000Y-70649900D01*
X117261000Y-70649900D02*
X117261000Y-71649900D01*
X117261000Y-83649900D02*
X117261000Y-84649900D01*
X117261000Y-84649900D02*
X116261000Y-84649900D01*
%TO.C,MX2*%
X117261000Y-101649900D02*
X116261000Y-101649900D01*
X117261000Y-100649900D02*
X117261000Y-101649900D01*
X117261000Y-87649900D02*
X117261000Y-88649900D01*
X116261000Y-87649900D02*
X117261000Y-87649900D01*
X103261000Y-87649900D02*
X104261000Y-87649900D01*
X103261000Y-88649900D02*
X103261000Y-87649900D01*
X103261000Y-101649900D02*
X103261000Y-100649900D01*
X104261000Y-101649900D02*
X103261000Y-101649900D01*
%TO.C,MX3*%
X117261000Y-118649900D02*
X116261000Y-118649900D01*
X117261000Y-117649900D02*
X117261000Y-118649900D01*
X117261000Y-104649900D02*
X117261000Y-105649900D01*
X116261000Y-104649900D02*
X117261000Y-104649900D01*
X103261000Y-104649900D02*
X104261000Y-104649900D01*
X103261000Y-105649900D02*
X103261000Y-104649900D01*
X103261000Y-118649900D02*
X103261000Y-117649900D01*
X104261000Y-118649900D02*
X103261000Y-118649900D01*
%TO.C,MX4*%
X135261000Y-84649900D02*
X134261000Y-84649900D01*
X135261000Y-83649900D02*
X135261000Y-84649900D01*
X135261000Y-70649900D02*
X135261000Y-71649900D01*
X134261000Y-70649900D02*
X135261000Y-70649900D01*
X121261000Y-70649900D02*
X122261000Y-70649900D01*
X121261000Y-71649900D02*
X121261000Y-70649900D01*
X121261000Y-84649900D02*
X121261000Y-83649900D01*
X122261000Y-84649900D02*
X121261000Y-84649900D01*
%TO.C,MX5*%
X122261000Y-101649900D02*
X121261000Y-101649900D01*
X121261000Y-101649900D02*
X121261000Y-100649900D01*
X121261000Y-88649900D02*
X121261000Y-87649900D01*
X121261000Y-87649900D02*
X122261000Y-87649900D01*
X134261000Y-87649900D02*
X135261000Y-87649900D01*
X135261000Y-87649900D02*
X135261000Y-88649900D01*
X135261000Y-100649900D02*
X135261000Y-101649900D01*
X135261000Y-101649900D02*
X134261000Y-101649900D01*
%TO.C,MX7*%
X140261000Y-84649900D02*
X139261000Y-84649900D01*
X139261000Y-84649900D02*
X139261000Y-83649900D01*
X139261000Y-71649900D02*
X139261000Y-70649900D01*
X139261000Y-70649900D02*
X140261000Y-70649900D01*
X152261000Y-70649900D02*
X153261000Y-70649900D01*
X153261000Y-70649900D02*
X153261000Y-71649900D01*
X153261000Y-83649900D02*
X153261000Y-84649900D01*
X153261000Y-84649900D02*
X152261000Y-84649900D01*
%TO.C,MX8*%
X153261000Y-101649900D02*
X152261000Y-101649900D01*
X153261000Y-100649900D02*
X153261000Y-101649900D01*
X153261000Y-87649900D02*
X153261000Y-88649900D01*
X152261000Y-87649900D02*
X153261000Y-87649900D01*
X139261000Y-87649900D02*
X140261000Y-87649900D01*
X139261000Y-88649900D02*
X139261000Y-87649900D01*
X139261000Y-101649900D02*
X139261000Y-100649900D01*
X140261000Y-101649900D02*
X139261000Y-101649900D01*
%TO.C,MX9*%
X153261000Y-118649900D02*
X152261000Y-118649900D01*
X153261000Y-117649900D02*
X153261000Y-118649900D01*
X153261000Y-104649900D02*
X153261000Y-105649900D01*
X152261000Y-104649900D02*
X153261000Y-104649900D01*
X139261000Y-104649900D02*
X140261000Y-104649900D01*
X139261000Y-105649900D02*
X139261000Y-104649900D01*
X139261000Y-118649900D02*
X139261000Y-117649900D01*
X140261000Y-118649900D02*
X139261000Y-118649900D01*
%TO.C,MX10*%
X171261000Y-84649900D02*
X170261000Y-84649900D01*
X171261000Y-83649900D02*
X171261000Y-84649900D01*
X171261000Y-70649900D02*
X171261000Y-71649900D01*
X170261000Y-70649900D02*
X171261000Y-70649900D01*
X157261000Y-70649900D02*
X158261000Y-70649900D01*
X157261000Y-71649900D02*
X157261000Y-70649900D01*
X157261000Y-84649900D02*
X157261000Y-83649900D01*
X158261000Y-84649900D02*
X157261000Y-84649900D01*
%TO.C,MX11*%
X158261000Y-101649900D02*
X157261000Y-101649900D01*
X157261000Y-101649900D02*
X157261000Y-100649900D01*
X157261000Y-88649900D02*
X157261000Y-87649900D01*
X157261000Y-87649900D02*
X158261000Y-87649900D01*
X170261000Y-87649900D02*
X171261000Y-87649900D01*
X171261000Y-87649900D02*
X171261000Y-88649900D01*
X171261000Y-100649900D02*
X171261000Y-101649900D01*
X171261000Y-101649900D02*
X170261000Y-101649900D01*
%TO.C,MX12*%
X171261000Y-118649900D02*
X170261000Y-118649900D01*
X171261000Y-117649900D02*
X171261000Y-118649900D01*
X171261000Y-104649900D02*
X171261000Y-105649900D01*
X170261000Y-104649900D02*
X171261000Y-104649900D01*
X157261000Y-104649900D02*
X158261000Y-104649900D01*
X157261000Y-105649900D02*
X157261000Y-104649900D01*
X157261000Y-118649900D02*
X157261000Y-117649900D01*
X158261000Y-118649900D02*
X157261000Y-118649900D01*
%TO.C,MX13*%
X158261000Y-137899900D02*
X157261000Y-137899900D01*
X157261000Y-137899900D02*
X157261000Y-136899900D01*
X157261000Y-124899900D02*
X157261000Y-123899900D01*
X157261000Y-123899900D02*
X158261000Y-123899900D01*
X170261000Y-123899900D02*
X171261000Y-123899900D01*
X171261000Y-123899900D02*
X171261000Y-124899900D01*
X171261000Y-136899900D02*
X171261000Y-137899900D01*
X171261000Y-137899900D02*
X170261000Y-137899900D01*
%TO.C,MX14*%
X176261000Y-84649900D02*
X175261000Y-84649900D01*
X175261000Y-84649900D02*
X175261000Y-83649900D01*
X175261000Y-71649900D02*
X175261000Y-70649900D01*
X175261000Y-70649900D02*
X176261000Y-70649900D01*
X188261000Y-70649900D02*
X189261000Y-70649900D01*
X189261000Y-70649900D02*
X189261000Y-71649900D01*
X189261000Y-83649900D02*
X189261000Y-84649900D01*
X189261000Y-84649900D02*
X188261000Y-84649900D01*
%TO.C,MX15*%
X189261000Y-101649900D02*
X188261000Y-101649900D01*
X189261000Y-100649900D02*
X189261000Y-101649900D01*
X189261000Y-87649900D02*
X189261000Y-88649900D01*
X188261000Y-87649900D02*
X189261000Y-87649900D01*
X175261000Y-87649900D02*
X176261000Y-87649900D01*
X175261000Y-88649900D02*
X175261000Y-87649900D01*
X175261000Y-101649900D02*
X175261000Y-100649900D01*
X176261000Y-101649900D02*
X175261000Y-101649900D01*
%TO.C,MX16*%
X176261000Y-118649900D02*
X175261000Y-118649900D01*
X175261000Y-118649900D02*
X175261000Y-117649900D01*
X175261000Y-105649900D02*
X175261000Y-104649900D01*
X175261000Y-104649900D02*
X176261000Y-104649900D01*
X188261000Y-104649900D02*
X189261000Y-104649900D01*
X189261000Y-104649900D02*
X189261000Y-105649900D01*
X189261000Y-117649900D02*
X189261000Y-118649900D01*
X189261000Y-118649900D02*
X188261000Y-118649900D01*
%TO.C,MX17*%
X189261000Y-137899900D02*
X188261000Y-137899900D01*
X189261000Y-136899900D02*
X189261000Y-137899900D01*
X189261000Y-123899900D02*
X189261000Y-124899900D01*
X188261000Y-123899900D02*
X189261000Y-123899900D01*
X175261000Y-123899900D02*
X176261000Y-123899900D01*
X175261000Y-124899900D02*
X175261000Y-123899900D01*
X175261000Y-137899900D02*
X175261000Y-136899900D01*
X176261000Y-137899900D02*
X175261000Y-137899900D01*
%TO.C,SW1*%
X143261000Y-125100000D02*
X143261000Y-124850000D01*
X149261000Y-125100000D02*
X143261000Y-125100000D01*
X149261000Y-125100000D02*
X149261000Y-124850000D01*
X149261000Y-121600000D02*
X149261000Y-121850000D01*
X143261000Y-121600000D02*
X143261000Y-121850000D01*
X149261000Y-121600000D02*
X143261000Y-121600000D01*
%TO.C,U1*%
X105083000Y-135529900D02*
X105083000Y-138069900D01*
X105083000Y-138069900D02*
X135563000Y-138069900D01*
X135563000Y-138069900D02*
X135563000Y-135529900D01*
X135563000Y-135529900D02*
X105083000Y-135529900D01*
X105083000Y-120289900D02*
X105083000Y-122829900D01*
X105083000Y-122829900D02*
X135563000Y-122829900D01*
X135563000Y-122829900D02*
X135563000Y-120289900D01*
X135563000Y-120289900D02*
X105083000Y-120289900D01*
%TO.C,MX6*%
X126975285Y-117557280D02*
X126975285Y-116557280D01*
X127308619Y-117271566D01*
X127641952Y-116557280D01*
X127641952Y-117557280D01*
X128022904Y-116557280D02*
X128689571Y-117557280D01*
X128689571Y-116557280D02*
X128022904Y-117557280D01*
X129499095Y-116557280D02*
X129308619Y-116557280D01*
X129213380Y-116604900D01*
X129165761Y-116652519D01*
X129070523Y-116795376D01*
X129022904Y-116985852D01*
X129022904Y-117366804D01*
X129070523Y-117462042D01*
X129118142Y-117509661D01*
X129213380Y-117557280D01*
X129403857Y-117557280D01*
X129499095Y-117509661D01*
X129546714Y-117462042D01*
X129594333Y-117366804D01*
X129594333Y-117128709D01*
X129546714Y-117033471D01*
X129499095Y-116985852D01*
X129403857Y-116938233D01*
X129213380Y-116938233D01*
X129118142Y-116985852D01*
X129070523Y-117033471D01*
X129022904Y-117128709D01*
%TO.C,MX1*%
X108975285Y-83557280D02*
X108975285Y-82557280D01*
X109308619Y-83271566D01*
X109641952Y-82557280D01*
X109641952Y-83557280D01*
X110022904Y-82557280D02*
X110689571Y-83557280D01*
X110689571Y-82557280D02*
X110022904Y-83557280D01*
X111594333Y-83557280D02*
X111022904Y-83557280D01*
X111308619Y-83557280D02*
X111308619Y-82557280D01*
X111213380Y-82700138D01*
X111118142Y-82795376D01*
X111022904Y-82842995D01*
%TO.C,MX2*%
X108975285Y-100557280D02*
X108975285Y-99557280D01*
X109308619Y-100271566D01*
X109641952Y-99557280D01*
X109641952Y-100557280D01*
X110022904Y-99557280D02*
X110689571Y-100557280D01*
X110689571Y-99557280D02*
X110022904Y-100557280D01*
X111022904Y-99652519D02*
X111070523Y-99604900D01*
X111165761Y-99557280D01*
X111403857Y-99557280D01*
X111499095Y-99604900D01*
X111546714Y-99652519D01*
X111594333Y-99747757D01*
X111594333Y-99842995D01*
X111546714Y-99985852D01*
X110975285Y-100557280D01*
X111594333Y-100557280D01*
%TO.C,MX3*%
X108975285Y-117557280D02*
X108975285Y-116557280D01*
X109308619Y-117271566D01*
X109641952Y-116557280D01*
X109641952Y-117557280D01*
X110022904Y-116557280D02*
X110689571Y-117557280D01*
X110689571Y-116557280D02*
X110022904Y-117557280D01*
X110975285Y-116557280D02*
X111594333Y-116557280D01*
X111261000Y-116938233D01*
X111403857Y-116938233D01*
X111499095Y-116985852D01*
X111546714Y-117033471D01*
X111594333Y-117128709D01*
X111594333Y-117366804D01*
X111546714Y-117462042D01*
X111499095Y-117509661D01*
X111403857Y-117557280D01*
X111118142Y-117557280D01*
X111022904Y-117509661D01*
X110975285Y-117462042D01*
%TO.C,MX4*%
X126975285Y-83557280D02*
X126975285Y-82557280D01*
X127308619Y-83271566D01*
X127641952Y-82557280D01*
X127641952Y-83557280D01*
X128022904Y-82557280D02*
X128689571Y-83557280D01*
X128689571Y-82557280D02*
X128022904Y-83557280D01*
X129499095Y-82890614D02*
X129499095Y-83557280D01*
X129261000Y-82509661D02*
X129022904Y-83223947D01*
X129641952Y-83223947D01*
%TO.C,MX5*%
X126975285Y-100557280D02*
X126975285Y-99557280D01*
X127308619Y-100271566D01*
X127641952Y-99557280D01*
X127641952Y-100557280D01*
X128022904Y-99557280D02*
X128689571Y-100557280D01*
X128689571Y-99557280D02*
X128022904Y-100557280D01*
X129546714Y-99557280D02*
X129070523Y-99557280D01*
X129022904Y-100033471D01*
X129070523Y-99985852D01*
X129165761Y-99938233D01*
X129403857Y-99938233D01*
X129499095Y-99985852D01*
X129546714Y-100033471D01*
X129594333Y-100128709D01*
X129594333Y-100366804D01*
X129546714Y-100462042D01*
X129499095Y-100509661D01*
X129403857Y-100557280D01*
X129165761Y-100557280D01*
X129070523Y-100509661D01*
X129022904Y-100462042D01*
%TO.C,MX7*%
X144975285Y-83557280D02*
X144975285Y-82557280D01*
X145308619Y-83271566D01*
X145641952Y-82557280D01*
X145641952Y-83557280D01*
X146022904Y-82557280D02*
X146689571Y-83557280D01*
X146689571Y-82557280D02*
X146022904Y-83557280D01*
X146975285Y-82557280D02*
X147641952Y-82557280D01*
X147213380Y-83557280D01*
%TO.C,MX8*%
X144975285Y-100557280D02*
X144975285Y-99557280D01*
X145308619Y-100271566D01*
X145641952Y-99557280D01*
X145641952Y-100557280D01*
X146022904Y-99557280D02*
X146689571Y-100557280D01*
X146689571Y-99557280D02*
X146022904Y-100557280D01*
X147213380Y-99985852D02*
X147118142Y-99938233D01*
X147070523Y-99890614D01*
X147022904Y-99795376D01*
X147022904Y-99747757D01*
X147070523Y-99652519D01*
X147118142Y-99604900D01*
X147213380Y-99557280D01*
X147403857Y-99557280D01*
X147499095Y-99604900D01*
X147546714Y-99652519D01*
X147594333Y-99747757D01*
X147594333Y-99795376D01*
X147546714Y-99890614D01*
X147499095Y-99938233D01*
X147403857Y-99985852D01*
X147213380Y-99985852D01*
X147118142Y-100033471D01*
X147070523Y-100081090D01*
X147022904Y-100176328D01*
X147022904Y-100366804D01*
X147070523Y-100462042D01*
X147118142Y-100509661D01*
X147213380Y-100557280D01*
X147403857Y-100557280D01*
X147499095Y-100509661D01*
X147546714Y-100462042D01*
X147594333Y-100366804D01*
X147594333Y-100176328D01*
X147546714Y-100081090D01*
X147499095Y-100033471D01*
X147403857Y-99985852D01*
%TO.C,MX9*%
X144975285Y-117557280D02*
X144975285Y-116557280D01*
X145308619Y-117271566D01*
X145641952Y-116557280D01*
X145641952Y-117557280D01*
X146022904Y-116557280D02*
X146689571Y-117557280D01*
X146689571Y-116557280D02*
X146022904Y-117557280D01*
X147118142Y-117557280D02*
X147308619Y-117557280D01*
X147403857Y-117509661D01*
X147451476Y-117462042D01*
X147546714Y-117319185D01*
X147594333Y-117128709D01*
X147594333Y-116747757D01*
X147546714Y-116652519D01*
X147499095Y-116604900D01*
X147403857Y-116557280D01*
X147213380Y-116557280D01*
X147118142Y-116604900D01*
X147070523Y-116652519D01*
X147022904Y-116747757D01*
X147022904Y-116985852D01*
X147070523Y-117081090D01*
X147118142Y-117128709D01*
X147213380Y-117176328D01*
X147403857Y-117176328D01*
X147499095Y-117128709D01*
X147546714Y-117081090D01*
X147594333Y-116985852D01*
%TO.C,MX10*%
X162499095Y-83557280D02*
X162499095Y-82557280D01*
X162832428Y-83271566D01*
X163165761Y-82557280D01*
X163165761Y-83557280D01*
X163546714Y-82557280D02*
X164213380Y-83557280D01*
X164213380Y-82557280D02*
X163546714Y-83557280D01*
X165118142Y-83557280D02*
X164546714Y-83557280D01*
X164832428Y-83557280D02*
X164832428Y-82557280D01*
X164737190Y-82700138D01*
X164641952Y-82795376D01*
X164546714Y-82842995D01*
X165737190Y-82557280D02*
X165832428Y-82557280D01*
X165927666Y-82604900D01*
X165975285Y-82652519D01*
X166022904Y-82747757D01*
X166070523Y-82938233D01*
X166070523Y-83176328D01*
X166022904Y-83366804D01*
X165975285Y-83462042D01*
X165927666Y-83509661D01*
X165832428Y-83557280D01*
X165737190Y-83557280D01*
X165641952Y-83509661D01*
X165594333Y-83462042D01*
X165546714Y-83366804D01*
X165499095Y-83176328D01*
X165499095Y-82938233D01*
X165546714Y-82747757D01*
X165594333Y-82652519D01*
X165641952Y-82604900D01*
X165737190Y-82557280D01*
%TO.C,MX11*%
X162499095Y-100557280D02*
X162499095Y-99557280D01*
X162832428Y-100271566D01*
X163165761Y-99557280D01*
X163165761Y-100557280D01*
X163546714Y-99557280D02*
X164213380Y-100557280D01*
X164213380Y-99557280D02*
X163546714Y-100557280D01*
X165118142Y-100557280D02*
X164546714Y-100557280D01*
X164832428Y-100557280D02*
X164832428Y-99557280D01*
X164737190Y-99700138D01*
X164641952Y-99795376D01*
X164546714Y-99842995D01*
X166070523Y-100557280D02*
X165499095Y-100557280D01*
X165784809Y-100557280D02*
X165784809Y-99557280D01*
X165689571Y-99700138D01*
X165594333Y-99795376D01*
X165499095Y-99842995D01*
%TO.C,MX12*%
X162499095Y-117557280D02*
X162499095Y-116557280D01*
X162832428Y-117271566D01*
X163165761Y-116557280D01*
X163165761Y-117557280D01*
X163546714Y-116557280D02*
X164213380Y-117557280D01*
X164213380Y-116557280D02*
X163546714Y-117557280D01*
X165118142Y-117557280D02*
X164546714Y-117557280D01*
X164832428Y-117557280D02*
X164832428Y-116557280D01*
X164737190Y-116700138D01*
X164641952Y-116795376D01*
X164546714Y-116842995D01*
X165499095Y-116652519D02*
X165546714Y-116604900D01*
X165641952Y-116557280D01*
X165880047Y-116557280D01*
X165975285Y-116604900D01*
X166022904Y-116652519D01*
X166070523Y-116747757D01*
X166070523Y-116842995D01*
X166022904Y-116985852D01*
X165451476Y-117557280D01*
X166070523Y-117557280D01*
%TO.C,MX13*%
X162499095Y-136807280D02*
X162499095Y-135807280D01*
X162832428Y-136521566D01*
X163165761Y-135807280D01*
X163165761Y-136807280D01*
X163546714Y-135807280D02*
X164213380Y-136807280D01*
X164213380Y-135807280D02*
X163546714Y-136807280D01*
X165118142Y-136807280D02*
X164546714Y-136807280D01*
X164832428Y-136807280D02*
X164832428Y-135807280D01*
X164737190Y-135950138D01*
X164641952Y-136045376D01*
X164546714Y-136092995D01*
X165451476Y-135807280D02*
X166070523Y-135807280D01*
X165737190Y-136188233D01*
X165880047Y-136188233D01*
X165975285Y-136235852D01*
X166022904Y-136283471D01*
X166070523Y-136378709D01*
X166070523Y-136616804D01*
X166022904Y-136712042D01*
X165975285Y-136759661D01*
X165880047Y-136807280D01*
X165594333Y-136807280D01*
X165499095Y-136759661D01*
X165451476Y-136712042D01*
%TO.C,MX14*%
X180499095Y-83557280D02*
X180499095Y-82557280D01*
X180832428Y-83271566D01*
X181165761Y-82557280D01*
X181165761Y-83557280D01*
X181546714Y-82557280D02*
X182213380Y-83557280D01*
X182213380Y-82557280D02*
X181546714Y-83557280D01*
X183118142Y-83557280D02*
X182546714Y-83557280D01*
X182832428Y-83557280D02*
X182832428Y-82557280D01*
X182737190Y-82700138D01*
X182641952Y-82795376D01*
X182546714Y-82842995D01*
X183975285Y-82890614D02*
X183975285Y-83557280D01*
X183737190Y-82509661D02*
X183499095Y-83223947D01*
X184118142Y-83223947D01*
%TO.C,MX15*%
X180499095Y-100557280D02*
X180499095Y-99557280D01*
X180832428Y-100271566D01*
X181165761Y-99557280D01*
X181165761Y-100557280D01*
X181546714Y-99557280D02*
X182213380Y-100557280D01*
X182213380Y-99557280D02*
X181546714Y-100557280D01*
X183118142Y-100557280D02*
X182546714Y-100557280D01*
X182832428Y-100557280D02*
X182832428Y-99557280D01*
X182737190Y-99700138D01*
X182641952Y-99795376D01*
X182546714Y-99842995D01*
X184022904Y-99557280D02*
X183546714Y-99557280D01*
X183499095Y-100033471D01*
X183546714Y-99985852D01*
X183641952Y-99938233D01*
X183880047Y-99938233D01*
X183975285Y-99985852D01*
X184022904Y-100033471D01*
X184070523Y-100128709D01*
X184070523Y-100366804D01*
X184022904Y-100462042D01*
X183975285Y-100509661D01*
X183880047Y-100557280D01*
X183641952Y-100557280D01*
X183546714Y-100509661D01*
X183499095Y-100462042D01*
%TO.C,MX16*%
X180499095Y-117557280D02*
X180499095Y-116557280D01*
X180832428Y-117271566D01*
X181165761Y-116557280D01*
X181165761Y-117557280D01*
X181546714Y-116557280D02*
X182213380Y-117557280D01*
X182213380Y-116557280D02*
X181546714Y-117557280D01*
X183118142Y-117557280D02*
X182546714Y-117557280D01*
X182832428Y-117557280D02*
X182832428Y-116557280D01*
X182737190Y-116700138D01*
X182641952Y-116795376D01*
X182546714Y-116842995D01*
X183975285Y-116557280D02*
X183784809Y-116557280D01*
X183689571Y-116604900D01*
X183641952Y-116652519D01*
X183546714Y-116795376D01*
X183499095Y-116985852D01*
X183499095Y-117366804D01*
X183546714Y-117462042D01*
X183594333Y-117509661D01*
X183689571Y-117557280D01*
X183880047Y-117557280D01*
X183975285Y-117509661D01*
X184022904Y-117462042D01*
X184070523Y-117366804D01*
X184070523Y-117128709D01*
X184022904Y-117033471D01*
X183975285Y-116985852D01*
X183880047Y-116938233D01*
X183689571Y-116938233D01*
X183594333Y-116985852D01*
X183546714Y-117033471D01*
X183499095Y-117128709D01*
%TO.C,MX17*%
X180499095Y-136807280D02*
X180499095Y-135807280D01*
X180832428Y-136521566D01*
X181165761Y-135807280D01*
X181165761Y-136807280D01*
X181546714Y-135807280D02*
X182213380Y-136807280D01*
X182213380Y-135807280D02*
X181546714Y-136807280D01*
X183118142Y-136807280D02*
X182546714Y-136807280D01*
X182832428Y-136807280D02*
X182832428Y-135807280D01*
X182737190Y-135950138D01*
X182641952Y-136045376D01*
X182546714Y-136092995D01*
X183451476Y-135807280D02*
X184118142Y-135807280D01*
X183689571Y-136807280D01*
%TO.C,SW1*%
X144808619Y-123802380D02*
X144475285Y-123326190D01*
X144237190Y-123802380D02*
X144237190Y-122802380D01*
X144618142Y-122802380D01*
X144713380Y-122850000D01*
X144761000Y-122897619D01*
X144808619Y-122992857D01*
X144808619Y-123135714D01*
X144761000Y-123230952D01*
X144713380Y-123278571D01*
X144618142Y-123326190D01*
X144237190Y-123326190D01*
X145237190Y-123278571D02*
X145570523Y-123278571D01*
X145713380Y-123802380D02*
X145237190Y-123802380D01*
X145237190Y-122802380D01*
X145713380Y-122802380D01*
X146094333Y-123754761D02*
X146237190Y-123802380D01*
X146475285Y-123802380D01*
X146570523Y-123754761D01*
X146618142Y-123707142D01*
X146665761Y-123611904D01*
X146665761Y-123516666D01*
X146618142Y-123421428D01*
X146570523Y-123373809D01*
X146475285Y-123326190D01*
X146284809Y-123278571D01*
X146189571Y-123230952D01*
X146141952Y-123183333D01*
X146094333Y-123088095D01*
X146094333Y-122992857D01*
X146141952Y-122897619D01*
X146189571Y-122850000D01*
X146284809Y-122802380D01*
X146522904Y-122802380D01*
X146665761Y-122850000D01*
X147094333Y-123278571D02*
X147427666Y-123278571D01*
X147570523Y-123802380D02*
X147094333Y-123802380D01*
X147094333Y-122802380D01*
X147570523Y-122802380D01*
X147856238Y-122802380D02*
X148427666Y-122802380D01*
X148141952Y-123802380D02*
X148141952Y-122802380D01*
%TO.C,U1*%
D12*
X124535785Y-119780852D02*
X124178642Y-119947519D01*
X124535785Y-120066566D02*
X123785785Y-120066566D01*
X123785785Y-119876090D01*
X123821500Y-119828471D01*
X123857214Y-119804661D01*
X123928642Y-119780852D01*
X124035785Y-119780852D01*
X124107214Y-119804661D01*
X124142928Y-119828471D01*
X124178642Y-119876090D01*
X124178642Y-120066566D01*
X123785785Y-119471328D02*
X123785785Y-119376090D01*
X123821500Y-119328471D01*
X123892928Y-119280852D01*
X124035785Y-119257042D01*
X124285785Y-119257042D01*
X124428642Y-119280852D01*
X124500071Y-119328471D01*
X124535785Y-119376090D01*
X124535785Y-119471328D01*
X124500071Y-119518947D01*
X124428642Y-119566566D01*
X124285785Y-119590376D01*
X124035785Y-119590376D01*
X123892928Y-119566566D01*
X123821500Y-119518947D01*
X123785785Y-119471328D01*
X123785785Y-119090376D02*
X124535785Y-118971328D01*
X124000071Y-118876090D01*
X124535785Y-118780852D01*
X123785785Y-118661804D01*
X124535785Y-118209423D02*
X124535785Y-118495138D01*
X124535785Y-118352280D02*
X123785785Y-118352280D01*
X123892928Y-118399900D01*
X123964357Y-118447519D01*
X124000071Y-118495138D01*
X126940857Y-134947519D02*
X126976571Y-134971328D01*
X127012285Y-135042757D01*
X127012285Y-135090376D01*
X126976571Y-135161804D01*
X126905142Y-135209423D01*
X126833714Y-135233233D01*
X126690857Y-135257042D01*
X126583714Y-135257042D01*
X126440857Y-135233233D01*
X126369428Y-135209423D01*
X126298000Y-135161804D01*
X126262285Y-135090376D01*
X126262285Y-135042757D01*
X126298000Y-134971328D01*
X126333714Y-134947519D01*
X126262285Y-134637995D02*
X126262285Y-134542757D01*
X126298000Y-134495138D01*
X126369428Y-134447519D01*
X126512285Y-134423709D01*
X126762285Y-134423709D01*
X126905142Y-134447519D01*
X126976571Y-134495138D01*
X127012285Y-134542757D01*
X127012285Y-134637995D01*
X126976571Y-134685614D01*
X126905142Y-134733233D01*
X126762285Y-134757042D01*
X126512285Y-134757042D01*
X126369428Y-134733233D01*
X126298000Y-134685614D01*
X126262285Y-134637995D01*
X127012285Y-133971328D02*
X127012285Y-134209423D01*
X126262285Y-134209423D01*
X126512285Y-133590376D02*
X127012285Y-133590376D01*
X126226571Y-133709423D02*
X126762285Y-133828471D01*
X126762285Y-133518947D01*
X127139285Y-119780852D02*
X126782142Y-119947519D01*
X127139285Y-120066566D02*
X126389285Y-120066566D01*
X126389285Y-119876090D01*
X126425000Y-119828471D01*
X126460714Y-119804661D01*
X126532142Y-119780852D01*
X126639285Y-119780852D01*
X126710714Y-119804661D01*
X126746428Y-119828471D01*
X126782142Y-119876090D01*
X126782142Y-120066566D01*
X126389285Y-119471328D02*
X126389285Y-119376090D01*
X126425000Y-119328471D01*
X126496428Y-119280852D01*
X126639285Y-119257042D01*
X126889285Y-119257042D01*
X127032142Y-119280852D01*
X127103571Y-119328471D01*
X127139285Y-119376090D01*
X127139285Y-119471328D01*
X127103571Y-119518947D01*
X127032142Y-119566566D01*
X126889285Y-119590376D01*
X126639285Y-119590376D01*
X126496428Y-119566566D01*
X126425000Y-119518947D01*
X126389285Y-119471328D01*
X126389285Y-119090376D02*
X127139285Y-118971328D01*
X126603571Y-118876090D01*
X127139285Y-118780852D01*
X126389285Y-118661804D01*
X126460714Y-118495138D02*
X126425000Y-118471328D01*
X126389285Y-118423709D01*
X126389285Y-118304661D01*
X126425000Y-118257042D01*
X126460714Y-118233233D01*
X126532142Y-118209423D01*
X126603571Y-118209423D01*
X126710714Y-118233233D01*
X127139285Y-118518947D01*
X127139285Y-118209423D01*
X129578857Y-134997519D02*
X129614571Y-135021328D01*
X129650285Y-135092757D01*
X129650285Y-135140376D01*
X129614571Y-135211804D01*
X129543142Y-135259423D01*
X129471714Y-135283233D01*
X129328857Y-135307042D01*
X129221714Y-135307042D01*
X129078857Y-135283233D01*
X129007428Y-135259423D01*
X128936000Y-135211804D01*
X128900285Y-135140376D01*
X128900285Y-135092757D01*
X128936000Y-135021328D01*
X128971714Y-134997519D01*
X128900285Y-134687995D02*
X128900285Y-134592757D01*
X128936000Y-134545138D01*
X129007428Y-134497519D01*
X129150285Y-134473709D01*
X129400285Y-134473709D01*
X129543142Y-134497519D01*
X129614571Y-134545138D01*
X129650285Y-134592757D01*
X129650285Y-134687995D01*
X129614571Y-134735614D01*
X129543142Y-134783233D01*
X129400285Y-134807042D01*
X129150285Y-134807042D01*
X129007428Y-134783233D01*
X128936000Y-134735614D01*
X128900285Y-134687995D01*
X129650285Y-134021328D02*
X129650285Y-134259423D01*
X128900285Y-134259423D01*
X128900285Y-133616566D02*
X128900285Y-133854661D01*
X129257428Y-133878471D01*
X129221714Y-133854661D01*
X129186000Y-133807042D01*
X129186000Y-133687995D01*
X129221714Y-133640376D01*
X129257428Y-133616566D01*
X129328857Y-133592757D01*
X129507428Y-133592757D01*
X129578857Y-133616566D01*
X129614571Y-133640376D01*
X129650285Y-133687995D01*
X129650285Y-133807042D01*
X129614571Y-133854661D01*
X129578857Y-133878471D01*
X129650285Y-119780852D02*
X129293142Y-119947519D01*
X129650285Y-120066566D02*
X128900285Y-120066566D01*
X128900285Y-119876090D01*
X128936000Y-119828471D01*
X128971714Y-119804661D01*
X129043142Y-119780852D01*
X129150285Y-119780852D01*
X129221714Y-119804661D01*
X129257428Y-119828471D01*
X129293142Y-119876090D01*
X129293142Y-120066566D01*
X128900285Y-119471328D02*
X128900285Y-119376090D01*
X128936000Y-119328471D01*
X129007428Y-119280852D01*
X129150285Y-119257042D01*
X129400285Y-119257042D01*
X129543142Y-119280852D01*
X129614571Y-119328471D01*
X129650285Y-119376090D01*
X129650285Y-119471328D01*
X129614571Y-119518947D01*
X129543142Y-119566566D01*
X129400285Y-119590376D01*
X129150285Y-119590376D01*
X129007428Y-119566566D01*
X128936000Y-119518947D01*
X128900285Y-119471328D01*
X128900285Y-119090376D02*
X129650285Y-118971328D01*
X129114571Y-118876090D01*
X129650285Y-118780852D01*
X128900285Y-118661804D01*
X128900285Y-118518947D02*
X128900285Y-118209423D01*
X129186000Y-118376090D01*
X129186000Y-118304661D01*
X129221714Y-118257042D01*
X129257428Y-118233233D01*
X129328857Y-118209423D01*
X129507428Y-118209423D01*
X129578857Y-118233233D01*
X129614571Y-118257042D01*
X129650285Y-118304661D01*
X129650285Y-118447519D01*
X129614571Y-118495138D01*
X129578857Y-118518947D01*
X131635928Y-135160780D02*
X131671642Y-135089352D01*
X131707357Y-135065542D01*
X131778785Y-135041733D01*
X131885928Y-135041733D01*
X131957357Y-135065542D01*
X131993071Y-135089352D01*
X132028785Y-135136971D01*
X132028785Y-135327447D01*
X131278785Y-135327447D01*
X131278785Y-135160780D01*
X131314500Y-135113161D01*
X131350214Y-135089352D01*
X131421642Y-135065542D01*
X131493071Y-135065542D01*
X131564500Y-135089352D01*
X131600214Y-135113161D01*
X131635928Y-135160780D01*
X131635928Y-135327447D01*
X131350214Y-134851257D02*
X131314500Y-134827447D01*
X131278785Y-134779828D01*
X131278785Y-134660780D01*
X131314500Y-134613161D01*
X131350214Y-134589352D01*
X131421642Y-134565542D01*
X131493071Y-134565542D01*
X131600214Y-134589352D01*
X132028785Y-134875066D01*
X132028785Y-134565542D01*
X131762928Y-119603280D02*
X131798642Y-119531852D01*
X131834357Y-119508042D01*
X131905785Y-119484233D01*
X132012928Y-119484233D01*
X132084357Y-119508042D01*
X132120071Y-119531852D01*
X132155785Y-119579471D01*
X132155785Y-119769947D01*
X131405785Y-119769947D01*
X131405785Y-119603280D01*
X131441500Y-119555661D01*
X131477214Y-119531852D01*
X131548642Y-119508042D01*
X131620071Y-119508042D01*
X131691500Y-119531852D01*
X131727214Y-119555661D01*
X131762928Y-119603280D01*
X131762928Y-119769947D01*
X131655785Y-119055661D02*
X132155785Y-119055661D01*
X131370071Y-119174709D02*
X131905785Y-119293757D01*
X131905785Y-118984233D01*
X134302928Y-119603280D02*
X134338642Y-119531852D01*
X134374357Y-119508042D01*
X134445785Y-119484233D01*
X134552928Y-119484233D01*
X134624357Y-119508042D01*
X134660071Y-119531852D01*
X134695785Y-119579471D01*
X134695785Y-119769947D01*
X133945785Y-119769947D01*
X133945785Y-119603280D01*
X133981500Y-119555661D01*
X134017214Y-119531852D01*
X134088642Y-119508042D01*
X134160071Y-119508042D01*
X134231500Y-119531852D01*
X134267214Y-119555661D01*
X134302928Y-119603280D01*
X134302928Y-119769947D01*
X133945785Y-119031852D02*
X133945785Y-119269947D01*
X134302928Y-119293757D01*
X134267214Y-119269947D01*
X134231500Y-119222328D01*
X134231500Y-119103280D01*
X134267214Y-119055661D01*
X134302928Y-119031852D01*
X134374357Y-119008042D01*
X134552928Y-119008042D01*
X134624357Y-119031852D01*
X134660071Y-119055661D01*
X134695785Y-119103280D01*
X134695785Y-119222328D01*
X134660071Y-119269947D01*
X134624357Y-119293757D01*
X134239428Y-135097280D02*
X134275142Y-135025852D01*
X134310857Y-135002042D01*
X134382285Y-134978233D01*
X134489428Y-134978233D01*
X134560857Y-135002042D01*
X134596571Y-135025852D01*
X134632285Y-135073471D01*
X134632285Y-135263947D01*
X133882285Y-135263947D01*
X133882285Y-135097280D01*
X133918000Y-135049661D01*
X133953714Y-135025852D01*
X134025142Y-135002042D01*
X134096571Y-135002042D01*
X134168000Y-135025852D01*
X134203714Y-135049661D01*
X134239428Y-135097280D01*
X134239428Y-135263947D01*
X133882285Y-134549661D02*
X133882285Y-134644900D01*
X133918000Y-134692519D01*
X133953714Y-134716328D01*
X134060857Y-134763947D01*
X134203714Y-134787757D01*
X134489428Y-134787757D01*
X134560857Y-134763947D01*
X134596571Y-134740138D01*
X134632285Y-134692519D01*
X134632285Y-134597280D01*
X134596571Y-134549661D01*
X134560857Y-134525852D01*
X134489428Y-134502042D01*
X134310857Y-134502042D01*
X134239428Y-134525852D01*
X134203714Y-134549661D01*
X134168000Y-134597280D01*
X134168000Y-134692519D01*
X134203714Y-134740138D01*
X134239428Y-134763947D01*
X134310857Y-134787757D01*
X116878857Y-134997519D02*
X116914571Y-135021328D01*
X116950285Y-135092757D01*
X116950285Y-135140376D01*
X116914571Y-135211804D01*
X116843142Y-135259423D01*
X116771714Y-135283233D01*
X116628857Y-135307042D01*
X116521714Y-135307042D01*
X116378857Y-135283233D01*
X116307428Y-135259423D01*
X116236000Y-135211804D01*
X116200285Y-135140376D01*
X116200285Y-135092757D01*
X116236000Y-135021328D01*
X116271714Y-134997519D01*
X116200285Y-134687995D02*
X116200285Y-134592757D01*
X116236000Y-134545138D01*
X116307428Y-134497519D01*
X116450285Y-134473709D01*
X116700285Y-134473709D01*
X116843142Y-134497519D01*
X116914571Y-134545138D01*
X116950285Y-134592757D01*
X116950285Y-134687995D01*
X116914571Y-134735614D01*
X116843142Y-134783233D01*
X116700285Y-134807042D01*
X116450285Y-134807042D01*
X116307428Y-134783233D01*
X116236000Y-134735614D01*
X116200285Y-134687995D01*
X116950285Y-134021328D02*
X116950285Y-134259423D01*
X116200285Y-134259423D01*
X116200285Y-133759423D02*
X116200285Y-133711804D01*
X116236000Y-133664185D01*
X116271714Y-133640376D01*
X116343142Y-133616566D01*
X116486000Y-133592757D01*
X116664571Y-133592757D01*
X116807428Y-133616566D01*
X116878857Y-133640376D01*
X116914571Y-133664185D01*
X116950285Y-133711804D01*
X116950285Y-133759423D01*
X116914571Y-133807042D01*
X116878857Y-133830852D01*
X116807428Y-133854661D01*
X116664571Y-133878471D01*
X116486000Y-133878471D01*
X116343142Y-133854661D01*
X116271714Y-133830852D01*
X116236000Y-133807042D01*
X116200285Y-133759423D01*
X116880071Y-120008042D02*
X116915785Y-119936614D01*
X116915785Y-119817566D01*
X116880071Y-119769947D01*
X116844357Y-119746138D01*
X116772928Y-119722328D01*
X116701500Y-119722328D01*
X116630071Y-119746138D01*
X116594357Y-119769947D01*
X116558642Y-119817566D01*
X116522928Y-119912804D01*
X116487214Y-119960423D01*
X116451500Y-119984233D01*
X116380071Y-120008042D01*
X116308642Y-120008042D01*
X116237214Y-119984233D01*
X116201500Y-119960423D01*
X116165785Y-119912804D01*
X116165785Y-119793757D01*
X116201500Y-119722328D01*
X116915785Y-119508042D02*
X116165785Y-119508042D01*
X116165785Y-119388995D01*
X116201500Y-119317566D01*
X116272928Y-119269947D01*
X116344357Y-119246138D01*
X116487214Y-119222328D01*
X116594357Y-119222328D01*
X116737214Y-119246138D01*
X116808642Y-119269947D01*
X116880071Y-119317566D01*
X116915785Y-119388995D01*
X116915785Y-119508042D01*
X116701500Y-119031852D02*
X116701500Y-118793757D01*
X116915785Y-119079471D02*
X116165785Y-118912804D01*
X116915785Y-118746138D01*
X119384357Y-134997519D02*
X119420071Y-135021328D01*
X119455785Y-135092757D01*
X119455785Y-135140376D01*
X119420071Y-135211804D01*
X119348642Y-135259423D01*
X119277214Y-135283233D01*
X119134357Y-135307042D01*
X119027214Y-135307042D01*
X118884357Y-135283233D01*
X118812928Y-135259423D01*
X118741500Y-135211804D01*
X118705785Y-135140376D01*
X118705785Y-135092757D01*
X118741500Y-135021328D01*
X118777214Y-134997519D01*
X118705785Y-134687995D02*
X118705785Y-134592757D01*
X118741500Y-134545138D01*
X118812928Y-134497519D01*
X118955785Y-134473709D01*
X119205785Y-134473709D01*
X119348642Y-134497519D01*
X119420071Y-134545138D01*
X119455785Y-134592757D01*
X119455785Y-134687995D01*
X119420071Y-134735614D01*
X119348642Y-134783233D01*
X119205785Y-134807042D01*
X118955785Y-134807042D01*
X118812928Y-134783233D01*
X118741500Y-134735614D01*
X118705785Y-134687995D01*
X119455785Y-134021328D02*
X119455785Y-134259423D01*
X118705785Y-134259423D01*
X119455785Y-133592757D02*
X119455785Y-133878471D01*
X119455785Y-133735614D02*
X118705785Y-133735614D01*
X118812928Y-133783233D01*
X118884357Y-133830852D01*
X118920071Y-133878471D01*
X119420071Y-119996138D02*
X119455785Y-119924709D01*
X119455785Y-119805661D01*
X119420071Y-119758042D01*
X119384357Y-119734233D01*
X119312928Y-119710423D01*
X119241500Y-119710423D01*
X119170071Y-119734233D01*
X119134357Y-119758042D01*
X119098642Y-119805661D01*
X119062928Y-119900900D01*
X119027214Y-119948519D01*
X118991500Y-119972328D01*
X118920071Y-119996138D01*
X118848642Y-119996138D01*
X118777214Y-119972328D01*
X118741500Y-119948519D01*
X118705785Y-119900900D01*
X118705785Y-119781852D01*
X118741500Y-119710423D01*
X119384357Y-119210423D02*
X119420071Y-119234233D01*
X119455785Y-119305661D01*
X119455785Y-119353280D01*
X119420071Y-119424709D01*
X119348642Y-119472328D01*
X119277214Y-119496138D01*
X119134357Y-119519947D01*
X119027214Y-119519947D01*
X118884357Y-119496138D01*
X118812928Y-119472328D01*
X118741500Y-119424709D01*
X118705785Y-119353280D01*
X118705785Y-119305661D01*
X118741500Y-119234233D01*
X118777214Y-119210423D01*
X119455785Y-118758042D02*
X119455785Y-118996138D01*
X118705785Y-118996138D01*
X121928857Y-134997519D02*
X121964571Y-135021328D01*
X122000285Y-135092757D01*
X122000285Y-135140376D01*
X121964571Y-135211804D01*
X121893142Y-135259423D01*
X121821714Y-135283233D01*
X121678857Y-135307042D01*
X121571714Y-135307042D01*
X121428857Y-135283233D01*
X121357428Y-135259423D01*
X121286000Y-135211804D01*
X121250285Y-135140376D01*
X121250285Y-135092757D01*
X121286000Y-135021328D01*
X121321714Y-134997519D01*
X121250285Y-134687995D02*
X121250285Y-134592757D01*
X121286000Y-134545138D01*
X121357428Y-134497519D01*
X121500285Y-134473709D01*
X121750285Y-134473709D01*
X121893142Y-134497519D01*
X121964571Y-134545138D01*
X122000285Y-134592757D01*
X122000285Y-134687995D01*
X121964571Y-134735614D01*
X121893142Y-134783233D01*
X121750285Y-134807042D01*
X121500285Y-134807042D01*
X121357428Y-134783233D01*
X121286000Y-134735614D01*
X121250285Y-134687995D01*
X122000285Y-134021328D02*
X122000285Y-134259423D01*
X121250285Y-134259423D01*
X121321714Y-133878471D02*
X121286000Y-133854661D01*
X121250285Y-133807042D01*
X121250285Y-133687995D01*
X121286000Y-133640376D01*
X121321714Y-133616566D01*
X121393142Y-133592757D01*
X121464571Y-133592757D01*
X121571714Y-133616566D01*
X122000285Y-133902280D01*
X122000285Y-133592757D01*
X121932285Y-119780852D02*
X121575142Y-119947519D01*
X121932285Y-120066566D02*
X121182285Y-120066566D01*
X121182285Y-119876090D01*
X121218000Y-119828471D01*
X121253714Y-119804661D01*
X121325142Y-119780852D01*
X121432285Y-119780852D01*
X121503714Y-119804661D01*
X121539428Y-119828471D01*
X121575142Y-119876090D01*
X121575142Y-120066566D01*
X121182285Y-119471328D02*
X121182285Y-119376090D01*
X121218000Y-119328471D01*
X121289428Y-119280852D01*
X121432285Y-119257042D01*
X121682285Y-119257042D01*
X121825142Y-119280852D01*
X121896571Y-119328471D01*
X121932285Y-119376090D01*
X121932285Y-119471328D01*
X121896571Y-119518947D01*
X121825142Y-119566566D01*
X121682285Y-119590376D01*
X121432285Y-119590376D01*
X121289428Y-119566566D01*
X121218000Y-119518947D01*
X121182285Y-119471328D01*
X121182285Y-119090376D02*
X121932285Y-118971328D01*
X121396571Y-118876090D01*
X121932285Y-118780852D01*
X121182285Y-118661804D01*
X121182285Y-118376090D02*
X121182285Y-118328471D01*
X121218000Y-118280852D01*
X121253714Y-118257042D01*
X121325142Y-118233233D01*
X121468000Y-118209423D01*
X121646571Y-118209423D01*
X121789428Y-118233233D01*
X121860857Y-118257042D01*
X121896571Y-118280852D01*
X121932285Y-118328471D01*
X121932285Y-118376090D01*
X121896571Y-118423709D01*
X121860857Y-118447519D01*
X121789428Y-118471328D01*
X121646571Y-118495138D01*
X121468000Y-118495138D01*
X121325142Y-118471328D01*
X121253714Y-118447519D01*
X121218000Y-118423709D01*
X121182285Y-118376090D01*
X124428857Y-134997519D02*
X124464571Y-135021328D01*
X124500285Y-135092757D01*
X124500285Y-135140376D01*
X124464571Y-135211804D01*
X124393142Y-135259423D01*
X124321714Y-135283233D01*
X124178857Y-135307042D01*
X124071714Y-135307042D01*
X123928857Y-135283233D01*
X123857428Y-135259423D01*
X123786000Y-135211804D01*
X123750285Y-135140376D01*
X123750285Y-135092757D01*
X123786000Y-135021328D01*
X123821714Y-134997519D01*
X123750285Y-134687995D02*
X123750285Y-134592757D01*
X123786000Y-134545138D01*
X123857428Y-134497519D01*
X124000285Y-134473709D01*
X124250285Y-134473709D01*
X124393142Y-134497519D01*
X124464571Y-134545138D01*
X124500285Y-134592757D01*
X124500285Y-134687995D01*
X124464571Y-134735614D01*
X124393142Y-134783233D01*
X124250285Y-134807042D01*
X124000285Y-134807042D01*
X123857428Y-134783233D01*
X123786000Y-134735614D01*
X123750285Y-134687995D01*
X124500285Y-134021328D02*
X124500285Y-134259423D01*
X123750285Y-134259423D01*
X123750285Y-133902280D02*
X123750285Y-133592757D01*
X124036000Y-133759423D01*
X124036000Y-133687995D01*
X124071714Y-133640376D01*
X124107428Y-133616566D01*
X124178857Y-133592757D01*
X124357428Y-133592757D01*
X124428857Y-133616566D01*
X124464571Y-133640376D01*
X124500285Y-133687995D01*
X124500285Y-133830852D01*
X124464571Y-133878471D01*
X124428857Y-133902280D01*
X113661500Y-119781852D02*
X113625785Y-119829471D01*
X113625785Y-119900900D01*
X113661500Y-119972328D01*
X113732928Y-120019947D01*
X113804357Y-120043757D01*
X113947214Y-120067566D01*
X114054357Y-120067566D01*
X114197214Y-120043757D01*
X114268642Y-120019947D01*
X114340071Y-119972328D01*
X114375785Y-119900900D01*
X114375785Y-119853280D01*
X114340071Y-119781852D01*
X114304357Y-119758042D01*
X114054357Y-119758042D01*
X114054357Y-119853280D01*
X114375785Y-119543757D02*
X113625785Y-119543757D01*
X114375785Y-119258042D01*
X113625785Y-119258042D01*
X114375785Y-119019947D02*
X113625785Y-119019947D01*
X113625785Y-118900900D01*
X113661500Y-118829471D01*
X113732928Y-118781852D01*
X113804357Y-118758042D01*
X113947214Y-118734233D01*
X114054357Y-118734233D01*
X114197214Y-118758042D01*
X114268642Y-118781852D01*
X114340071Y-118829471D01*
X114375785Y-118900900D01*
X114375785Y-119019947D01*
X113625785Y-135244066D02*
X114375785Y-135077400D01*
X113625785Y-134910733D01*
X114304357Y-134458352D02*
X114340071Y-134482161D01*
X114375785Y-134553590D01*
X114375785Y-134601209D01*
X114340071Y-134672638D01*
X114268642Y-134720257D01*
X114197214Y-134744066D01*
X114054357Y-134767876D01*
X113947214Y-134767876D01*
X113804357Y-134744066D01*
X113732928Y-134720257D01*
X113661500Y-134672638D01*
X113625785Y-134601209D01*
X113625785Y-134553590D01*
X113661500Y-134482161D01*
X113697214Y-134458352D01*
X114304357Y-133958352D02*
X114340071Y-133982161D01*
X114375785Y-134053590D01*
X114375785Y-134101209D01*
X114340071Y-134172638D01*
X114268642Y-134220257D01*
X114197214Y-134244066D01*
X114054357Y-134267876D01*
X113947214Y-134267876D01*
X113804357Y-134244066D01*
X113732928Y-134220257D01*
X113661500Y-134172638D01*
X113625785Y-134101209D01*
X113625785Y-134053590D01*
X113661500Y-133982161D01*
X113697214Y-133958352D01*
X111121500Y-119781852D02*
X111085785Y-119829471D01*
X111085785Y-119900900D01*
X111121500Y-119972328D01*
X111192928Y-120019947D01*
X111264357Y-120043757D01*
X111407214Y-120067566D01*
X111514357Y-120067566D01*
X111657214Y-120043757D01*
X111728642Y-120019947D01*
X111800071Y-119972328D01*
X111835785Y-119900900D01*
X111835785Y-119853280D01*
X111800071Y-119781852D01*
X111764357Y-119758042D01*
X111514357Y-119758042D01*
X111514357Y-119853280D01*
X111835785Y-119543757D02*
X111085785Y-119543757D01*
X111835785Y-119258042D01*
X111085785Y-119258042D01*
X111835785Y-119019947D02*
X111085785Y-119019947D01*
X111085785Y-118900900D01*
X111121500Y-118829471D01*
X111192928Y-118781852D01*
X111264357Y-118758042D01*
X111407214Y-118734233D01*
X111514357Y-118734233D01*
X111657214Y-118758042D01*
X111728642Y-118781852D01*
X111800071Y-118829471D01*
X111835785Y-118900900D01*
X111835785Y-119019947D01*
X111835785Y-134914709D02*
X111478642Y-135081376D01*
X111835785Y-135200423D02*
X111085785Y-135200423D01*
X111085785Y-135009947D01*
X111121500Y-134962328D01*
X111157214Y-134938519D01*
X111228642Y-134914709D01*
X111335785Y-134914709D01*
X111407214Y-134938519D01*
X111442928Y-134962328D01*
X111478642Y-135009947D01*
X111478642Y-135200423D01*
X111800071Y-134724233D02*
X111835785Y-134652804D01*
X111835785Y-134533757D01*
X111800071Y-134486138D01*
X111764357Y-134462328D01*
X111692928Y-134438519D01*
X111621500Y-134438519D01*
X111550071Y-134462328D01*
X111514357Y-134486138D01*
X111478642Y-134533757D01*
X111442928Y-134628995D01*
X111407214Y-134676614D01*
X111371500Y-134700423D01*
X111300071Y-134724233D01*
X111228642Y-134724233D01*
X111157214Y-134700423D01*
X111121500Y-134676614D01*
X111085785Y-134628995D01*
X111085785Y-134509947D01*
X111121500Y-134438519D01*
X111085785Y-134295661D02*
X111085785Y-134009947D01*
X111835785Y-134152804D02*
X111085785Y-134152804D01*
X109400285Y-119999900D02*
X108650285Y-119999900D01*
X108650285Y-119880852D01*
X108686000Y-119809423D01*
X108757428Y-119761804D01*
X108828857Y-119737995D01*
X108971714Y-119714185D01*
X109078857Y-119714185D01*
X109221714Y-119737995D01*
X109293142Y-119761804D01*
X109364571Y-119809423D01*
X109400285Y-119880852D01*
X109400285Y-119999900D01*
X109186000Y-119523709D02*
X109186000Y-119285614D01*
X109400285Y-119571328D02*
X108650285Y-119404661D01*
X109400285Y-119237995D01*
X108650285Y-119142757D02*
X108650285Y-118857042D01*
X109400285Y-118999900D02*
X108650285Y-118999900D01*
X109186000Y-118714185D02*
X109186000Y-118476090D01*
X109400285Y-118761804D02*
X108650285Y-118595138D01*
X109400285Y-118428471D01*
X108518000Y-134958352D02*
X108482285Y-135005971D01*
X108482285Y-135077400D01*
X108518000Y-135148828D01*
X108589428Y-135196447D01*
X108660857Y-135220257D01*
X108803714Y-135244066D01*
X108910857Y-135244066D01*
X109053714Y-135220257D01*
X109125142Y-135196447D01*
X109196571Y-135148828D01*
X109232285Y-135077400D01*
X109232285Y-135029780D01*
X109196571Y-134958352D01*
X109160857Y-134934542D01*
X108910857Y-134934542D01*
X108910857Y-135029780D01*
X109232285Y-134720257D02*
X108482285Y-134720257D01*
X109232285Y-134434542D01*
X108482285Y-134434542D01*
X109232285Y-134196447D02*
X108482285Y-134196447D01*
X108482285Y-134077400D01*
X108518000Y-134005971D01*
X108589428Y-133958352D01*
X108660857Y-133934542D01*
X108803714Y-133910733D01*
X108910857Y-133910733D01*
X109053714Y-133934542D01*
X109125142Y-133958352D01*
X109196571Y-134005971D01*
X109232285Y-134077400D01*
X109232285Y-134196447D01*
X106755785Y-119722328D02*
X106755785Y-119960423D01*
X106005785Y-119960423D01*
X106362928Y-119555661D02*
X106362928Y-119388995D01*
X106755785Y-119317566D02*
X106755785Y-119555661D01*
X106005785Y-119555661D01*
X106005785Y-119317566D01*
X106755785Y-119103280D02*
X106005785Y-119103280D01*
X106005785Y-118984233D01*
X106041500Y-118912804D01*
X106112928Y-118865185D01*
X106184357Y-118841376D01*
X106327214Y-118817566D01*
X106434357Y-118817566D01*
X106577214Y-118841376D01*
X106648642Y-118865185D01*
X106720071Y-118912804D01*
X106755785Y-118984233D01*
X106755785Y-119103280D01*
X106755785Y-134986138D02*
X106398642Y-135152804D01*
X106755785Y-135271852D02*
X106005785Y-135271852D01*
X106005785Y-135081376D01*
X106041500Y-135033757D01*
X106077214Y-135009947D01*
X106148642Y-134986138D01*
X106255785Y-134986138D01*
X106327214Y-135009947D01*
X106362928Y-135033757D01*
X106398642Y-135081376D01*
X106398642Y-135271852D01*
X106541500Y-134795661D02*
X106541500Y-134557566D01*
X106755785Y-134843280D02*
X106005785Y-134676614D01*
X106755785Y-134509947D01*
X106005785Y-134390900D02*
X106755785Y-134271852D01*
X106220071Y-134176614D01*
X106755785Y-134081376D01*
X106005785Y-133962328D01*
%TD*%
M02*
