M48
; DRILL file {KiCad (5.1.12)-1} date 11/30/21 03:04:52
; FORMAT={-:-/ absolute / inch / decimal}
; #@! TF.CreationDate,2021-11-30T03:04:52-08:00
; #@! TF.GenerationSoftware,Kicad,Pcbnew,(5.1.12)-1
; #@! TF.FileFunction,NonPlated,1,2,NPTH
FMAT,2
INCH
T1C0.0315
T2C0.0390
T3C0.0670
T4C0.1350
%
G90
G05
T1
X5.7591Y-5.073
X5.7591Y-5.3486
X5.7593Y-5.073
X5.7593Y-5.3486
T2
X4.1355Y-3.2224
X4.1355Y-3.8917
X4.1355Y-4.561
X4.5465Y-3.2224
X4.5465Y-3.8917
X4.5465Y-4.561
X4.8441Y-3.2224
X4.8441Y-3.8917
X4.8441Y-4.561
X5.2552Y-3.2224
X5.2552Y-3.8917
X5.2552Y-4.561
X5.5528Y-3.2224
X5.5528Y-3.8917
X5.5528Y-4.561
X5.9638Y-3.2224
X5.9638Y-3.8917
X5.9638Y-4.561
X6.2615Y-3.2224
X6.2615Y-3.8917
X6.2615Y-4.561
X6.2615Y-5.3189
X6.6725Y-3.2224
X6.6725Y-3.8917
X6.6725Y-4.561
X6.6725Y-5.3189
X6.9701Y-3.2224
X6.9701Y-3.8917
X6.9701Y-4.561
X6.9701Y-5.3189
X7.3811Y-3.2224
X7.3811Y-3.8917
X7.3811Y-4.561
X7.3811Y-5.3189
T3
X4.1244Y-3.0571
X4.1244Y-3.7264
X4.1244Y-4.3957
X4.5575Y-3.0571
X4.5575Y-3.7264
X4.5575Y-4.3957
X4.8331Y-3.0571
X4.8331Y-3.7264
X4.8331Y-4.3957
X5.2662Y-3.0571
X5.2662Y-3.7264
X5.2662Y-4.3957
X5.5418Y-3.0571
X5.5418Y-3.7264
X5.5418Y-4.3957
X5.9748Y-3.0571
X5.9748Y-3.7264
X5.9748Y-4.3957
X6.2504Y-3.0571
X6.2504Y-3.7264
X6.2504Y-4.3957
X6.2504Y-5.1535
X6.6835Y-3.0571
X6.6835Y-3.7264
X6.6835Y-4.3957
X6.6835Y-5.1535
X6.9591Y-3.0571
X6.9591Y-3.7264
X6.9591Y-4.3957
X6.9591Y-5.1535
X7.3922Y-3.0571
X7.3922Y-3.7264
X7.3922Y-4.3957
X7.3922Y-5.1535
T4
X4.341Y-3.0571
X4.341Y-3.7264
X4.341Y-4.3957
X5.0496Y-3.0571
X5.0496Y-3.7264
X5.0496Y-4.3957
X5.7583Y-3.0571
X5.7583Y-3.7264
X5.7583Y-4.3957
X6.467Y-3.0571
X6.467Y-3.7264
X6.467Y-4.3957
X6.467Y-5.1535
X7.1756Y-3.0571
X7.1756Y-3.7264
X7.1756Y-4.3957
X7.1756Y-5.1535
T0
M30
