%TF.GenerationSoftware,KiCad,Pcbnew,(5.1.12)-1*%
%TF.CreationDate,2021-11-30T03:04:48-08:00*%
%TF.ProjectId,orthodox_v2,6f727468-6f64-46f7-985f-76322e6b6963,rev?*%
%TF.SameCoordinates,Original*%
%TF.FileFunction,Soldermask,Top*%
%TF.FilePolarity,Negative*%
%FSLAX46Y46*%
G04 Gerber Fmt 4.6, Leading zero omitted, Abs format (unit mm)*
G04 Created by KiCad (PCBNEW (5.1.12)-1) date 2021-11-30 03:04:48*
%MOMM*%
%LPD*%
G01*
G04 APERTURE LIST*
%ADD10C,1.701800*%
%ADD11C,0.990600*%
%ADD12C,2.032000*%
%ADD13C,3.429000*%
%ADD14C,0.800000*%
%ADD15O,1.000000X1.400000*%
%ADD16C,2.000000*%
%ADD17C,1.524000*%
%ADD18O,1.600000X2.000000*%
G04 APERTURE END LIST*
D10*
%TO.C,MX6*%
X133761000Y-111649900D03*
X122761000Y-111649900D03*
D11*
X123041000Y-115849900D03*
D12*
X128261000Y-105749900D03*
X133261000Y-107849900D03*
D13*
X128261000Y-111649900D03*
D12*
X123261000Y-107849900D03*
D11*
X133481000Y-115849900D03*
%TD*%
D14*
%TO.C,U2*%
X146281000Y-128854900D03*
X146281000Y-135854900D03*
D15*
X143981000Y-134254900D03*
X143981000Y-131254900D03*
X143981000Y-127254900D03*
X148581000Y-126154900D03*
%TD*%
D11*
%TO.C,MX1*%
X115481000Y-81849900D03*
D12*
X105261000Y-73849900D03*
D13*
X110261000Y-77649900D03*
D12*
X115261000Y-73849900D03*
X110261000Y-71749900D03*
D11*
X105041000Y-81849900D03*
D10*
X104761000Y-77649900D03*
X115761000Y-77649900D03*
%TD*%
%TO.C,MX2*%
X115761000Y-94649900D03*
X104761000Y-94649900D03*
D11*
X105041000Y-98849900D03*
D12*
X110261000Y-88749900D03*
X115261000Y-90849900D03*
D13*
X110261000Y-94649900D03*
D12*
X105261000Y-90849900D03*
D11*
X115481000Y-98849900D03*
%TD*%
D10*
%TO.C,MX3*%
X115761000Y-111649900D03*
X104761000Y-111649900D03*
D11*
X105041000Y-115849900D03*
D12*
X110261000Y-105749900D03*
X115261000Y-107849900D03*
D13*
X110261000Y-111649900D03*
D12*
X105261000Y-107849900D03*
D11*
X115481000Y-115849900D03*
%TD*%
D10*
%TO.C,MX4*%
X133761000Y-77649900D03*
X122761000Y-77649900D03*
D11*
X123041000Y-81849900D03*
D12*
X128261000Y-71749900D03*
X133261000Y-73849900D03*
D13*
X128261000Y-77649900D03*
D12*
X123261000Y-73849900D03*
D11*
X133481000Y-81849900D03*
%TD*%
%TO.C,MX5*%
X133481000Y-98849900D03*
D12*
X123261000Y-90849900D03*
D13*
X128261000Y-94649900D03*
D12*
X133261000Y-90849900D03*
X128261000Y-88749900D03*
D11*
X123041000Y-98849900D03*
D10*
X122761000Y-94649900D03*
X133761000Y-94649900D03*
%TD*%
D11*
%TO.C,MX7*%
X151481000Y-81849900D03*
D12*
X141261000Y-73849900D03*
D13*
X146261000Y-77649900D03*
D12*
X151261000Y-73849900D03*
X146261000Y-71749900D03*
D11*
X141041000Y-81849900D03*
D10*
X140761000Y-77649900D03*
X151761000Y-77649900D03*
%TD*%
%TO.C,MX8*%
X151761000Y-94649900D03*
X140761000Y-94649900D03*
D11*
X141041000Y-98849900D03*
D12*
X146261000Y-88749900D03*
X151261000Y-90849900D03*
D13*
X146261000Y-94649900D03*
D12*
X141261000Y-90849900D03*
D11*
X151481000Y-98849900D03*
%TD*%
D10*
%TO.C,MX9*%
X151761000Y-111649900D03*
X140761000Y-111649900D03*
D11*
X141041000Y-115849900D03*
D12*
X146261000Y-105749900D03*
X151261000Y-107849900D03*
D13*
X146261000Y-111649900D03*
D12*
X141261000Y-107849900D03*
D11*
X151481000Y-115849900D03*
%TD*%
D10*
%TO.C,MX10*%
X169761000Y-77649900D03*
X158761000Y-77649900D03*
D11*
X159041000Y-81849900D03*
D12*
X164261000Y-71749900D03*
X169261000Y-73849900D03*
D13*
X164261000Y-77649900D03*
D12*
X159261000Y-73849900D03*
D11*
X169481000Y-81849900D03*
%TD*%
%TO.C,MX11*%
X169481000Y-98849900D03*
D12*
X159261000Y-90849900D03*
D13*
X164261000Y-94649900D03*
D12*
X169261000Y-90849900D03*
X164261000Y-88749900D03*
D11*
X159041000Y-98849900D03*
D10*
X158761000Y-94649900D03*
X169761000Y-94649900D03*
%TD*%
%TO.C,MX12*%
X169761000Y-111649900D03*
X158761000Y-111649900D03*
D11*
X159041000Y-115849900D03*
D12*
X164261000Y-105749900D03*
X169261000Y-107849900D03*
D13*
X164261000Y-111649900D03*
D12*
X159261000Y-107849900D03*
D11*
X169481000Y-115849900D03*
%TD*%
%TO.C,MX13*%
X169481000Y-135099900D03*
D12*
X159261000Y-127099900D03*
D13*
X164261000Y-130899900D03*
D12*
X169261000Y-127099900D03*
X164261000Y-124999900D03*
D11*
X159041000Y-135099900D03*
D10*
X158761000Y-130899900D03*
X169761000Y-130899900D03*
%TD*%
D11*
%TO.C,MX14*%
X187481000Y-81849900D03*
D12*
X177261000Y-73849900D03*
D13*
X182261000Y-77649900D03*
D12*
X187261000Y-73849900D03*
X182261000Y-71749900D03*
D11*
X177041000Y-81849900D03*
D10*
X176761000Y-77649900D03*
X187761000Y-77649900D03*
%TD*%
%TO.C,MX15*%
X187761000Y-94649900D03*
X176761000Y-94649900D03*
D11*
X177041000Y-98849900D03*
D12*
X182261000Y-88749900D03*
X187261000Y-90849900D03*
D13*
X182261000Y-94649900D03*
D12*
X177261000Y-90849900D03*
D11*
X187481000Y-98849900D03*
%TD*%
%TO.C,MX16*%
X187481000Y-115849900D03*
D12*
X177261000Y-107849900D03*
D13*
X182261000Y-111649900D03*
D12*
X187261000Y-107849900D03*
X182261000Y-105749900D03*
D11*
X177041000Y-115849900D03*
D10*
X176761000Y-111649900D03*
X187761000Y-111649900D03*
%TD*%
%TO.C,MX17*%
X187761000Y-130899900D03*
X176761000Y-130899900D03*
D11*
X177041000Y-135099900D03*
D12*
X182261000Y-124999900D03*
X187261000Y-127099900D03*
D13*
X182261000Y-130899900D03*
D12*
X177261000Y-127099900D03*
D11*
X187481000Y-135099900D03*
%TD*%
D16*
%TO.C,SW1*%
X143011000Y-123350000D03*
X149511000Y-123350000D03*
%TD*%
D17*
%TO.C,U1*%
X106353000Y-136799900D03*
X108893000Y-136799900D03*
X111433000Y-136799900D03*
X113973000Y-136799900D03*
X116513000Y-136799900D03*
X119053000Y-136799900D03*
X121593000Y-136799900D03*
X124133000Y-136799900D03*
X126673000Y-136799900D03*
X129213000Y-136799900D03*
X131753000Y-136799900D03*
X134293000Y-136799900D03*
X134293000Y-121559900D03*
X131753000Y-121559900D03*
X129213000Y-121559900D03*
X126673000Y-121559900D03*
X124133000Y-121559900D03*
X121593000Y-121559900D03*
X119053000Y-121559900D03*
X116513000Y-121559900D03*
X113973000Y-121559900D03*
X111433000Y-121559900D03*
X108893000Y-121559900D03*
X106353000Y-121559900D03*
X105083000Y-138106300D03*
X107623000Y-138106300D03*
X110163000Y-138106300D03*
X112703000Y-138106300D03*
X115243000Y-138106300D03*
X117783000Y-138106300D03*
X120323000Y-138106300D03*
X122863000Y-138106300D03*
X125403000Y-138106300D03*
X127943000Y-138106300D03*
X130483000Y-138106300D03*
X133023000Y-138106300D03*
X133023000Y-122886300D03*
X130483000Y-122886300D03*
X127943000Y-122886300D03*
X125403000Y-122886300D03*
X122863000Y-122886300D03*
X120323000Y-122886300D03*
X117783000Y-122886300D03*
X115243000Y-122886300D03*
X112703000Y-122886300D03*
X110163000Y-122886300D03*
X107623000Y-122886300D03*
X105083000Y-122886300D03*
%TD*%
D18*
%TO.C,U3*%
X143986000Y-126154900D03*
X148586000Y-127254900D03*
X148586000Y-134254900D03*
D14*
X146286000Y-128854900D03*
X146286000Y-135854900D03*
D18*
X148586000Y-131254900D03*
%TD*%
M02*
