%TF.GenerationSoftware,KiCad,Pcbnew,(5.1.12)-1*%
%TF.CreationDate,2021-12-05T03:49:59-08:00*%
%TF.ProjectId,orthodox_v3,6f727468-6f64-46f7-985f-76332e6b6963,rev?*%
%TF.SameCoordinates,Original*%
%TF.FileFunction,Legend,Top*%
%TF.FilePolarity,Positive*%
%FSLAX46Y46*%
G04 Gerber Fmt 4.6, Leading zero omitted, Abs format (unit mm)*
G04 Created by KiCad (PCBNEW (5.1.12)-1) date 2021-12-05 03:49:59*
%MOMM*%
%LPD*%
G01*
G04 APERTURE LIST*
%ADD10C,0.100000*%
%ADD11C,0.127000*%
%ADD12C,0.066040*%
%ADD13C,0.150000*%
%ADD14C,0.120000*%
%ADD15C,0.203200*%
%ADD16C,0.200000*%
%ADD17C,0.101600*%
%ADD18C,0.076200*%
G04 APERTURE END LIST*
D10*
%TO.C,U1*%
X31593000Y-94489000D02*
G75*
G03*
X31593000Y-94489000I-254000J0D01*
G01*
D11*
X34430180Y-89205800D02*
X27076880Y-89205800D01*
X34430180Y-80206580D02*
X34430180Y-89205800D01*
X27076880Y-80206580D02*
X34430180Y-80206580D01*
X27076880Y-89200720D02*
X27076880Y-80206580D01*
X29172380Y-93600000D02*
X49500000Y-93600000D01*
X28501820Y-92929440D02*
X29172380Y-93600000D01*
X28501820Y-75802220D02*
X28501820Y-92929440D01*
X49500000Y-75802220D02*
X28501820Y-75802220D01*
X49500000Y-93600000D02*
X49500000Y-75802220D01*
D12*
X31085000Y-81281000D02*
X28418000Y-81281000D01*
X28418000Y-81281000D02*
X28418000Y-79503000D01*
X31085000Y-79503000D02*
X28418000Y-79503000D01*
X31085000Y-81281000D02*
X31085000Y-79503000D01*
X35151540Y-81281000D02*
X32482000Y-81281000D01*
X32482000Y-81281000D02*
X32482000Y-79503000D01*
X35151540Y-79503000D02*
X32482000Y-79503000D01*
X35151540Y-81281000D02*
X35151540Y-79503000D01*
X35151540Y-89917000D02*
X32482000Y-89917000D01*
X32482000Y-89917000D02*
X32482000Y-88139000D01*
X35151540Y-88139000D02*
X32482000Y-88139000D01*
X35151540Y-89917000D02*
X35151540Y-88139000D01*
X31085000Y-89917000D02*
X28418000Y-89917000D01*
X28418000Y-89917000D02*
X28418000Y-88139000D01*
X31085000Y-88139000D02*
X28418000Y-88139000D01*
X31085000Y-89917000D02*
X31085000Y-88139000D01*
X48865000Y-87250000D02*
X46325000Y-87250000D01*
X46325000Y-87250000D02*
X46325000Y-81535000D01*
X48865000Y-81535000D02*
X46325000Y-81535000D01*
X48865000Y-87250000D02*
X48865000Y-81535000D01*
X31720000Y-87250000D02*
X29180000Y-87250000D01*
X29180000Y-87250000D02*
X29180000Y-82170000D01*
X31720000Y-82170000D02*
X29180000Y-82170000D01*
X31720000Y-87250000D02*
X31720000Y-82170000D01*
D13*
%TO.C,MX6*%
X61000000Y-75000000D02*
X60000000Y-75000000D01*
X61000000Y-74000000D02*
X61000000Y-75000000D01*
X61000000Y-61000000D02*
X61000000Y-62000000D01*
X60000000Y-61000000D02*
X61000000Y-61000000D01*
X47000000Y-61000000D02*
X48000000Y-61000000D01*
X47000000Y-62000000D02*
X47000000Y-61000000D01*
X47000000Y-75000000D02*
X47000000Y-74000000D01*
X48000000Y-75000000D02*
X47000000Y-75000000D01*
%TO.C,MX1*%
X30000000Y-41000000D02*
X29000000Y-41000000D01*
X29000000Y-41000000D02*
X29000000Y-40000000D01*
X29000000Y-28000000D02*
X29000000Y-27000000D01*
X29000000Y-27000000D02*
X30000000Y-27000000D01*
X42000000Y-27000000D02*
X43000000Y-27000000D01*
X43000000Y-27000000D02*
X43000000Y-28000000D01*
X43000000Y-40000000D02*
X43000000Y-41000000D01*
X43000000Y-41000000D02*
X42000000Y-41000000D01*
%TO.C,MX3*%
X43000000Y-75000000D02*
X42000000Y-75000000D01*
X43000000Y-74000000D02*
X43000000Y-75000000D01*
X43000000Y-61000000D02*
X43000000Y-62000000D01*
X42000000Y-61000000D02*
X43000000Y-61000000D01*
X29000000Y-61000000D02*
X30000000Y-61000000D01*
X29000000Y-62000000D02*
X29000000Y-61000000D01*
X29000000Y-75000000D02*
X29000000Y-74000000D01*
X30000000Y-75000000D02*
X29000000Y-75000000D01*
%TO.C,MX4*%
X61000000Y-41000000D02*
X60000000Y-41000000D01*
X61000000Y-40000000D02*
X61000000Y-41000000D01*
X61000000Y-27000000D02*
X61000000Y-28000000D01*
X60000000Y-27000000D02*
X61000000Y-27000000D01*
X47000000Y-27000000D02*
X48000000Y-27000000D01*
X47000000Y-28000000D02*
X47000000Y-27000000D01*
X47000000Y-41000000D02*
X47000000Y-40000000D01*
X48000000Y-41000000D02*
X47000000Y-41000000D01*
%TO.C,MX5*%
X48000000Y-58000000D02*
X47000000Y-58000000D01*
X47000000Y-58000000D02*
X47000000Y-57000000D01*
X47000000Y-45000000D02*
X47000000Y-44000000D01*
X47000000Y-44000000D02*
X48000000Y-44000000D01*
X60000000Y-44000000D02*
X61000000Y-44000000D01*
X61000000Y-44000000D02*
X61000000Y-45000000D01*
X61000000Y-57000000D02*
X61000000Y-58000000D01*
X61000000Y-58000000D02*
X60000000Y-58000000D01*
%TO.C,MX7*%
X79000000Y-41000000D02*
X78000000Y-41000000D01*
X79000000Y-40000000D02*
X79000000Y-41000000D01*
X79000000Y-27000000D02*
X79000000Y-28000000D01*
X78000000Y-27000000D02*
X79000000Y-27000000D01*
X65000000Y-27000000D02*
X66000000Y-27000000D01*
X65000000Y-28000000D02*
X65000000Y-27000000D01*
X65000000Y-41000000D02*
X65000000Y-40000000D01*
X66000000Y-41000000D02*
X65000000Y-41000000D01*
%TO.C,MX8*%
X79000000Y-58000000D02*
X78000000Y-58000000D01*
X79000000Y-57000000D02*
X79000000Y-58000000D01*
X79000000Y-44000000D02*
X79000000Y-45000000D01*
X78000000Y-44000000D02*
X79000000Y-44000000D01*
X65000000Y-44000000D02*
X66000000Y-44000000D01*
X65000000Y-45000000D02*
X65000000Y-44000000D01*
X65000000Y-58000000D02*
X65000000Y-57000000D01*
X66000000Y-58000000D02*
X65000000Y-58000000D01*
%TO.C,MX9*%
X79000000Y-75000000D02*
X78000000Y-75000000D01*
X79000000Y-74000000D02*
X79000000Y-75000000D01*
X79000000Y-61000000D02*
X79000000Y-62000000D01*
X78000000Y-61000000D02*
X79000000Y-61000000D01*
X65000000Y-61000000D02*
X66000000Y-61000000D01*
X65000000Y-62000000D02*
X65000000Y-61000000D01*
X65000000Y-75000000D02*
X65000000Y-74000000D01*
X66000000Y-75000000D02*
X65000000Y-75000000D01*
%TO.C,MX10*%
X97000000Y-41000000D02*
X96000000Y-41000000D01*
X97000000Y-40000000D02*
X97000000Y-41000000D01*
X97000000Y-27000000D02*
X97000000Y-28000000D01*
X96000000Y-27000000D02*
X97000000Y-27000000D01*
X83000000Y-27000000D02*
X84000000Y-27000000D01*
X83000000Y-28000000D02*
X83000000Y-27000000D01*
X83000000Y-41000000D02*
X83000000Y-40000000D01*
X84000000Y-41000000D02*
X83000000Y-41000000D01*
%TO.C,MX11*%
X84000000Y-58000000D02*
X83000000Y-58000000D01*
X83000000Y-58000000D02*
X83000000Y-57000000D01*
X83000000Y-45000000D02*
X83000000Y-44000000D01*
X83000000Y-44000000D02*
X84000000Y-44000000D01*
X96000000Y-44000000D02*
X97000000Y-44000000D01*
X97000000Y-44000000D02*
X97000000Y-45000000D01*
X97000000Y-57000000D02*
X97000000Y-58000000D01*
X97000000Y-58000000D02*
X96000000Y-58000000D01*
%TO.C,MX12*%
X97000000Y-75000000D02*
X96000000Y-75000000D01*
X97000000Y-74000000D02*
X97000000Y-75000000D01*
X97000000Y-61000000D02*
X97000000Y-62000000D01*
X96000000Y-61000000D02*
X97000000Y-61000000D01*
X83000000Y-61000000D02*
X84000000Y-61000000D01*
X83000000Y-62000000D02*
X83000000Y-61000000D01*
X83000000Y-75000000D02*
X83000000Y-74000000D01*
X84000000Y-75000000D02*
X83000000Y-75000000D01*
%TO.C,MX13*%
X84000000Y-93000000D02*
X83000000Y-93000000D01*
X83000000Y-93000000D02*
X83000000Y-92000000D01*
X83000000Y-80000000D02*
X83000000Y-79000000D01*
X83000000Y-79000000D02*
X84000000Y-79000000D01*
X96000000Y-79000000D02*
X97000000Y-79000000D01*
X97000000Y-79000000D02*
X97000000Y-80000000D01*
X97000000Y-92000000D02*
X97000000Y-93000000D01*
X97000000Y-93000000D02*
X96000000Y-93000000D01*
%TO.C,MX14*%
X102000000Y-41000000D02*
X101000000Y-41000000D01*
X101000000Y-41000000D02*
X101000000Y-40000000D01*
X101000000Y-28000000D02*
X101000000Y-27000000D01*
X101000000Y-27000000D02*
X102000000Y-27000000D01*
X114000000Y-27000000D02*
X115000000Y-27000000D01*
X115000000Y-27000000D02*
X115000000Y-28000000D01*
X115000000Y-40000000D02*
X115000000Y-41000000D01*
X115000000Y-41000000D02*
X114000000Y-41000000D01*
%TO.C,MX15*%
X115000000Y-58000000D02*
X114000000Y-58000000D01*
X115000000Y-57000000D02*
X115000000Y-58000000D01*
X115000000Y-44000000D02*
X115000000Y-45000000D01*
X114000000Y-44000000D02*
X115000000Y-44000000D01*
X101000000Y-44000000D02*
X102000000Y-44000000D01*
X101000000Y-45000000D02*
X101000000Y-44000000D01*
X101000000Y-58000000D02*
X101000000Y-57000000D01*
X102000000Y-58000000D02*
X101000000Y-58000000D01*
%TO.C,MX16*%
X102000000Y-75000000D02*
X101000000Y-75000000D01*
X101000000Y-75000000D02*
X101000000Y-74000000D01*
X101000000Y-62000000D02*
X101000000Y-61000000D01*
X101000000Y-61000000D02*
X102000000Y-61000000D01*
X114000000Y-61000000D02*
X115000000Y-61000000D01*
X115000000Y-61000000D02*
X115000000Y-62000000D01*
X115000000Y-74000000D02*
X115000000Y-75000000D01*
X115000000Y-75000000D02*
X114000000Y-75000000D01*
%TO.C,MX17*%
X115000000Y-93000000D02*
X114000000Y-93000000D01*
X115000000Y-92000000D02*
X115000000Y-93000000D01*
X115000000Y-79000000D02*
X115000000Y-80000000D01*
X114000000Y-79000000D02*
X115000000Y-79000000D01*
X101000000Y-79000000D02*
X102000000Y-79000000D01*
X101000000Y-80000000D02*
X101000000Y-79000000D01*
X101000000Y-93000000D02*
X101000000Y-92000000D01*
X102000000Y-93000000D02*
X101000000Y-93000000D01*
%TO.C,MX2*%
X30000000Y-58000000D02*
X29000000Y-58000000D01*
X29000000Y-58000000D02*
X29000000Y-57000000D01*
X29000000Y-45000000D02*
X29000000Y-44000000D01*
X29000000Y-44000000D02*
X30000000Y-44000000D01*
X42000000Y-44000000D02*
X43000000Y-44000000D01*
X43000000Y-44000000D02*
X43000000Y-45000000D01*
X43000000Y-57000000D02*
X43000000Y-58000000D01*
X43000000Y-58000000D02*
X42000000Y-58000000D01*
D14*
%TO.C,BT1*%
X75325244Y-91788169D02*
G75*
G02*
X72000000Y-92750000I-2015244J738169D01*
G01*
X59996646Y-92766530D02*
G75*
G02*
X56660000Y-91780000I-1306646J1716530D01*
G01*
X74700000Y-76660000D02*
X71200000Y-76660000D01*
X76780000Y-87200000D02*
X76780000Y-87830000D01*
X76780000Y-78740000D02*
X76780000Y-81200000D01*
X55220000Y-87200000D02*
X55220000Y-87830000D01*
X55220000Y-78740000D02*
X55220000Y-81200000D01*
X76780000Y-87830000D02*
X75340000Y-91780000D01*
X74700000Y-76660000D02*
X76780000Y-78740000D01*
X60800000Y-76660000D02*
X57300000Y-76660000D01*
X57300000Y-76660000D02*
X55220000Y-78740000D01*
X55220000Y-87830000D02*
X56660000Y-91780000D01*
D13*
%TO.C,D1*%
X46100000Y-33100000D02*
X43900000Y-33100000D01*
X43900000Y-32900000D02*
X46100000Y-32900000D01*
X44000000Y-32700000D02*
X43900000Y-32700000D01*
X43900000Y-32700000D02*
X44000000Y-32700000D01*
X46100000Y-32700000D02*
X44000000Y-32700000D01*
D15*
X43857000Y-35524000D02*
X43857000Y-32476000D01*
X43857000Y-32476000D02*
X46143000Y-32476000D01*
X46143000Y-32476000D02*
X46143000Y-35524000D01*
X46143000Y-35524000D02*
X43857000Y-35524000D01*
D13*
%TO.C,D2*%
X46100000Y-50100000D02*
X43900000Y-50100000D01*
X43900000Y-49900000D02*
X46100000Y-49900000D01*
X44000000Y-49700000D02*
X43900000Y-49700000D01*
X43900000Y-49700000D02*
X44000000Y-49700000D01*
X46100000Y-49700000D02*
X44000000Y-49700000D01*
D15*
X43857000Y-52524000D02*
X43857000Y-49476000D01*
X43857000Y-49476000D02*
X46143000Y-49476000D01*
X46143000Y-49476000D02*
X46143000Y-52524000D01*
X46143000Y-52524000D02*
X43857000Y-52524000D01*
D13*
%TO.C,D3*%
X46100000Y-67100000D02*
X43900000Y-67100000D01*
X43900000Y-66900000D02*
X46100000Y-66900000D01*
X44000000Y-66700000D02*
X43900000Y-66700000D01*
X43900000Y-66700000D02*
X44000000Y-66700000D01*
X46100000Y-66700000D02*
X44000000Y-66700000D01*
D15*
X43857000Y-69524000D02*
X43857000Y-66476000D01*
X43857000Y-66476000D02*
X46143000Y-66476000D01*
X46143000Y-66476000D02*
X46143000Y-69524000D01*
X46143000Y-69524000D02*
X43857000Y-69524000D01*
D13*
%TO.C,D4*%
X64100000Y-33100000D02*
X61900000Y-33100000D01*
X61900000Y-32900000D02*
X64100000Y-32900000D01*
X62000000Y-32700000D02*
X61900000Y-32700000D01*
X61900000Y-32700000D02*
X62000000Y-32700000D01*
X64100000Y-32700000D02*
X62000000Y-32700000D01*
D15*
X61857000Y-35524000D02*
X61857000Y-32476000D01*
X61857000Y-32476000D02*
X64143000Y-32476000D01*
X64143000Y-32476000D02*
X64143000Y-35524000D01*
X64143000Y-35524000D02*
X61857000Y-35524000D01*
D13*
%TO.C,D5*%
X64100000Y-50100000D02*
X61900000Y-50100000D01*
X61900000Y-49900000D02*
X64100000Y-49900000D01*
X62000000Y-49700000D02*
X61900000Y-49700000D01*
X61900000Y-49700000D02*
X62000000Y-49700000D01*
X64100000Y-49700000D02*
X62000000Y-49700000D01*
D15*
X61857000Y-52524000D02*
X61857000Y-49476000D01*
X61857000Y-49476000D02*
X64143000Y-49476000D01*
X64143000Y-49476000D02*
X64143000Y-52524000D01*
X64143000Y-52524000D02*
X61857000Y-52524000D01*
%TO.C,D6*%
X64143000Y-69524000D02*
X61857000Y-69524000D01*
X64143000Y-66476000D02*
X64143000Y-69524000D01*
X61857000Y-66476000D02*
X64143000Y-66476000D01*
X61857000Y-69524000D02*
X61857000Y-66476000D01*
D13*
X64100000Y-66700000D02*
X62000000Y-66700000D01*
X61900000Y-66700000D02*
X62000000Y-66700000D01*
X62000000Y-66700000D02*
X61900000Y-66700000D01*
X61900000Y-66900000D02*
X64100000Y-66900000D01*
X64100000Y-67100000D02*
X61900000Y-67100000D01*
D15*
%TO.C,D7*%
X82143000Y-35524000D02*
X79857000Y-35524000D01*
X82143000Y-32476000D02*
X82143000Y-35524000D01*
X79857000Y-32476000D02*
X82143000Y-32476000D01*
X79857000Y-35524000D02*
X79857000Y-32476000D01*
D13*
X82100000Y-32700000D02*
X80000000Y-32700000D01*
X79900000Y-32700000D02*
X80000000Y-32700000D01*
X80000000Y-32700000D02*
X79900000Y-32700000D01*
X79900000Y-32900000D02*
X82100000Y-32900000D01*
X82100000Y-33100000D02*
X79900000Y-33100000D01*
%TO.C,D8*%
X82100000Y-50100000D02*
X79900000Y-50100000D01*
X79900000Y-49900000D02*
X82100000Y-49900000D01*
X80000000Y-49700000D02*
X79900000Y-49700000D01*
X79900000Y-49700000D02*
X80000000Y-49700000D01*
X82100000Y-49700000D02*
X80000000Y-49700000D01*
D15*
X79857000Y-52524000D02*
X79857000Y-49476000D01*
X79857000Y-49476000D02*
X82143000Y-49476000D01*
X82143000Y-49476000D02*
X82143000Y-52524000D01*
X82143000Y-52524000D02*
X79857000Y-52524000D01*
D13*
%TO.C,D9*%
X82100000Y-67100000D02*
X79900000Y-67100000D01*
X79900000Y-66900000D02*
X82100000Y-66900000D01*
X80000000Y-66700000D02*
X79900000Y-66700000D01*
X79900000Y-66700000D02*
X80000000Y-66700000D01*
X82100000Y-66700000D02*
X80000000Y-66700000D01*
D15*
X79857000Y-69524000D02*
X79857000Y-66476000D01*
X79857000Y-66476000D02*
X82143000Y-66476000D01*
X82143000Y-66476000D02*
X82143000Y-69524000D01*
X82143000Y-69524000D02*
X79857000Y-69524000D01*
D13*
%TO.C,D10*%
X100100000Y-33200000D02*
X97900000Y-33200000D01*
X97900000Y-33000000D02*
X100100000Y-33000000D01*
X98000000Y-32800000D02*
X97900000Y-32800000D01*
X97900000Y-32800000D02*
X98000000Y-32800000D01*
X100100000Y-32800000D02*
X98000000Y-32800000D01*
D15*
X97857000Y-35624000D02*
X97857000Y-32576000D01*
X97857000Y-32576000D02*
X100143000Y-32576000D01*
X100143000Y-32576000D02*
X100143000Y-35624000D01*
X100143000Y-35624000D02*
X97857000Y-35624000D01*
%TO.C,D11*%
X100143000Y-52524000D02*
X97857000Y-52524000D01*
X100143000Y-49476000D02*
X100143000Y-52524000D01*
X97857000Y-49476000D02*
X100143000Y-49476000D01*
X97857000Y-52524000D02*
X97857000Y-49476000D01*
D13*
X100100000Y-49700000D02*
X98000000Y-49700000D01*
X97900000Y-49700000D02*
X98000000Y-49700000D01*
X98000000Y-49700000D02*
X97900000Y-49700000D01*
X97900000Y-49900000D02*
X100100000Y-49900000D01*
X100100000Y-50100000D02*
X97900000Y-50100000D01*
D15*
%TO.C,D12*%
X100143000Y-69524000D02*
X97857000Y-69524000D01*
X100143000Y-66476000D02*
X100143000Y-69524000D01*
X97857000Y-66476000D02*
X100143000Y-66476000D01*
X97857000Y-69524000D02*
X97857000Y-66476000D01*
D13*
X100100000Y-66700000D02*
X98000000Y-66700000D01*
X97900000Y-66700000D02*
X98000000Y-66700000D01*
X98000000Y-66700000D02*
X97900000Y-66700000D01*
X97900000Y-66900000D02*
X100100000Y-66900000D01*
X100100000Y-67100000D02*
X97900000Y-67100000D01*
D15*
%TO.C,D13*%
X91524000Y-75857000D02*
X91524000Y-78143000D01*
X88476000Y-75857000D02*
X91524000Y-75857000D01*
X88476000Y-78143000D02*
X88476000Y-75857000D01*
X91524000Y-78143000D02*
X88476000Y-78143000D01*
D13*
X88700000Y-75900000D02*
X88700000Y-78000000D01*
X88700000Y-78100000D02*
X88700000Y-78000000D01*
X88700000Y-78000000D02*
X88700000Y-78100000D01*
X88900000Y-78100000D02*
X88900000Y-75900000D01*
X89100000Y-75900000D02*
X89100000Y-78100000D01*
D15*
%TO.C,D14*%
X106476000Y-43643000D02*
X106476000Y-41357000D01*
X109524000Y-43643000D02*
X106476000Y-43643000D01*
X109524000Y-41357000D02*
X109524000Y-43643000D01*
X106476000Y-41357000D02*
X109524000Y-41357000D01*
D13*
X109300000Y-43600000D02*
X109300000Y-41500000D01*
X109300000Y-41400000D02*
X109300000Y-41500000D01*
X109300000Y-41500000D02*
X109300000Y-41400000D01*
X109100000Y-41400000D02*
X109100000Y-43600000D01*
X108900000Y-43600000D02*
X108900000Y-41400000D01*
%TO.C,D15*%
X108861000Y-60600000D02*
X108861000Y-58400000D01*
X109061000Y-58400000D02*
X109061000Y-60600000D01*
X109261000Y-58500000D02*
X109261000Y-58400000D01*
X109261000Y-58400000D02*
X109261000Y-58500000D01*
X109261000Y-60600000D02*
X109261000Y-58500000D01*
D15*
X106437000Y-58357000D02*
X109485000Y-58357000D01*
X109485000Y-58357000D02*
X109485000Y-60643000D01*
X109485000Y-60643000D02*
X106437000Y-60643000D01*
X106437000Y-60643000D02*
X106437000Y-58357000D01*
%TO.C,D16*%
X106476000Y-78143000D02*
X106476000Y-75857000D01*
X109524000Y-78143000D02*
X106476000Y-78143000D01*
X109524000Y-75857000D02*
X109524000Y-78143000D01*
X106476000Y-75857000D02*
X109524000Y-75857000D01*
D13*
X109300000Y-78100000D02*
X109300000Y-76000000D01*
X109300000Y-75900000D02*
X109300000Y-76000000D01*
X109300000Y-76000000D02*
X109300000Y-75900000D01*
X109100000Y-75900000D02*
X109100000Y-78100000D01*
X108900000Y-78100000D02*
X108900000Y-75900000D01*
%TO.C,D17*%
X97900000Y-79290000D02*
X100100000Y-79290000D01*
X100100000Y-79490000D02*
X97900000Y-79490000D01*
X100000000Y-79690000D02*
X100100000Y-79690000D01*
X100100000Y-79690000D02*
X100000000Y-79690000D01*
X97900000Y-79690000D02*
X100000000Y-79690000D01*
D15*
X100143000Y-76866000D02*
X100143000Y-79914000D01*
X100143000Y-79914000D02*
X97857000Y-79914000D01*
X97857000Y-79914000D02*
X97857000Y-76866000D01*
X97857000Y-76866000D02*
X100143000Y-76866000D01*
%TO.C,BAT+*%
D16*
X38319047Y-90671428D02*
X39080952Y-90671428D01*
X38700000Y-91052380D02*
X38700000Y-90290476D01*
%TO.C,BAT-*%
X36419047Y-90671428D02*
X37180952Y-90671428D01*
%TO.C,U1*%
D17*
X27232666Y-84942833D02*
X27952333Y-84942833D01*
X28037000Y-84900500D01*
X28079333Y-84858166D01*
X28121666Y-84773500D01*
X28121666Y-84604166D01*
X28079333Y-84519500D01*
X28037000Y-84477166D01*
X27952333Y-84434833D01*
X27232666Y-84434833D01*
X28121666Y-83545833D02*
X28121666Y-84053833D01*
X28121666Y-83799833D02*
X27232666Y-83799833D01*
X27359666Y-83884500D01*
X27444333Y-83969166D01*
X27486666Y-84053833D01*
D18*
X38951742Y-87932171D02*
X38980771Y-87845085D01*
X38980771Y-87699942D01*
X38951742Y-87641885D01*
X38922714Y-87612857D01*
X38864657Y-87583828D01*
X38806600Y-87583828D01*
X38748542Y-87612857D01*
X38719514Y-87641885D01*
X38690485Y-87699942D01*
X38661457Y-87816057D01*
X38632428Y-87874114D01*
X38603400Y-87903142D01*
X38545342Y-87932171D01*
X38487285Y-87932171D01*
X38429228Y-87903142D01*
X38400200Y-87874114D01*
X38371171Y-87816057D01*
X38371171Y-87670914D01*
X38400200Y-87583828D01*
X38951742Y-87090342D02*
X38980771Y-87148400D01*
X38980771Y-87264514D01*
X38951742Y-87322571D01*
X38893685Y-87351600D01*
X38661457Y-87351600D01*
X38603400Y-87322571D01*
X38574371Y-87264514D01*
X38574371Y-87148400D01*
X38603400Y-87090342D01*
X38661457Y-87061314D01*
X38719514Y-87061314D01*
X38777571Y-87351600D01*
X38951742Y-86567828D02*
X38980771Y-86625885D01*
X38980771Y-86742000D01*
X38951742Y-86800057D01*
X38893685Y-86829085D01*
X38661457Y-86829085D01*
X38603400Y-86800057D01*
X38574371Y-86742000D01*
X38574371Y-86625885D01*
X38603400Y-86567828D01*
X38661457Y-86538800D01*
X38719514Y-86538800D01*
X38777571Y-86829085D01*
X38951742Y-86045314D02*
X38980771Y-86103371D01*
X38980771Y-86219485D01*
X38951742Y-86277542D01*
X38893685Y-86306571D01*
X38661457Y-86306571D01*
X38603400Y-86277542D01*
X38574371Y-86219485D01*
X38574371Y-86103371D01*
X38603400Y-86045314D01*
X38661457Y-86016285D01*
X38719514Y-86016285D01*
X38777571Y-86306571D01*
X38980771Y-85493771D02*
X38371171Y-85493771D01*
X38951742Y-85493771D02*
X38980771Y-85551828D01*
X38980771Y-85667942D01*
X38951742Y-85726000D01*
X38922714Y-85755028D01*
X38864657Y-85784057D01*
X38690485Y-85784057D01*
X38632428Y-85755028D01*
X38603400Y-85726000D01*
X38574371Y-85667942D01*
X38574371Y-85551828D01*
X38603400Y-85493771D01*
X38574371Y-84942228D02*
X38980771Y-84942228D01*
X38574371Y-85203485D02*
X38893685Y-85203485D01*
X38951742Y-85174457D01*
X38980771Y-85116400D01*
X38980771Y-85029314D01*
X38951742Y-84971257D01*
X38922714Y-84942228D01*
X38980771Y-84651942D02*
X38574371Y-84651942D01*
X38371171Y-84651942D02*
X38400200Y-84680971D01*
X38429228Y-84651942D01*
X38400200Y-84622914D01*
X38371171Y-84651942D01*
X38429228Y-84651942D01*
X38574371Y-84361657D02*
X38980771Y-84361657D01*
X38632428Y-84361657D02*
X38603400Y-84332628D01*
X38574371Y-84274571D01*
X38574371Y-84187485D01*
X38603400Y-84129428D01*
X38661457Y-84100400D01*
X38980771Y-84100400D01*
X38980771Y-83723028D02*
X38951742Y-83781085D01*
X38922714Y-83810114D01*
X38864657Y-83839142D01*
X38690485Y-83839142D01*
X38632428Y-83810114D01*
X38603400Y-83781085D01*
X38574371Y-83723028D01*
X38574371Y-83635942D01*
X38603400Y-83577885D01*
X38632428Y-83548857D01*
X38690485Y-83519828D01*
X38864657Y-83519828D01*
X38922714Y-83548857D01*
X38951742Y-83577885D01*
X38980771Y-83635942D01*
X38980771Y-83723028D01*
X38371171Y-83316628D02*
X38980771Y-82910228D01*
X38371171Y-82910228D02*
X38980771Y-83316628D01*
X38980771Y-82678000D02*
X38371171Y-82678000D01*
X38806600Y-82416742D02*
X38806600Y-82126457D01*
X38980771Y-82474800D02*
X38371171Y-82271600D01*
X38980771Y-82068400D01*
X38371171Y-81749085D02*
X38371171Y-81632971D01*
X38400200Y-81574914D01*
X38458257Y-81516857D01*
X38574371Y-81487828D01*
X38777571Y-81487828D01*
X38893685Y-81516857D01*
X38951742Y-81574914D01*
X38980771Y-81632971D01*
X38980771Y-81749085D01*
X38951742Y-81807142D01*
X38893685Y-81865200D01*
X38777571Y-81894228D01*
X38574371Y-81894228D01*
X38458257Y-81865200D01*
X38400200Y-81807142D01*
X38371171Y-81749085D01*
%TO.C,MX6*%
D13*
X52714285Y-73907380D02*
X52714285Y-72907380D01*
X53047619Y-73621666D01*
X53380952Y-72907380D01*
X53380952Y-73907380D01*
X53761904Y-72907380D02*
X54428571Y-73907380D01*
X54428571Y-72907380D02*
X53761904Y-73907380D01*
X55238095Y-72907380D02*
X55047619Y-72907380D01*
X54952380Y-72955000D01*
X54904761Y-73002619D01*
X54809523Y-73145476D01*
X54761904Y-73335952D01*
X54761904Y-73716904D01*
X54809523Y-73812142D01*
X54857142Y-73859761D01*
X54952380Y-73907380D01*
X55142857Y-73907380D01*
X55238095Y-73859761D01*
X55285714Y-73812142D01*
X55333333Y-73716904D01*
X55333333Y-73478809D01*
X55285714Y-73383571D01*
X55238095Y-73335952D01*
X55142857Y-73288333D01*
X54952380Y-73288333D01*
X54857142Y-73335952D01*
X54809523Y-73383571D01*
X54761904Y-73478809D01*
%TO.C,MX1*%
X34714285Y-39907380D02*
X34714285Y-38907380D01*
X35047619Y-39621666D01*
X35380952Y-38907380D01*
X35380952Y-39907380D01*
X35761904Y-38907380D02*
X36428571Y-39907380D01*
X36428571Y-38907380D02*
X35761904Y-39907380D01*
X37333333Y-39907380D02*
X36761904Y-39907380D01*
X37047619Y-39907380D02*
X37047619Y-38907380D01*
X36952380Y-39050238D01*
X36857142Y-39145476D01*
X36761904Y-39193095D01*
%TO.C,MX3*%
X34714285Y-73907380D02*
X34714285Y-72907380D01*
X35047619Y-73621666D01*
X35380952Y-72907380D01*
X35380952Y-73907380D01*
X35761904Y-72907380D02*
X36428571Y-73907380D01*
X36428571Y-72907380D02*
X35761904Y-73907380D01*
X36714285Y-72907380D02*
X37333333Y-72907380D01*
X37000000Y-73288333D01*
X37142857Y-73288333D01*
X37238095Y-73335952D01*
X37285714Y-73383571D01*
X37333333Y-73478809D01*
X37333333Y-73716904D01*
X37285714Y-73812142D01*
X37238095Y-73859761D01*
X37142857Y-73907380D01*
X36857142Y-73907380D01*
X36761904Y-73859761D01*
X36714285Y-73812142D01*
%TO.C,MX4*%
X52714285Y-39907380D02*
X52714285Y-38907380D01*
X53047619Y-39621666D01*
X53380952Y-38907380D01*
X53380952Y-39907380D01*
X53761904Y-38907380D02*
X54428571Y-39907380D01*
X54428571Y-38907380D02*
X53761904Y-39907380D01*
X55238095Y-39240714D02*
X55238095Y-39907380D01*
X55000000Y-38859761D02*
X54761904Y-39574047D01*
X55380952Y-39574047D01*
%TO.C,MX5*%
X52714285Y-56907380D02*
X52714285Y-55907380D01*
X53047619Y-56621666D01*
X53380952Y-55907380D01*
X53380952Y-56907380D01*
X53761904Y-55907380D02*
X54428571Y-56907380D01*
X54428571Y-55907380D02*
X53761904Y-56907380D01*
X55285714Y-55907380D02*
X54809523Y-55907380D01*
X54761904Y-56383571D01*
X54809523Y-56335952D01*
X54904761Y-56288333D01*
X55142857Y-56288333D01*
X55238095Y-56335952D01*
X55285714Y-56383571D01*
X55333333Y-56478809D01*
X55333333Y-56716904D01*
X55285714Y-56812142D01*
X55238095Y-56859761D01*
X55142857Y-56907380D01*
X54904761Y-56907380D01*
X54809523Y-56859761D01*
X54761904Y-56812142D01*
%TO.C,MX7*%
X70714285Y-39907380D02*
X70714285Y-38907380D01*
X71047619Y-39621666D01*
X71380952Y-38907380D01*
X71380952Y-39907380D01*
X71761904Y-38907380D02*
X72428571Y-39907380D01*
X72428571Y-38907380D02*
X71761904Y-39907380D01*
X72714285Y-38907380D02*
X73380952Y-38907380D01*
X72952380Y-39907380D01*
%TO.C,MX8*%
X70714285Y-56907380D02*
X70714285Y-55907380D01*
X71047619Y-56621666D01*
X71380952Y-55907380D01*
X71380952Y-56907380D01*
X71761904Y-55907380D02*
X72428571Y-56907380D01*
X72428571Y-55907380D02*
X71761904Y-56907380D01*
X72952380Y-56335952D02*
X72857142Y-56288333D01*
X72809523Y-56240714D01*
X72761904Y-56145476D01*
X72761904Y-56097857D01*
X72809523Y-56002619D01*
X72857142Y-55955000D01*
X72952380Y-55907380D01*
X73142857Y-55907380D01*
X73238095Y-55955000D01*
X73285714Y-56002619D01*
X73333333Y-56097857D01*
X73333333Y-56145476D01*
X73285714Y-56240714D01*
X73238095Y-56288333D01*
X73142857Y-56335952D01*
X72952380Y-56335952D01*
X72857142Y-56383571D01*
X72809523Y-56431190D01*
X72761904Y-56526428D01*
X72761904Y-56716904D01*
X72809523Y-56812142D01*
X72857142Y-56859761D01*
X72952380Y-56907380D01*
X73142857Y-56907380D01*
X73238095Y-56859761D01*
X73285714Y-56812142D01*
X73333333Y-56716904D01*
X73333333Y-56526428D01*
X73285714Y-56431190D01*
X73238095Y-56383571D01*
X73142857Y-56335952D01*
%TO.C,MX9*%
X70714285Y-73907380D02*
X70714285Y-72907380D01*
X71047619Y-73621666D01*
X71380952Y-72907380D01*
X71380952Y-73907380D01*
X71761904Y-72907380D02*
X72428571Y-73907380D01*
X72428571Y-72907380D02*
X71761904Y-73907380D01*
X72857142Y-73907380D02*
X73047619Y-73907380D01*
X73142857Y-73859761D01*
X73190476Y-73812142D01*
X73285714Y-73669285D01*
X73333333Y-73478809D01*
X73333333Y-73097857D01*
X73285714Y-73002619D01*
X73238095Y-72955000D01*
X73142857Y-72907380D01*
X72952380Y-72907380D01*
X72857142Y-72955000D01*
X72809523Y-73002619D01*
X72761904Y-73097857D01*
X72761904Y-73335952D01*
X72809523Y-73431190D01*
X72857142Y-73478809D01*
X72952380Y-73526428D01*
X73142857Y-73526428D01*
X73238095Y-73478809D01*
X73285714Y-73431190D01*
X73333333Y-73335952D01*
%TO.C,MX10*%
X88238095Y-39907380D02*
X88238095Y-38907380D01*
X88571428Y-39621666D01*
X88904761Y-38907380D01*
X88904761Y-39907380D01*
X89285714Y-38907380D02*
X89952380Y-39907380D01*
X89952380Y-38907380D02*
X89285714Y-39907380D01*
X90857142Y-39907380D02*
X90285714Y-39907380D01*
X90571428Y-39907380D02*
X90571428Y-38907380D01*
X90476190Y-39050238D01*
X90380952Y-39145476D01*
X90285714Y-39193095D01*
X91476190Y-38907380D02*
X91571428Y-38907380D01*
X91666666Y-38955000D01*
X91714285Y-39002619D01*
X91761904Y-39097857D01*
X91809523Y-39288333D01*
X91809523Y-39526428D01*
X91761904Y-39716904D01*
X91714285Y-39812142D01*
X91666666Y-39859761D01*
X91571428Y-39907380D01*
X91476190Y-39907380D01*
X91380952Y-39859761D01*
X91333333Y-39812142D01*
X91285714Y-39716904D01*
X91238095Y-39526428D01*
X91238095Y-39288333D01*
X91285714Y-39097857D01*
X91333333Y-39002619D01*
X91380952Y-38955000D01*
X91476190Y-38907380D01*
%TO.C,MX11*%
X88238095Y-56907380D02*
X88238095Y-55907380D01*
X88571428Y-56621666D01*
X88904761Y-55907380D01*
X88904761Y-56907380D01*
X89285714Y-55907380D02*
X89952380Y-56907380D01*
X89952380Y-55907380D02*
X89285714Y-56907380D01*
X90857142Y-56907380D02*
X90285714Y-56907380D01*
X90571428Y-56907380D02*
X90571428Y-55907380D01*
X90476190Y-56050238D01*
X90380952Y-56145476D01*
X90285714Y-56193095D01*
X91809523Y-56907380D02*
X91238095Y-56907380D01*
X91523809Y-56907380D02*
X91523809Y-55907380D01*
X91428571Y-56050238D01*
X91333333Y-56145476D01*
X91238095Y-56193095D01*
%TO.C,MX12*%
X88238095Y-73907380D02*
X88238095Y-72907380D01*
X88571428Y-73621666D01*
X88904761Y-72907380D01*
X88904761Y-73907380D01*
X89285714Y-72907380D02*
X89952380Y-73907380D01*
X89952380Y-72907380D02*
X89285714Y-73907380D01*
X90857142Y-73907380D02*
X90285714Y-73907380D01*
X90571428Y-73907380D02*
X90571428Y-72907380D01*
X90476190Y-73050238D01*
X90380952Y-73145476D01*
X90285714Y-73193095D01*
X91238095Y-73002619D02*
X91285714Y-72955000D01*
X91380952Y-72907380D01*
X91619047Y-72907380D01*
X91714285Y-72955000D01*
X91761904Y-73002619D01*
X91809523Y-73097857D01*
X91809523Y-73193095D01*
X91761904Y-73335952D01*
X91190476Y-73907380D01*
X91809523Y-73907380D01*
%TO.C,MX13*%
X88238095Y-91907380D02*
X88238095Y-90907380D01*
X88571428Y-91621666D01*
X88904761Y-90907380D01*
X88904761Y-91907380D01*
X89285714Y-90907380D02*
X89952380Y-91907380D01*
X89952380Y-90907380D02*
X89285714Y-91907380D01*
X90857142Y-91907380D02*
X90285714Y-91907380D01*
X90571428Y-91907380D02*
X90571428Y-90907380D01*
X90476190Y-91050238D01*
X90380952Y-91145476D01*
X90285714Y-91193095D01*
X91190476Y-90907380D02*
X91809523Y-90907380D01*
X91476190Y-91288333D01*
X91619047Y-91288333D01*
X91714285Y-91335952D01*
X91761904Y-91383571D01*
X91809523Y-91478809D01*
X91809523Y-91716904D01*
X91761904Y-91812142D01*
X91714285Y-91859761D01*
X91619047Y-91907380D01*
X91333333Y-91907380D01*
X91238095Y-91859761D01*
X91190476Y-91812142D01*
%TO.C,MX14*%
X106238095Y-39907380D02*
X106238095Y-38907380D01*
X106571428Y-39621666D01*
X106904761Y-38907380D01*
X106904761Y-39907380D01*
X107285714Y-38907380D02*
X107952380Y-39907380D01*
X107952380Y-38907380D02*
X107285714Y-39907380D01*
X108857142Y-39907380D02*
X108285714Y-39907380D01*
X108571428Y-39907380D02*
X108571428Y-38907380D01*
X108476190Y-39050238D01*
X108380952Y-39145476D01*
X108285714Y-39193095D01*
X109714285Y-39240714D02*
X109714285Y-39907380D01*
X109476190Y-38859761D02*
X109238095Y-39574047D01*
X109857142Y-39574047D01*
%TO.C,MX15*%
X106238095Y-56907380D02*
X106238095Y-55907380D01*
X106571428Y-56621666D01*
X106904761Y-55907380D01*
X106904761Y-56907380D01*
X107285714Y-55907380D02*
X107952380Y-56907380D01*
X107952380Y-55907380D02*
X107285714Y-56907380D01*
X108857142Y-56907380D02*
X108285714Y-56907380D01*
X108571428Y-56907380D02*
X108571428Y-55907380D01*
X108476190Y-56050238D01*
X108380952Y-56145476D01*
X108285714Y-56193095D01*
X109761904Y-55907380D02*
X109285714Y-55907380D01*
X109238095Y-56383571D01*
X109285714Y-56335952D01*
X109380952Y-56288333D01*
X109619047Y-56288333D01*
X109714285Y-56335952D01*
X109761904Y-56383571D01*
X109809523Y-56478809D01*
X109809523Y-56716904D01*
X109761904Y-56812142D01*
X109714285Y-56859761D01*
X109619047Y-56907380D01*
X109380952Y-56907380D01*
X109285714Y-56859761D01*
X109238095Y-56812142D01*
%TO.C,MX16*%
X106238095Y-73907380D02*
X106238095Y-72907380D01*
X106571428Y-73621666D01*
X106904761Y-72907380D01*
X106904761Y-73907380D01*
X107285714Y-72907380D02*
X107952380Y-73907380D01*
X107952380Y-72907380D02*
X107285714Y-73907380D01*
X108857142Y-73907380D02*
X108285714Y-73907380D01*
X108571428Y-73907380D02*
X108571428Y-72907380D01*
X108476190Y-73050238D01*
X108380952Y-73145476D01*
X108285714Y-73193095D01*
X109714285Y-72907380D02*
X109523809Y-72907380D01*
X109428571Y-72955000D01*
X109380952Y-73002619D01*
X109285714Y-73145476D01*
X109238095Y-73335952D01*
X109238095Y-73716904D01*
X109285714Y-73812142D01*
X109333333Y-73859761D01*
X109428571Y-73907380D01*
X109619047Y-73907380D01*
X109714285Y-73859761D01*
X109761904Y-73812142D01*
X109809523Y-73716904D01*
X109809523Y-73478809D01*
X109761904Y-73383571D01*
X109714285Y-73335952D01*
X109619047Y-73288333D01*
X109428571Y-73288333D01*
X109333333Y-73335952D01*
X109285714Y-73383571D01*
X109238095Y-73478809D01*
%TO.C,MX17*%
X106238095Y-91907380D02*
X106238095Y-90907380D01*
X106571428Y-91621666D01*
X106904761Y-90907380D01*
X106904761Y-91907380D01*
X107285714Y-90907380D02*
X107952380Y-91907380D01*
X107952380Y-90907380D02*
X107285714Y-91907380D01*
X108857142Y-91907380D02*
X108285714Y-91907380D01*
X108571428Y-91907380D02*
X108571428Y-90907380D01*
X108476190Y-91050238D01*
X108380952Y-91145476D01*
X108285714Y-91193095D01*
X109190476Y-90907380D02*
X109857142Y-90907380D01*
X109428571Y-91907380D01*
%TO.C,MX2*%
X34714285Y-59707380D02*
X34714285Y-58707380D01*
X35047619Y-59421666D01*
X35380952Y-58707380D01*
X35380952Y-59707380D01*
X35761904Y-58707380D02*
X36428571Y-59707380D01*
X36428571Y-58707380D02*
X35761904Y-59707380D01*
X36761904Y-58802619D02*
X36809523Y-58755000D01*
X36904761Y-58707380D01*
X37142857Y-58707380D01*
X37238095Y-58755000D01*
X37285714Y-58802619D01*
X37333333Y-58897857D01*
X37333333Y-58993095D01*
X37285714Y-59135952D01*
X36714285Y-59707380D01*
X37333333Y-59707380D01*
%TO.C,BT1*%
X65214285Y-72628571D02*
X65357142Y-72676190D01*
X65404761Y-72723809D01*
X65452380Y-72819047D01*
X65452380Y-72961904D01*
X65404761Y-73057142D01*
X65357142Y-73104761D01*
X65261904Y-73152380D01*
X64880952Y-73152380D01*
X64880952Y-72152380D01*
X65214285Y-72152380D01*
X65309523Y-72200000D01*
X65357142Y-72247619D01*
X65404761Y-72342857D01*
X65404761Y-72438095D01*
X65357142Y-72533333D01*
X65309523Y-72580952D01*
X65214285Y-72628571D01*
X64880952Y-72628571D01*
X65738095Y-72152380D02*
X66309523Y-72152380D01*
X66023809Y-73152380D02*
X66023809Y-72152380D01*
X67166666Y-73152380D02*
X66595238Y-73152380D01*
X66880952Y-73152380D02*
X66880952Y-72152380D01*
X66785714Y-72295238D01*
X66690476Y-72390476D01*
X66595238Y-72438095D01*
%TO.C,D1*%
D15*
X45574523Y-35124857D02*
X44304523Y-35124857D01*
X44304523Y-34762000D01*
X44365000Y-34544285D01*
X44485952Y-34399142D01*
X44606904Y-34326571D01*
X44848809Y-34254000D01*
X45030238Y-34254000D01*
X45272142Y-34326571D01*
X45393095Y-34399142D01*
X45514047Y-34544285D01*
X45574523Y-34762000D01*
X45574523Y-35124857D01*
X45574523Y-32802571D02*
X45574523Y-33673428D01*
X45574523Y-33238000D02*
X44304523Y-33238000D01*
X44485952Y-33383142D01*
X44606904Y-33528285D01*
X44667380Y-33673428D01*
%TO.C,D2*%
X45574523Y-52124857D02*
X44304523Y-52124857D01*
X44304523Y-51762000D01*
X44365000Y-51544285D01*
X44485952Y-51399142D01*
X44606904Y-51326571D01*
X44848809Y-51254000D01*
X45030238Y-51254000D01*
X45272142Y-51326571D01*
X45393095Y-51399142D01*
X45514047Y-51544285D01*
X45574523Y-51762000D01*
X45574523Y-52124857D01*
X44425476Y-50673428D02*
X44365000Y-50600857D01*
X44304523Y-50455714D01*
X44304523Y-50092857D01*
X44365000Y-49947714D01*
X44425476Y-49875142D01*
X44546428Y-49802571D01*
X44667380Y-49802571D01*
X44848809Y-49875142D01*
X45574523Y-50746000D01*
X45574523Y-49802571D01*
%TO.C,D3*%
X45574523Y-69124857D02*
X44304523Y-69124857D01*
X44304523Y-68762000D01*
X44365000Y-68544285D01*
X44485952Y-68399142D01*
X44606904Y-68326571D01*
X44848809Y-68254000D01*
X45030238Y-68254000D01*
X45272142Y-68326571D01*
X45393095Y-68399142D01*
X45514047Y-68544285D01*
X45574523Y-68762000D01*
X45574523Y-69124857D01*
X44304523Y-67746000D02*
X44304523Y-66802571D01*
X44788333Y-67310571D01*
X44788333Y-67092857D01*
X44848809Y-66947714D01*
X44909285Y-66875142D01*
X45030238Y-66802571D01*
X45332619Y-66802571D01*
X45453571Y-66875142D01*
X45514047Y-66947714D01*
X45574523Y-67092857D01*
X45574523Y-67528285D01*
X45514047Y-67673428D01*
X45453571Y-67746000D01*
%TO.C,D4*%
X63574523Y-35124857D02*
X62304523Y-35124857D01*
X62304523Y-34762000D01*
X62365000Y-34544285D01*
X62485952Y-34399142D01*
X62606904Y-34326571D01*
X62848809Y-34254000D01*
X63030238Y-34254000D01*
X63272142Y-34326571D01*
X63393095Y-34399142D01*
X63514047Y-34544285D01*
X63574523Y-34762000D01*
X63574523Y-35124857D01*
X62727857Y-32947714D02*
X63574523Y-32947714D01*
X62244047Y-33310571D02*
X63151190Y-33673428D01*
X63151190Y-32730000D01*
%TO.C,D5*%
X63574523Y-52124857D02*
X62304523Y-52124857D01*
X62304523Y-51762000D01*
X62365000Y-51544285D01*
X62485952Y-51399142D01*
X62606904Y-51326571D01*
X62848809Y-51254000D01*
X63030238Y-51254000D01*
X63272142Y-51326571D01*
X63393095Y-51399142D01*
X63514047Y-51544285D01*
X63574523Y-51762000D01*
X63574523Y-52124857D01*
X62304523Y-49875142D02*
X62304523Y-50600857D01*
X62909285Y-50673428D01*
X62848809Y-50600857D01*
X62788333Y-50455714D01*
X62788333Y-50092857D01*
X62848809Y-49947714D01*
X62909285Y-49875142D01*
X63030238Y-49802571D01*
X63332619Y-49802571D01*
X63453571Y-49875142D01*
X63514047Y-49947714D01*
X63574523Y-50092857D01*
X63574523Y-50455714D01*
X63514047Y-50600857D01*
X63453571Y-50673428D01*
%TO.C,D6*%
X63574523Y-69124857D02*
X62304523Y-69124857D01*
X62304523Y-68762000D01*
X62365000Y-68544285D01*
X62485952Y-68399142D01*
X62606904Y-68326571D01*
X62848809Y-68254000D01*
X63030238Y-68254000D01*
X63272142Y-68326571D01*
X63393095Y-68399142D01*
X63514047Y-68544285D01*
X63574523Y-68762000D01*
X63574523Y-69124857D01*
X62304523Y-66947714D02*
X62304523Y-67238000D01*
X62365000Y-67383142D01*
X62425476Y-67455714D01*
X62606904Y-67600857D01*
X62848809Y-67673428D01*
X63332619Y-67673428D01*
X63453571Y-67600857D01*
X63514047Y-67528285D01*
X63574523Y-67383142D01*
X63574523Y-67092857D01*
X63514047Y-66947714D01*
X63453571Y-66875142D01*
X63332619Y-66802571D01*
X63030238Y-66802571D01*
X62909285Y-66875142D01*
X62848809Y-66947714D01*
X62788333Y-67092857D01*
X62788333Y-67383142D01*
X62848809Y-67528285D01*
X62909285Y-67600857D01*
X63030238Y-67673428D01*
%TO.C,D7*%
X81574523Y-35124857D02*
X80304523Y-35124857D01*
X80304523Y-34762000D01*
X80365000Y-34544285D01*
X80485952Y-34399142D01*
X80606904Y-34326571D01*
X80848809Y-34254000D01*
X81030238Y-34254000D01*
X81272142Y-34326571D01*
X81393095Y-34399142D01*
X81514047Y-34544285D01*
X81574523Y-34762000D01*
X81574523Y-35124857D01*
X80304523Y-33746000D02*
X80304523Y-32730000D01*
X81574523Y-33383142D01*
%TO.C,D8*%
X81574523Y-52124857D02*
X80304523Y-52124857D01*
X80304523Y-51762000D01*
X80365000Y-51544285D01*
X80485952Y-51399142D01*
X80606904Y-51326571D01*
X80848809Y-51254000D01*
X81030238Y-51254000D01*
X81272142Y-51326571D01*
X81393095Y-51399142D01*
X81514047Y-51544285D01*
X81574523Y-51762000D01*
X81574523Y-52124857D01*
X80848809Y-50383142D02*
X80788333Y-50528285D01*
X80727857Y-50600857D01*
X80606904Y-50673428D01*
X80546428Y-50673428D01*
X80425476Y-50600857D01*
X80365000Y-50528285D01*
X80304523Y-50383142D01*
X80304523Y-50092857D01*
X80365000Y-49947714D01*
X80425476Y-49875142D01*
X80546428Y-49802571D01*
X80606904Y-49802571D01*
X80727857Y-49875142D01*
X80788333Y-49947714D01*
X80848809Y-50092857D01*
X80848809Y-50383142D01*
X80909285Y-50528285D01*
X80969761Y-50600857D01*
X81090714Y-50673428D01*
X81332619Y-50673428D01*
X81453571Y-50600857D01*
X81514047Y-50528285D01*
X81574523Y-50383142D01*
X81574523Y-50092857D01*
X81514047Y-49947714D01*
X81453571Y-49875142D01*
X81332619Y-49802571D01*
X81090714Y-49802571D01*
X80969761Y-49875142D01*
X80909285Y-49947714D01*
X80848809Y-50092857D01*
%TO.C,D9*%
X81574523Y-69124857D02*
X80304523Y-69124857D01*
X80304523Y-68762000D01*
X80365000Y-68544285D01*
X80485952Y-68399142D01*
X80606904Y-68326571D01*
X80848809Y-68254000D01*
X81030238Y-68254000D01*
X81272142Y-68326571D01*
X81393095Y-68399142D01*
X81514047Y-68544285D01*
X81574523Y-68762000D01*
X81574523Y-69124857D01*
X81574523Y-67528285D02*
X81574523Y-67238000D01*
X81514047Y-67092857D01*
X81453571Y-67020285D01*
X81272142Y-66875142D01*
X81030238Y-66802571D01*
X80546428Y-66802571D01*
X80425476Y-66875142D01*
X80365000Y-66947714D01*
X80304523Y-67092857D01*
X80304523Y-67383142D01*
X80365000Y-67528285D01*
X80425476Y-67600857D01*
X80546428Y-67673428D01*
X80848809Y-67673428D01*
X80969761Y-67600857D01*
X81030238Y-67528285D01*
X81090714Y-67383142D01*
X81090714Y-67092857D01*
X81030238Y-66947714D01*
X80969761Y-66875142D01*
X80848809Y-66802571D01*
%TO.C,D10*%
X99574523Y-35950571D02*
X98304523Y-35950571D01*
X98304523Y-35587714D01*
X98365000Y-35370000D01*
X98485952Y-35224857D01*
X98606904Y-35152285D01*
X98848809Y-35079714D01*
X99030238Y-35079714D01*
X99272142Y-35152285D01*
X99393095Y-35224857D01*
X99514047Y-35370000D01*
X99574523Y-35587714D01*
X99574523Y-35950571D01*
X99574523Y-33628285D02*
X99574523Y-34499142D01*
X99574523Y-34063714D02*
X98304523Y-34063714D01*
X98485952Y-34208857D01*
X98606904Y-34354000D01*
X98667380Y-34499142D01*
X98304523Y-32684857D02*
X98304523Y-32539714D01*
X98365000Y-32394571D01*
X98425476Y-32322000D01*
X98546428Y-32249428D01*
X98788333Y-32176857D01*
X99090714Y-32176857D01*
X99332619Y-32249428D01*
X99453571Y-32322000D01*
X99514047Y-32394571D01*
X99574523Y-32539714D01*
X99574523Y-32684857D01*
X99514047Y-32830000D01*
X99453571Y-32902571D01*
X99332619Y-32975142D01*
X99090714Y-33047714D01*
X98788333Y-33047714D01*
X98546428Y-32975142D01*
X98425476Y-32902571D01*
X98365000Y-32830000D01*
X98304523Y-32684857D01*
%TO.C,D11*%
X99574523Y-52850571D02*
X98304523Y-52850571D01*
X98304523Y-52487714D01*
X98365000Y-52270000D01*
X98485952Y-52124857D01*
X98606904Y-52052285D01*
X98848809Y-51979714D01*
X99030238Y-51979714D01*
X99272142Y-52052285D01*
X99393095Y-52124857D01*
X99514047Y-52270000D01*
X99574523Y-52487714D01*
X99574523Y-52850571D01*
X99574523Y-50528285D02*
X99574523Y-51399142D01*
X99574523Y-50963714D02*
X98304523Y-50963714D01*
X98485952Y-51108857D01*
X98606904Y-51254000D01*
X98667380Y-51399142D01*
X99574523Y-49076857D02*
X99574523Y-49947714D01*
X99574523Y-49512285D02*
X98304523Y-49512285D01*
X98485952Y-49657428D01*
X98606904Y-49802571D01*
X98667380Y-49947714D01*
%TO.C,D12*%
X99574523Y-69850571D02*
X98304523Y-69850571D01*
X98304523Y-69487714D01*
X98365000Y-69270000D01*
X98485952Y-69124857D01*
X98606904Y-69052285D01*
X98848809Y-68979714D01*
X99030238Y-68979714D01*
X99272142Y-69052285D01*
X99393095Y-69124857D01*
X99514047Y-69270000D01*
X99574523Y-69487714D01*
X99574523Y-69850571D01*
X99574523Y-67528285D02*
X99574523Y-68399142D01*
X99574523Y-67963714D02*
X98304523Y-67963714D01*
X98485952Y-68108857D01*
X98606904Y-68254000D01*
X98667380Y-68399142D01*
X98425476Y-66947714D02*
X98365000Y-66875142D01*
X98304523Y-66730000D01*
X98304523Y-66367142D01*
X98365000Y-66222000D01*
X98425476Y-66149428D01*
X98546428Y-66076857D01*
X98667380Y-66076857D01*
X98848809Y-66149428D01*
X99574523Y-67020285D01*
X99574523Y-66076857D01*
%TO.C,D13*%
X88149428Y-77574523D02*
X88149428Y-76304523D01*
X88512285Y-76304523D01*
X88730000Y-76365000D01*
X88875142Y-76485952D01*
X88947714Y-76606904D01*
X89020285Y-76848809D01*
X89020285Y-77030238D01*
X88947714Y-77272142D01*
X88875142Y-77393095D01*
X88730000Y-77514047D01*
X88512285Y-77574523D01*
X88149428Y-77574523D01*
X90471714Y-77574523D02*
X89600857Y-77574523D01*
X90036285Y-77574523D02*
X90036285Y-76304523D01*
X89891142Y-76485952D01*
X89746000Y-76606904D01*
X89600857Y-76667380D01*
X90979714Y-76304523D02*
X91923142Y-76304523D01*
X91415142Y-76788333D01*
X91632857Y-76788333D01*
X91778000Y-76848809D01*
X91850571Y-76909285D01*
X91923142Y-77030238D01*
X91923142Y-77332619D01*
X91850571Y-77453571D01*
X91778000Y-77514047D01*
X91632857Y-77574523D01*
X91197428Y-77574523D01*
X91052285Y-77514047D01*
X90979714Y-77453571D01*
%TO.C,D14*%
X106149428Y-43074523D02*
X106149428Y-41804523D01*
X106512285Y-41804523D01*
X106730000Y-41865000D01*
X106875142Y-41985952D01*
X106947714Y-42106904D01*
X107020285Y-42348809D01*
X107020285Y-42530238D01*
X106947714Y-42772142D01*
X106875142Y-42893095D01*
X106730000Y-43014047D01*
X106512285Y-43074523D01*
X106149428Y-43074523D01*
X108471714Y-43074523D02*
X107600857Y-43074523D01*
X108036285Y-43074523D02*
X108036285Y-41804523D01*
X107891142Y-41985952D01*
X107746000Y-42106904D01*
X107600857Y-42167380D01*
X109778000Y-42227857D02*
X109778000Y-43074523D01*
X109415142Y-41744047D02*
X109052285Y-42651190D01*
X109995714Y-42651190D01*
%TO.C,D15*%
X106110428Y-60074523D02*
X106110428Y-58804523D01*
X106473285Y-58804523D01*
X106691000Y-58865000D01*
X106836142Y-58985952D01*
X106908714Y-59106904D01*
X106981285Y-59348809D01*
X106981285Y-59530238D01*
X106908714Y-59772142D01*
X106836142Y-59893095D01*
X106691000Y-60014047D01*
X106473285Y-60074523D01*
X106110428Y-60074523D01*
X108432714Y-60074523D02*
X107561857Y-60074523D01*
X107997285Y-60074523D02*
X107997285Y-58804523D01*
X107852142Y-58985952D01*
X107707000Y-59106904D01*
X107561857Y-59167380D01*
X109811571Y-58804523D02*
X109085857Y-58804523D01*
X109013285Y-59409285D01*
X109085857Y-59348809D01*
X109231000Y-59288333D01*
X109593857Y-59288333D01*
X109739000Y-59348809D01*
X109811571Y-59409285D01*
X109884142Y-59530238D01*
X109884142Y-59832619D01*
X109811571Y-59953571D01*
X109739000Y-60014047D01*
X109593857Y-60074523D01*
X109231000Y-60074523D01*
X109085857Y-60014047D01*
X109013285Y-59953571D01*
%TO.C,D16*%
X106149428Y-77574523D02*
X106149428Y-76304523D01*
X106512285Y-76304523D01*
X106730000Y-76365000D01*
X106875142Y-76485952D01*
X106947714Y-76606904D01*
X107020285Y-76848809D01*
X107020285Y-77030238D01*
X106947714Y-77272142D01*
X106875142Y-77393095D01*
X106730000Y-77514047D01*
X106512285Y-77574523D01*
X106149428Y-77574523D01*
X108471714Y-77574523D02*
X107600857Y-77574523D01*
X108036285Y-77574523D02*
X108036285Y-76304523D01*
X107891142Y-76485952D01*
X107746000Y-76606904D01*
X107600857Y-76667380D01*
X109778000Y-76304523D02*
X109487714Y-76304523D01*
X109342571Y-76365000D01*
X109270000Y-76425476D01*
X109124857Y-76606904D01*
X109052285Y-76848809D01*
X109052285Y-77332619D01*
X109124857Y-77453571D01*
X109197428Y-77514047D01*
X109342571Y-77574523D01*
X109632857Y-77574523D01*
X109778000Y-77514047D01*
X109850571Y-77453571D01*
X109923142Y-77332619D01*
X109923142Y-77030238D01*
X109850571Y-76909285D01*
X109778000Y-76848809D01*
X109632857Y-76788333D01*
X109342571Y-76788333D01*
X109197428Y-76848809D01*
X109124857Y-76909285D01*
X109052285Y-77030238D01*
%TO.C,D17*%
X99574523Y-80240571D02*
X98304523Y-80240571D01*
X98304523Y-79877714D01*
X98365000Y-79660000D01*
X98485952Y-79514857D01*
X98606904Y-79442285D01*
X98848809Y-79369714D01*
X99030238Y-79369714D01*
X99272142Y-79442285D01*
X99393095Y-79514857D01*
X99514047Y-79660000D01*
X99574523Y-79877714D01*
X99574523Y-80240571D01*
X99574523Y-77918285D02*
X99574523Y-78789142D01*
X99574523Y-78353714D02*
X98304523Y-78353714D01*
X98485952Y-78498857D01*
X98606904Y-78644000D01*
X98667380Y-78789142D01*
X98304523Y-77410285D02*
X98304523Y-76394285D01*
X99574523Y-77047428D01*
%TD*%
M02*
