%TF.GenerationSoftware,KiCad,Pcbnew,(5.1.12)-1*%
%TF.CreationDate,2021-12-05T03:49:59-08:00*%
%TF.ProjectId,orthodox_v3,6f727468-6f64-46f7-985f-76332e6b6963,rev?*%
%TF.SameCoordinates,Original*%
%TF.FileFunction,Legend,Bot*%
%TF.FilePolarity,Positive*%
%FSLAX46Y46*%
G04 Gerber Fmt 4.6, Leading zero omitted, Abs format (unit mm)*
G04 Created by KiCad (PCBNEW (5.1.12)-1) date 2021-12-05 03:49:59*
%MOMM*%
%LPD*%
G01*
G04 APERTURE LIST*
%ADD10C,0.150000*%
%ADD11C,0.100000*%
%ADD12C,0.127000*%
%ADD13C,0.066040*%
%ADD14C,0.120000*%
%ADD15C,0.200000*%
%ADD16C,0.101600*%
%ADD17C,0.076200*%
G04 APERTURE END LIST*
D10*
%TO.C,MX6*%
X47000000Y-75000000D02*
X47000000Y-74000000D01*
X48000000Y-75000000D02*
X47000000Y-75000000D01*
X47000000Y-61000000D02*
X48000000Y-61000000D01*
X47000000Y-62000000D02*
X47000000Y-61000000D01*
X61000000Y-61000000D02*
X61000000Y-62000000D01*
X60000000Y-61000000D02*
X61000000Y-61000000D01*
X61000000Y-75000000D02*
X60000000Y-75000000D01*
X61000000Y-74000000D02*
X61000000Y-75000000D01*
%TO.C,MX1*%
X43000000Y-40000000D02*
X43000000Y-41000000D01*
X43000000Y-41000000D02*
X42000000Y-41000000D01*
X42000000Y-27000000D02*
X43000000Y-27000000D01*
X43000000Y-27000000D02*
X43000000Y-28000000D01*
X29000000Y-28000000D02*
X29000000Y-27000000D01*
X29000000Y-27000000D02*
X30000000Y-27000000D01*
X30000000Y-41000000D02*
X29000000Y-41000000D01*
X29000000Y-41000000D02*
X29000000Y-40000000D01*
%TO.C,MX3*%
X29000000Y-75000000D02*
X29000000Y-74000000D01*
X30000000Y-75000000D02*
X29000000Y-75000000D01*
X29000000Y-61000000D02*
X30000000Y-61000000D01*
X29000000Y-62000000D02*
X29000000Y-61000000D01*
X43000000Y-61000000D02*
X43000000Y-62000000D01*
X42000000Y-61000000D02*
X43000000Y-61000000D01*
X43000000Y-75000000D02*
X42000000Y-75000000D01*
X43000000Y-74000000D02*
X43000000Y-75000000D01*
%TO.C,MX4*%
X47000000Y-41000000D02*
X47000000Y-40000000D01*
X48000000Y-41000000D02*
X47000000Y-41000000D01*
X47000000Y-27000000D02*
X48000000Y-27000000D01*
X47000000Y-28000000D02*
X47000000Y-27000000D01*
X61000000Y-27000000D02*
X61000000Y-28000000D01*
X60000000Y-27000000D02*
X61000000Y-27000000D01*
X61000000Y-41000000D02*
X60000000Y-41000000D01*
X61000000Y-40000000D02*
X61000000Y-41000000D01*
%TO.C,MX5*%
X61000000Y-57000000D02*
X61000000Y-58000000D01*
X61000000Y-58000000D02*
X60000000Y-58000000D01*
X60000000Y-44000000D02*
X61000000Y-44000000D01*
X61000000Y-44000000D02*
X61000000Y-45000000D01*
X47000000Y-45000000D02*
X47000000Y-44000000D01*
X47000000Y-44000000D02*
X48000000Y-44000000D01*
X48000000Y-58000000D02*
X47000000Y-58000000D01*
X47000000Y-58000000D02*
X47000000Y-57000000D01*
%TO.C,MX7*%
X65000000Y-41000000D02*
X65000000Y-40000000D01*
X66000000Y-41000000D02*
X65000000Y-41000000D01*
X65000000Y-27000000D02*
X66000000Y-27000000D01*
X65000000Y-28000000D02*
X65000000Y-27000000D01*
X79000000Y-27000000D02*
X79000000Y-28000000D01*
X78000000Y-27000000D02*
X79000000Y-27000000D01*
X79000000Y-41000000D02*
X78000000Y-41000000D01*
X79000000Y-40000000D02*
X79000000Y-41000000D01*
%TO.C,MX8*%
X65000000Y-58000000D02*
X65000000Y-57000000D01*
X66000000Y-58000000D02*
X65000000Y-58000000D01*
X65000000Y-44000000D02*
X66000000Y-44000000D01*
X65000000Y-45000000D02*
X65000000Y-44000000D01*
X79000000Y-44000000D02*
X79000000Y-45000000D01*
X78000000Y-44000000D02*
X79000000Y-44000000D01*
X79000000Y-58000000D02*
X78000000Y-58000000D01*
X79000000Y-57000000D02*
X79000000Y-58000000D01*
%TO.C,MX9*%
X65000000Y-75000000D02*
X65000000Y-74000000D01*
X66000000Y-75000000D02*
X65000000Y-75000000D01*
X65000000Y-61000000D02*
X66000000Y-61000000D01*
X65000000Y-62000000D02*
X65000000Y-61000000D01*
X79000000Y-61000000D02*
X79000000Y-62000000D01*
X78000000Y-61000000D02*
X79000000Y-61000000D01*
X79000000Y-75000000D02*
X78000000Y-75000000D01*
X79000000Y-74000000D02*
X79000000Y-75000000D01*
%TO.C,MX10*%
X83000000Y-41000000D02*
X83000000Y-40000000D01*
X84000000Y-41000000D02*
X83000000Y-41000000D01*
X83000000Y-27000000D02*
X84000000Y-27000000D01*
X83000000Y-28000000D02*
X83000000Y-27000000D01*
X97000000Y-27000000D02*
X97000000Y-28000000D01*
X96000000Y-27000000D02*
X97000000Y-27000000D01*
X97000000Y-41000000D02*
X96000000Y-41000000D01*
X97000000Y-40000000D02*
X97000000Y-41000000D01*
%TO.C,MX11*%
X97000000Y-57000000D02*
X97000000Y-58000000D01*
X97000000Y-58000000D02*
X96000000Y-58000000D01*
X96000000Y-44000000D02*
X97000000Y-44000000D01*
X97000000Y-44000000D02*
X97000000Y-45000000D01*
X83000000Y-45000000D02*
X83000000Y-44000000D01*
X83000000Y-44000000D02*
X84000000Y-44000000D01*
X84000000Y-58000000D02*
X83000000Y-58000000D01*
X83000000Y-58000000D02*
X83000000Y-57000000D01*
%TO.C,MX12*%
X83000000Y-75000000D02*
X83000000Y-74000000D01*
X84000000Y-75000000D02*
X83000000Y-75000000D01*
X83000000Y-61000000D02*
X84000000Y-61000000D01*
X83000000Y-62000000D02*
X83000000Y-61000000D01*
X97000000Y-61000000D02*
X97000000Y-62000000D01*
X96000000Y-61000000D02*
X97000000Y-61000000D01*
X97000000Y-75000000D02*
X96000000Y-75000000D01*
X97000000Y-74000000D02*
X97000000Y-75000000D01*
%TO.C,MX13*%
X97000000Y-92000000D02*
X97000000Y-93000000D01*
X97000000Y-93000000D02*
X96000000Y-93000000D01*
X96000000Y-79000000D02*
X97000000Y-79000000D01*
X97000000Y-79000000D02*
X97000000Y-80000000D01*
X83000000Y-80000000D02*
X83000000Y-79000000D01*
X83000000Y-79000000D02*
X84000000Y-79000000D01*
X84000000Y-93000000D02*
X83000000Y-93000000D01*
X83000000Y-93000000D02*
X83000000Y-92000000D01*
%TO.C,MX14*%
X115000000Y-40000000D02*
X115000000Y-41000000D01*
X115000000Y-41000000D02*
X114000000Y-41000000D01*
X114000000Y-27000000D02*
X115000000Y-27000000D01*
X115000000Y-27000000D02*
X115000000Y-28000000D01*
X101000000Y-28000000D02*
X101000000Y-27000000D01*
X101000000Y-27000000D02*
X102000000Y-27000000D01*
X102000000Y-41000000D02*
X101000000Y-41000000D01*
X101000000Y-41000000D02*
X101000000Y-40000000D01*
%TO.C,MX15*%
X101000000Y-58000000D02*
X101000000Y-57000000D01*
X102000000Y-58000000D02*
X101000000Y-58000000D01*
X101000000Y-44000000D02*
X102000000Y-44000000D01*
X101000000Y-45000000D02*
X101000000Y-44000000D01*
X115000000Y-44000000D02*
X115000000Y-45000000D01*
X114000000Y-44000000D02*
X115000000Y-44000000D01*
X115000000Y-58000000D02*
X114000000Y-58000000D01*
X115000000Y-57000000D02*
X115000000Y-58000000D01*
%TO.C,MX16*%
X115000000Y-74000000D02*
X115000000Y-75000000D01*
X115000000Y-75000000D02*
X114000000Y-75000000D01*
X114000000Y-61000000D02*
X115000000Y-61000000D01*
X115000000Y-61000000D02*
X115000000Y-62000000D01*
X101000000Y-62000000D02*
X101000000Y-61000000D01*
X101000000Y-61000000D02*
X102000000Y-61000000D01*
X102000000Y-75000000D02*
X101000000Y-75000000D01*
X101000000Y-75000000D02*
X101000000Y-74000000D01*
%TO.C,MX17*%
X101000000Y-93000000D02*
X101000000Y-92000000D01*
X102000000Y-93000000D02*
X101000000Y-93000000D01*
X101000000Y-79000000D02*
X102000000Y-79000000D01*
X101000000Y-80000000D02*
X101000000Y-79000000D01*
X115000000Y-79000000D02*
X115000000Y-80000000D01*
X114000000Y-79000000D02*
X115000000Y-79000000D01*
X115000000Y-93000000D02*
X114000000Y-93000000D01*
X115000000Y-92000000D02*
X115000000Y-93000000D01*
D11*
%TO.C,U2*%
X31593000Y-74911000D02*
G75*
G03*
X31593000Y-74911000I-254000J0D01*
G01*
D12*
X34430180Y-80194200D02*
X27076880Y-80194200D01*
X34430180Y-89193420D02*
X34430180Y-80194200D01*
X27076880Y-89193420D02*
X34430180Y-89193420D01*
X27076880Y-80199280D02*
X27076880Y-89193420D01*
X29172380Y-75800000D02*
X49500000Y-75800000D01*
X28501820Y-76470560D02*
X29172380Y-75800000D01*
X28501820Y-93597780D02*
X28501820Y-76470560D01*
X49500000Y-93597780D02*
X28501820Y-93597780D01*
X49500000Y-75800000D02*
X49500000Y-93597780D01*
D13*
X31085000Y-88119000D02*
X28418000Y-88119000D01*
X28418000Y-88119000D02*
X28418000Y-89897000D01*
X31085000Y-89897000D02*
X28418000Y-89897000D01*
X31085000Y-88119000D02*
X31085000Y-89897000D01*
X35151540Y-88119000D02*
X32482000Y-88119000D01*
X32482000Y-88119000D02*
X32482000Y-89897000D01*
X35151540Y-89897000D02*
X32482000Y-89897000D01*
X35151540Y-88119000D02*
X35151540Y-89897000D01*
X35151540Y-79483000D02*
X32482000Y-79483000D01*
X32482000Y-79483000D02*
X32482000Y-81261000D01*
X35151540Y-81261000D02*
X32482000Y-81261000D01*
X35151540Y-79483000D02*
X35151540Y-81261000D01*
X31085000Y-79483000D02*
X28418000Y-79483000D01*
X28418000Y-79483000D02*
X28418000Y-81261000D01*
X31085000Y-81261000D02*
X28418000Y-81261000D01*
X31085000Y-79483000D02*
X31085000Y-81261000D01*
X48865000Y-82150000D02*
X46325000Y-82150000D01*
X46325000Y-82150000D02*
X46325000Y-87865000D01*
X48865000Y-87865000D02*
X46325000Y-87865000D01*
X48865000Y-82150000D02*
X48865000Y-87865000D01*
X31720000Y-82150000D02*
X29180000Y-82150000D01*
X29180000Y-82150000D02*
X29180000Y-87230000D01*
X31720000Y-87230000D02*
X29180000Y-87230000D01*
X31720000Y-82150000D02*
X31720000Y-87230000D01*
D10*
%TO.C,MX2*%
X43000000Y-57000000D02*
X43000000Y-58000000D01*
X43000000Y-58000000D02*
X42000000Y-58000000D01*
X42000000Y-44000000D02*
X43000000Y-44000000D01*
X43000000Y-44000000D02*
X43000000Y-45000000D01*
X29000000Y-45000000D02*
X29000000Y-44000000D01*
X29000000Y-44000000D02*
X30000000Y-44000000D01*
X30000000Y-58000000D02*
X29000000Y-58000000D01*
X29000000Y-58000000D02*
X29000000Y-57000000D01*
D14*
%TO.C,BT2*%
X56674756Y-91788169D02*
G75*
G03*
X60000000Y-92750000I2015244J738169D01*
G01*
X72003354Y-92766530D02*
G75*
G03*
X75340000Y-91780000I1306646J1716530D01*
G01*
X57300000Y-76660000D02*
X60800000Y-76660000D01*
X55220000Y-87200000D02*
X55220000Y-87830000D01*
X55220000Y-78740000D02*
X55220000Y-81200000D01*
X76780000Y-87200000D02*
X76780000Y-87830000D01*
X76780000Y-78740000D02*
X76780000Y-81200000D01*
X55220000Y-87830000D02*
X56660000Y-91780000D01*
X57300000Y-76660000D02*
X55220000Y-78740000D01*
X71200000Y-76660000D02*
X74700000Y-76660000D01*
X74700000Y-76660000D02*
X76780000Y-78740000D01*
X76780000Y-87830000D02*
X75340000Y-91780000D01*
%TO.C,BAT+*%
D15*
X39080952Y-78771428D02*
X38319047Y-78771428D01*
X38700000Y-79152380D02*
X38700000Y-78390476D01*
%TO.C,BAT-*%
X37180952Y-78771428D02*
X36419047Y-78771428D01*
%TO.C,MX6*%
D10*
X55285714Y-73907380D02*
X55285714Y-72907380D01*
X54952380Y-73621666D01*
X54619047Y-72907380D01*
X54619047Y-73907380D01*
X54238095Y-72907380D02*
X53571428Y-73907380D01*
X53571428Y-72907380D02*
X54238095Y-73907380D01*
X52761904Y-72907380D02*
X52952380Y-72907380D01*
X53047619Y-72955000D01*
X53095238Y-73002619D01*
X53190476Y-73145476D01*
X53238095Y-73335952D01*
X53238095Y-73716904D01*
X53190476Y-73812142D01*
X53142857Y-73859761D01*
X53047619Y-73907380D01*
X52857142Y-73907380D01*
X52761904Y-73859761D01*
X52714285Y-73812142D01*
X52666666Y-73716904D01*
X52666666Y-73478809D01*
X52714285Y-73383571D01*
X52761904Y-73335952D01*
X52857142Y-73288333D01*
X53047619Y-73288333D01*
X53142857Y-73335952D01*
X53190476Y-73383571D01*
X53238095Y-73478809D01*
%TO.C,MX1*%
X37285714Y-39907380D02*
X37285714Y-38907380D01*
X36952380Y-39621666D01*
X36619047Y-38907380D01*
X36619047Y-39907380D01*
X36238095Y-38907380D02*
X35571428Y-39907380D01*
X35571428Y-38907380D02*
X36238095Y-39907380D01*
X34666666Y-39907380D02*
X35238095Y-39907380D01*
X34952380Y-39907380D02*
X34952380Y-38907380D01*
X35047619Y-39050238D01*
X35142857Y-39145476D01*
X35238095Y-39193095D01*
%TO.C,MX3*%
X37285714Y-73907380D02*
X37285714Y-72907380D01*
X36952380Y-73621666D01*
X36619047Y-72907380D01*
X36619047Y-73907380D01*
X36238095Y-72907380D02*
X35571428Y-73907380D01*
X35571428Y-72907380D02*
X36238095Y-73907380D01*
X35285714Y-72907380D02*
X34666666Y-72907380D01*
X35000000Y-73288333D01*
X34857142Y-73288333D01*
X34761904Y-73335952D01*
X34714285Y-73383571D01*
X34666666Y-73478809D01*
X34666666Y-73716904D01*
X34714285Y-73812142D01*
X34761904Y-73859761D01*
X34857142Y-73907380D01*
X35142857Y-73907380D01*
X35238095Y-73859761D01*
X35285714Y-73812142D01*
%TO.C,MX4*%
X55285714Y-39907380D02*
X55285714Y-38907380D01*
X54952380Y-39621666D01*
X54619047Y-38907380D01*
X54619047Y-39907380D01*
X54238095Y-38907380D02*
X53571428Y-39907380D01*
X53571428Y-38907380D02*
X54238095Y-39907380D01*
X52761904Y-39240714D02*
X52761904Y-39907380D01*
X53000000Y-38859761D02*
X53238095Y-39574047D01*
X52619047Y-39574047D01*
%TO.C,MX5*%
X55285714Y-56907380D02*
X55285714Y-55907380D01*
X54952380Y-56621666D01*
X54619047Y-55907380D01*
X54619047Y-56907380D01*
X54238095Y-55907380D02*
X53571428Y-56907380D01*
X53571428Y-55907380D02*
X54238095Y-56907380D01*
X52714285Y-55907380D02*
X53190476Y-55907380D01*
X53238095Y-56383571D01*
X53190476Y-56335952D01*
X53095238Y-56288333D01*
X52857142Y-56288333D01*
X52761904Y-56335952D01*
X52714285Y-56383571D01*
X52666666Y-56478809D01*
X52666666Y-56716904D01*
X52714285Y-56812142D01*
X52761904Y-56859761D01*
X52857142Y-56907380D01*
X53095238Y-56907380D01*
X53190476Y-56859761D01*
X53238095Y-56812142D01*
%TO.C,MX7*%
X73285714Y-39907380D02*
X73285714Y-38907380D01*
X72952380Y-39621666D01*
X72619047Y-38907380D01*
X72619047Y-39907380D01*
X72238095Y-38907380D02*
X71571428Y-39907380D01*
X71571428Y-38907380D02*
X72238095Y-39907380D01*
X71285714Y-38907380D02*
X70619047Y-38907380D01*
X71047619Y-39907380D01*
%TO.C,MX8*%
X73285714Y-56907380D02*
X73285714Y-55907380D01*
X72952380Y-56621666D01*
X72619047Y-55907380D01*
X72619047Y-56907380D01*
X72238095Y-55907380D02*
X71571428Y-56907380D01*
X71571428Y-55907380D02*
X72238095Y-56907380D01*
X71047619Y-56335952D02*
X71142857Y-56288333D01*
X71190476Y-56240714D01*
X71238095Y-56145476D01*
X71238095Y-56097857D01*
X71190476Y-56002619D01*
X71142857Y-55955000D01*
X71047619Y-55907380D01*
X70857142Y-55907380D01*
X70761904Y-55955000D01*
X70714285Y-56002619D01*
X70666666Y-56097857D01*
X70666666Y-56145476D01*
X70714285Y-56240714D01*
X70761904Y-56288333D01*
X70857142Y-56335952D01*
X71047619Y-56335952D01*
X71142857Y-56383571D01*
X71190476Y-56431190D01*
X71238095Y-56526428D01*
X71238095Y-56716904D01*
X71190476Y-56812142D01*
X71142857Y-56859761D01*
X71047619Y-56907380D01*
X70857142Y-56907380D01*
X70761904Y-56859761D01*
X70714285Y-56812142D01*
X70666666Y-56716904D01*
X70666666Y-56526428D01*
X70714285Y-56431190D01*
X70761904Y-56383571D01*
X70857142Y-56335952D01*
%TO.C,MX9*%
X73285714Y-73907380D02*
X73285714Y-72907380D01*
X72952380Y-73621666D01*
X72619047Y-72907380D01*
X72619047Y-73907380D01*
X72238095Y-72907380D02*
X71571428Y-73907380D01*
X71571428Y-72907380D02*
X72238095Y-73907380D01*
X71142857Y-73907380D02*
X70952380Y-73907380D01*
X70857142Y-73859761D01*
X70809523Y-73812142D01*
X70714285Y-73669285D01*
X70666666Y-73478809D01*
X70666666Y-73097857D01*
X70714285Y-73002619D01*
X70761904Y-72955000D01*
X70857142Y-72907380D01*
X71047619Y-72907380D01*
X71142857Y-72955000D01*
X71190476Y-73002619D01*
X71238095Y-73097857D01*
X71238095Y-73335952D01*
X71190476Y-73431190D01*
X71142857Y-73478809D01*
X71047619Y-73526428D01*
X70857142Y-73526428D01*
X70761904Y-73478809D01*
X70714285Y-73431190D01*
X70666666Y-73335952D01*
%TO.C,MX10*%
X91761904Y-39907380D02*
X91761904Y-38907380D01*
X91428571Y-39621666D01*
X91095238Y-38907380D01*
X91095238Y-39907380D01*
X90714285Y-38907380D02*
X90047619Y-39907380D01*
X90047619Y-38907380D02*
X90714285Y-39907380D01*
X89142857Y-39907380D02*
X89714285Y-39907380D01*
X89428571Y-39907380D02*
X89428571Y-38907380D01*
X89523809Y-39050238D01*
X89619047Y-39145476D01*
X89714285Y-39193095D01*
X88523809Y-38907380D02*
X88428571Y-38907380D01*
X88333333Y-38955000D01*
X88285714Y-39002619D01*
X88238095Y-39097857D01*
X88190476Y-39288333D01*
X88190476Y-39526428D01*
X88238095Y-39716904D01*
X88285714Y-39812142D01*
X88333333Y-39859761D01*
X88428571Y-39907380D01*
X88523809Y-39907380D01*
X88619047Y-39859761D01*
X88666666Y-39812142D01*
X88714285Y-39716904D01*
X88761904Y-39526428D01*
X88761904Y-39288333D01*
X88714285Y-39097857D01*
X88666666Y-39002619D01*
X88619047Y-38955000D01*
X88523809Y-38907380D01*
%TO.C,MX11*%
X91761904Y-56907380D02*
X91761904Y-55907380D01*
X91428571Y-56621666D01*
X91095238Y-55907380D01*
X91095238Y-56907380D01*
X90714285Y-55907380D02*
X90047619Y-56907380D01*
X90047619Y-55907380D02*
X90714285Y-56907380D01*
X89142857Y-56907380D02*
X89714285Y-56907380D01*
X89428571Y-56907380D02*
X89428571Y-55907380D01*
X89523809Y-56050238D01*
X89619047Y-56145476D01*
X89714285Y-56193095D01*
X88190476Y-56907380D02*
X88761904Y-56907380D01*
X88476190Y-56907380D02*
X88476190Y-55907380D01*
X88571428Y-56050238D01*
X88666666Y-56145476D01*
X88761904Y-56193095D01*
%TO.C,MX12*%
X91761904Y-73907380D02*
X91761904Y-72907380D01*
X91428571Y-73621666D01*
X91095238Y-72907380D01*
X91095238Y-73907380D01*
X90714285Y-72907380D02*
X90047619Y-73907380D01*
X90047619Y-72907380D02*
X90714285Y-73907380D01*
X89142857Y-73907380D02*
X89714285Y-73907380D01*
X89428571Y-73907380D02*
X89428571Y-72907380D01*
X89523809Y-73050238D01*
X89619047Y-73145476D01*
X89714285Y-73193095D01*
X88761904Y-73002619D02*
X88714285Y-72955000D01*
X88619047Y-72907380D01*
X88380952Y-72907380D01*
X88285714Y-72955000D01*
X88238095Y-73002619D01*
X88190476Y-73097857D01*
X88190476Y-73193095D01*
X88238095Y-73335952D01*
X88809523Y-73907380D01*
X88190476Y-73907380D01*
%TO.C,MX13*%
X91761904Y-91907380D02*
X91761904Y-90907380D01*
X91428571Y-91621666D01*
X91095238Y-90907380D01*
X91095238Y-91907380D01*
X90714285Y-90907380D02*
X90047619Y-91907380D01*
X90047619Y-90907380D02*
X90714285Y-91907380D01*
X89142857Y-91907380D02*
X89714285Y-91907380D01*
X89428571Y-91907380D02*
X89428571Y-90907380D01*
X89523809Y-91050238D01*
X89619047Y-91145476D01*
X89714285Y-91193095D01*
X88809523Y-90907380D02*
X88190476Y-90907380D01*
X88523809Y-91288333D01*
X88380952Y-91288333D01*
X88285714Y-91335952D01*
X88238095Y-91383571D01*
X88190476Y-91478809D01*
X88190476Y-91716904D01*
X88238095Y-91812142D01*
X88285714Y-91859761D01*
X88380952Y-91907380D01*
X88666666Y-91907380D01*
X88761904Y-91859761D01*
X88809523Y-91812142D01*
%TO.C,MX14*%
X109761904Y-39907380D02*
X109761904Y-38907380D01*
X109428571Y-39621666D01*
X109095238Y-38907380D01*
X109095238Y-39907380D01*
X108714285Y-38907380D02*
X108047619Y-39907380D01*
X108047619Y-38907380D02*
X108714285Y-39907380D01*
X107142857Y-39907380D02*
X107714285Y-39907380D01*
X107428571Y-39907380D02*
X107428571Y-38907380D01*
X107523809Y-39050238D01*
X107619047Y-39145476D01*
X107714285Y-39193095D01*
X106285714Y-39240714D02*
X106285714Y-39907380D01*
X106523809Y-38859761D02*
X106761904Y-39574047D01*
X106142857Y-39574047D01*
%TO.C,MX15*%
X109761904Y-56907380D02*
X109761904Y-55907380D01*
X109428571Y-56621666D01*
X109095238Y-55907380D01*
X109095238Y-56907380D01*
X108714285Y-55907380D02*
X108047619Y-56907380D01*
X108047619Y-55907380D02*
X108714285Y-56907380D01*
X107142857Y-56907380D02*
X107714285Y-56907380D01*
X107428571Y-56907380D02*
X107428571Y-55907380D01*
X107523809Y-56050238D01*
X107619047Y-56145476D01*
X107714285Y-56193095D01*
X106238095Y-55907380D02*
X106714285Y-55907380D01*
X106761904Y-56383571D01*
X106714285Y-56335952D01*
X106619047Y-56288333D01*
X106380952Y-56288333D01*
X106285714Y-56335952D01*
X106238095Y-56383571D01*
X106190476Y-56478809D01*
X106190476Y-56716904D01*
X106238095Y-56812142D01*
X106285714Y-56859761D01*
X106380952Y-56907380D01*
X106619047Y-56907380D01*
X106714285Y-56859761D01*
X106761904Y-56812142D01*
%TO.C,MX16*%
X109761904Y-73907380D02*
X109761904Y-72907380D01*
X109428571Y-73621666D01*
X109095238Y-72907380D01*
X109095238Y-73907380D01*
X108714285Y-72907380D02*
X108047619Y-73907380D01*
X108047619Y-72907380D02*
X108714285Y-73907380D01*
X107142857Y-73907380D02*
X107714285Y-73907380D01*
X107428571Y-73907380D02*
X107428571Y-72907380D01*
X107523809Y-73050238D01*
X107619047Y-73145476D01*
X107714285Y-73193095D01*
X106285714Y-72907380D02*
X106476190Y-72907380D01*
X106571428Y-72955000D01*
X106619047Y-73002619D01*
X106714285Y-73145476D01*
X106761904Y-73335952D01*
X106761904Y-73716904D01*
X106714285Y-73812142D01*
X106666666Y-73859761D01*
X106571428Y-73907380D01*
X106380952Y-73907380D01*
X106285714Y-73859761D01*
X106238095Y-73812142D01*
X106190476Y-73716904D01*
X106190476Y-73478809D01*
X106238095Y-73383571D01*
X106285714Y-73335952D01*
X106380952Y-73288333D01*
X106571428Y-73288333D01*
X106666666Y-73335952D01*
X106714285Y-73383571D01*
X106761904Y-73478809D01*
%TO.C,MX17*%
X109761904Y-91907380D02*
X109761904Y-90907380D01*
X109428571Y-91621666D01*
X109095238Y-90907380D01*
X109095238Y-91907380D01*
X108714285Y-90907380D02*
X108047619Y-91907380D01*
X108047619Y-90907380D02*
X108714285Y-91907380D01*
X107142857Y-91907380D02*
X107714285Y-91907380D01*
X107428571Y-91907380D02*
X107428571Y-90907380D01*
X107523809Y-91050238D01*
X107619047Y-91145476D01*
X107714285Y-91193095D01*
X106809523Y-90907380D02*
X106142857Y-90907380D01*
X106571428Y-91907380D01*
%TO.C,U2*%
D16*
X27232666Y-84457166D02*
X27952333Y-84457166D01*
X28037000Y-84499500D01*
X28079333Y-84541833D01*
X28121666Y-84626500D01*
X28121666Y-84795833D01*
X28079333Y-84880500D01*
X28037000Y-84922833D01*
X27952333Y-84965166D01*
X27232666Y-84965166D01*
X27317333Y-85346166D02*
X27275000Y-85388500D01*
X27232666Y-85473166D01*
X27232666Y-85684833D01*
X27275000Y-85769500D01*
X27317333Y-85811833D01*
X27402000Y-85854166D01*
X27486666Y-85854166D01*
X27613666Y-85811833D01*
X28121666Y-85303833D01*
X28121666Y-85854166D01*
D17*
X38951742Y-81467828D02*
X38980771Y-81554914D01*
X38980771Y-81700057D01*
X38951742Y-81758114D01*
X38922714Y-81787142D01*
X38864657Y-81816171D01*
X38806600Y-81816171D01*
X38748542Y-81787142D01*
X38719514Y-81758114D01*
X38690485Y-81700057D01*
X38661457Y-81583942D01*
X38632428Y-81525885D01*
X38603400Y-81496857D01*
X38545342Y-81467828D01*
X38487285Y-81467828D01*
X38429228Y-81496857D01*
X38400200Y-81525885D01*
X38371171Y-81583942D01*
X38371171Y-81729085D01*
X38400200Y-81816171D01*
X38951742Y-82309657D02*
X38980771Y-82251600D01*
X38980771Y-82135485D01*
X38951742Y-82077428D01*
X38893685Y-82048400D01*
X38661457Y-82048400D01*
X38603400Y-82077428D01*
X38574371Y-82135485D01*
X38574371Y-82251600D01*
X38603400Y-82309657D01*
X38661457Y-82338685D01*
X38719514Y-82338685D01*
X38777571Y-82048400D01*
X38951742Y-82832171D02*
X38980771Y-82774114D01*
X38980771Y-82658000D01*
X38951742Y-82599942D01*
X38893685Y-82570914D01*
X38661457Y-82570914D01*
X38603400Y-82599942D01*
X38574371Y-82658000D01*
X38574371Y-82774114D01*
X38603400Y-82832171D01*
X38661457Y-82861200D01*
X38719514Y-82861200D01*
X38777571Y-82570914D01*
X38951742Y-83354685D02*
X38980771Y-83296628D01*
X38980771Y-83180514D01*
X38951742Y-83122457D01*
X38893685Y-83093428D01*
X38661457Y-83093428D01*
X38603400Y-83122457D01*
X38574371Y-83180514D01*
X38574371Y-83296628D01*
X38603400Y-83354685D01*
X38661457Y-83383714D01*
X38719514Y-83383714D01*
X38777571Y-83093428D01*
X38980771Y-83906228D02*
X38371171Y-83906228D01*
X38951742Y-83906228D02*
X38980771Y-83848171D01*
X38980771Y-83732057D01*
X38951742Y-83674000D01*
X38922714Y-83644971D01*
X38864657Y-83615942D01*
X38690485Y-83615942D01*
X38632428Y-83644971D01*
X38603400Y-83674000D01*
X38574371Y-83732057D01*
X38574371Y-83848171D01*
X38603400Y-83906228D01*
X38574371Y-84457771D02*
X38980771Y-84457771D01*
X38574371Y-84196514D02*
X38893685Y-84196514D01*
X38951742Y-84225542D01*
X38980771Y-84283600D01*
X38980771Y-84370685D01*
X38951742Y-84428742D01*
X38922714Y-84457771D01*
X38980771Y-84748057D02*
X38574371Y-84748057D01*
X38371171Y-84748057D02*
X38400200Y-84719028D01*
X38429228Y-84748057D01*
X38400200Y-84777085D01*
X38371171Y-84748057D01*
X38429228Y-84748057D01*
X38574371Y-85038342D02*
X38980771Y-85038342D01*
X38632428Y-85038342D02*
X38603400Y-85067371D01*
X38574371Y-85125428D01*
X38574371Y-85212514D01*
X38603400Y-85270571D01*
X38661457Y-85299600D01*
X38980771Y-85299600D01*
X38980771Y-85676971D02*
X38951742Y-85618914D01*
X38922714Y-85589885D01*
X38864657Y-85560857D01*
X38690485Y-85560857D01*
X38632428Y-85589885D01*
X38603400Y-85618914D01*
X38574371Y-85676971D01*
X38574371Y-85764057D01*
X38603400Y-85822114D01*
X38632428Y-85851142D01*
X38690485Y-85880171D01*
X38864657Y-85880171D01*
X38922714Y-85851142D01*
X38951742Y-85822114D01*
X38980771Y-85764057D01*
X38980771Y-85676971D01*
X38371171Y-86083371D02*
X38980771Y-86489771D01*
X38371171Y-86489771D02*
X38980771Y-86083371D01*
X38980771Y-86722000D02*
X38371171Y-86722000D01*
X38806600Y-86983257D02*
X38806600Y-87273542D01*
X38980771Y-86925200D02*
X38371171Y-87128400D01*
X38980771Y-87331600D01*
X38371171Y-87650914D02*
X38371171Y-87767028D01*
X38400200Y-87825085D01*
X38458257Y-87883142D01*
X38574371Y-87912171D01*
X38777571Y-87912171D01*
X38893685Y-87883142D01*
X38951742Y-87825085D01*
X38980771Y-87767028D01*
X38980771Y-87650914D01*
X38951742Y-87592857D01*
X38893685Y-87534800D01*
X38777571Y-87505771D01*
X38574371Y-87505771D01*
X38458257Y-87534800D01*
X38400200Y-87592857D01*
X38371171Y-87650914D01*
%TO.C,MX2*%
D10*
X37285714Y-59707380D02*
X37285714Y-58707380D01*
X36952380Y-59421666D01*
X36619047Y-58707380D01*
X36619047Y-59707380D01*
X36238095Y-58707380D02*
X35571428Y-59707380D01*
X35571428Y-58707380D02*
X36238095Y-59707380D01*
X35238095Y-58802619D02*
X35190476Y-58755000D01*
X35095238Y-58707380D01*
X34857142Y-58707380D01*
X34761904Y-58755000D01*
X34714285Y-58802619D01*
X34666666Y-58897857D01*
X34666666Y-58993095D01*
X34714285Y-59135952D01*
X35285714Y-59707380D01*
X34666666Y-59707380D01*
%TO.C,BT2*%
X66785714Y-72628571D02*
X66642857Y-72676190D01*
X66595238Y-72723809D01*
X66547619Y-72819047D01*
X66547619Y-72961904D01*
X66595238Y-73057142D01*
X66642857Y-73104761D01*
X66738095Y-73152380D01*
X67119047Y-73152380D01*
X67119047Y-72152380D01*
X66785714Y-72152380D01*
X66690476Y-72200000D01*
X66642857Y-72247619D01*
X66595238Y-72342857D01*
X66595238Y-72438095D01*
X66642857Y-72533333D01*
X66690476Y-72580952D01*
X66785714Y-72628571D01*
X67119047Y-72628571D01*
X66261904Y-72152380D02*
X65690476Y-72152380D01*
X65976190Y-73152380D02*
X65976190Y-72152380D01*
X65404761Y-72247619D02*
X65357142Y-72200000D01*
X65261904Y-72152380D01*
X65023809Y-72152380D01*
X64928571Y-72200000D01*
X64880952Y-72247619D01*
X64833333Y-72342857D01*
X64833333Y-72438095D01*
X64880952Y-72580952D01*
X65452380Y-73152380D01*
X64833333Y-73152380D01*
%TD*%
M02*
