%TF.GenerationSoftware,KiCad,Pcbnew,(5.1.12)-1*%
%TF.CreationDate,2021-12-05T03:49:59-08:00*%
%TF.ProjectId,orthodox_v3,6f727468-6f64-46f7-985f-76332e6b6963,rev?*%
%TF.SameCoordinates,Original*%
%TF.FileFunction,Soldermask,Top*%
%TF.FilePolarity,Negative*%
%FSLAX46Y46*%
G04 Gerber Fmt 4.6, Leading zero omitted, Abs format (unit mm)*
G04 Created by KiCad (PCBNEW (5.1.12)-1) date 2021-12-05 03:49:59*
%MOMM*%
%LPD*%
G01*
G04 APERTURE LIST*
%ADD10O,1.998980X2.748280*%
%ADD11O,2.032000X1.016000*%
%ADD12C,1.143000*%
%ADD13C,1.701800*%
%ADD14C,0.990600*%
%ADD15C,2.032000*%
%ADD16C,3.429000*%
%ADD17R,1.270000X5.080000*%
%ADD18C,17.800000*%
%ADD19C,1.651000*%
%ADD20R,1.651000X1.651000*%
G04 APERTURE END LIST*
%TO.C,BAT+*%
G36*
G01*
X38923050Y-81276300D02*
X38476950Y-81276300D01*
G75*
G02*
X38253900Y-81053250I0J223050D01*
G01*
X38253900Y-79546750D01*
G75*
G02*
X38476950Y-79323700I223050J0D01*
G01*
X38923050Y-79323700D01*
G75*
G02*
X39146100Y-79546750I0J-223050D01*
G01*
X39146100Y-81053250D01*
G75*
G02*
X38923050Y-81276300I-223050J0D01*
G01*
G37*
%TD*%
%TO.C,BAT-*%
G36*
G01*
X37196880Y-81276300D02*
X36403120Y-81276300D01*
G75*
G02*
X36303900Y-81177080I0J99220D01*
G01*
X36303900Y-79422920D01*
G75*
G02*
X36403120Y-79323700I99220J0D01*
G01*
X37196880Y-79323700D01*
G75*
G02*
X37296100Y-79422920I0J-99220D01*
G01*
X37296100Y-81177080D01*
G75*
G02*
X37196880Y-81276300I-99220J0D01*
G01*
G37*
%TD*%
%TO.C,BAT+*%
G36*
G01*
X38476950Y-88123700D02*
X38923050Y-88123700D01*
G75*
G02*
X39146100Y-88346750I0J-223050D01*
G01*
X39146100Y-89853250D01*
G75*
G02*
X38923050Y-90076300I-223050J0D01*
G01*
X38476950Y-90076300D01*
G75*
G02*
X38253900Y-89853250I0J223050D01*
G01*
X38253900Y-88346750D01*
G75*
G02*
X38476950Y-88123700I223050J0D01*
G01*
G37*
%TD*%
%TO.C,BAT-*%
G36*
G01*
X36403120Y-88123700D02*
X37196880Y-88123700D01*
G75*
G02*
X37296100Y-88222920I0J-99220D01*
G01*
X37296100Y-89977080D01*
G75*
G02*
X37196880Y-90076300I-99220J0D01*
G01*
X36403120Y-90076300D01*
G75*
G02*
X36303900Y-89977080I0J99220D01*
G01*
X36303900Y-88222920D01*
G75*
G02*
X36403120Y-88123700I99220J0D01*
G01*
G37*
%TD*%
D10*
%TO.C,U1*%
X31382180Y-76602320D03*
X33922180Y-76602320D03*
X36462180Y-76602320D03*
X39002180Y-76602320D03*
X41542180Y-76602320D03*
X44082180Y-76602320D03*
X46622180Y-76602320D03*
X46622180Y-92766880D03*
X44082180Y-92766880D03*
X41542180Y-92766880D03*
X39002180Y-92766880D03*
X36462180Y-92766880D03*
X33922180Y-92766880D03*
X31382180Y-92766880D03*
D11*
X47700000Y-85900000D03*
X47700000Y-83350000D03*
D12*
X30695813Y-85901197D03*
X30695813Y-83361197D03*
X33235813Y-85901197D03*
X33235813Y-83361197D03*
%TD*%
D13*
%TO.C,MX6*%
X59500000Y-68000000D03*
X48500000Y-68000000D03*
D14*
X48780000Y-72200000D03*
D15*
X54000000Y-62100000D03*
X59000000Y-64200000D03*
D16*
X54000000Y-68000000D03*
D15*
X49000000Y-64200000D03*
D14*
X59220000Y-72200000D03*
%TD*%
%TO.C,MX1*%
X41220000Y-38200000D03*
D15*
X31000000Y-30200000D03*
D16*
X36000000Y-34000000D03*
D15*
X41000000Y-30200000D03*
X36000000Y-28100000D03*
D14*
X30780000Y-38200000D03*
D13*
X30500000Y-34000000D03*
X41500000Y-34000000D03*
%TD*%
%TO.C,MX3*%
X41500000Y-68000000D03*
X30500000Y-68000000D03*
D14*
X30780000Y-72200000D03*
D15*
X36000000Y-62100000D03*
X41000000Y-64200000D03*
D16*
X36000000Y-68000000D03*
D15*
X31000000Y-64200000D03*
D14*
X41220000Y-72200000D03*
%TD*%
D13*
%TO.C,MX4*%
X59500000Y-34000000D03*
X48500000Y-34000000D03*
D14*
X48780000Y-38200000D03*
D15*
X54000000Y-28100000D03*
X59000000Y-30200000D03*
D16*
X54000000Y-34000000D03*
D15*
X49000000Y-30200000D03*
D14*
X59220000Y-38200000D03*
%TD*%
%TO.C,MX5*%
X59220000Y-55200000D03*
D15*
X49000000Y-47200000D03*
D16*
X54000000Y-51000000D03*
D15*
X59000000Y-47200000D03*
X54000000Y-45100000D03*
D14*
X48780000Y-55200000D03*
D13*
X48500000Y-51000000D03*
X59500000Y-51000000D03*
%TD*%
%TO.C,MX7*%
X77500000Y-34000000D03*
X66500000Y-34000000D03*
D14*
X66780000Y-38200000D03*
D15*
X72000000Y-28100000D03*
X77000000Y-30200000D03*
D16*
X72000000Y-34000000D03*
D15*
X67000000Y-30200000D03*
D14*
X77220000Y-38200000D03*
%TD*%
D13*
%TO.C,MX8*%
X77500000Y-51000000D03*
X66500000Y-51000000D03*
D14*
X66780000Y-55200000D03*
D15*
X72000000Y-45100000D03*
X77000000Y-47200000D03*
D16*
X72000000Y-51000000D03*
D15*
X67000000Y-47200000D03*
D14*
X77220000Y-55200000D03*
%TD*%
D13*
%TO.C,MX9*%
X77500000Y-68000000D03*
X66500000Y-68000000D03*
D14*
X66780000Y-72200000D03*
D15*
X72000000Y-62100000D03*
X77000000Y-64200000D03*
D16*
X72000000Y-68000000D03*
D15*
X67000000Y-64200000D03*
D14*
X77220000Y-72200000D03*
%TD*%
D13*
%TO.C,MX10*%
X95500000Y-34000000D03*
X84500000Y-34000000D03*
D14*
X84780000Y-38200000D03*
D15*
X90000000Y-28100000D03*
X95000000Y-30200000D03*
D16*
X90000000Y-34000000D03*
D15*
X85000000Y-30200000D03*
D14*
X95220000Y-38200000D03*
%TD*%
%TO.C,MX11*%
X95220000Y-55200000D03*
D15*
X85000000Y-47200000D03*
D16*
X90000000Y-51000000D03*
D15*
X95000000Y-47200000D03*
X90000000Y-45100000D03*
D14*
X84780000Y-55200000D03*
D13*
X84500000Y-51000000D03*
X95500000Y-51000000D03*
%TD*%
%TO.C,MX12*%
X95500000Y-68000000D03*
X84500000Y-68000000D03*
D14*
X84780000Y-72200000D03*
D15*
X90000000Y-62100000D03*
X95000000Y-64200000D03*
D16*
X90000000Y-68000000D03*
D15*
X85000000Y-64200000D03*
D14*
X95220000Y-72200000D03*
%TD*%
%TO.C,MX13*%
X95220000Y-90200000D03*
D15*
X85000000Y-82200000D03*
D16*
X90000000Y-86000000D03*
D15*
X95000000Y-82200000D03*
X90000000Y-80100000D03*
D14*
X84780000Y-90200000D03*
D13*
X84500000Y-86000000D03*
X95500000Y-86000000D03*
%TD*%
D14*
%TO.C,MX14*%
X113220000Y-38200000D03*
D15*
X103000000Y-30200000D03*
D16*
X108000000Y-34000000D03*
D15*
X113000000Y-30200000D03*
X108000000Y-28100000D03*
D14*
X102780000Y-38200000D03*
D13*
X102500000Y-34000000D03*
X113500000Y-34000000D03*
%TD*%
%TO.C,MX15*%
X113500000Y-51000000D03*
X102500000Y-51000000D03*
D14*
X102780000Y-55200000D03*
D15*
X108000000Y-45100000D03*
X113000000Y-47200000D03*
D16*
X108000000Y-51000000D03*
D15*
X103000000Y-47200000D03*
D14*
X113220000Y-55200000D03*
%TD*%
%TO.C,MX16*%
X113220000Y-72200000D03*
D15*
X103000000Y-64200000D03*
D16*
X108000000Y-68000000D03*
D15*
X113000000Y-64200000D03*
X108000000Y-62100000D03*
D14*
X102780000Y-72200000D03*
D13*
X102500000Y-68000000D03*
X113500000Y-68000000D03*
%TD*%
%TO.C,MX17*%
X113500000Y-86000000D03*
X102500000Y-86000000D03*
D14*
X102780000Y-90200000D03*
D15*
X108000000Y-80100000D03*
X113000000Y-82200000D03*
D16*
X108000000Y-86000000D03*
D15*
X103000000Y-82200000D03*
D14*
X113220000Y-90200000D03*
%TD*%
%TO.C,MX2*%
X41220000Y-55200000D03*
D15*
X31000000Y-47200000D03*
D16*
X36000000Y-51000000D03*
D15*
X41000000Y-47200000D03*
X36000000Y-45100000D03*
D14*
X30780000Y-55200000D03*
D13*
X30500000Y-51000000D03*
X41500000Y-51000000D03*
%TD*%
D17*
%TO.C,BT1*%
X55015000Y-84200000D03*
X76985000Y-84200000D03*
D18*
X66000000Y-84200000D03*
%TD*%
D19*
%TO.C,D1*%
X45000000Y-37810000D03*
D20*
X45000000Y-30190000D03*
%TD*%
D19*
%TO.C,D2*%
X45000000Y-54810000D03*
D20*
X45000000Y-47190000D03*
%TD*%
D19*
%TO.C,D3*%
X45000000Y-71810000D03*
D20*
X45000000Y-64190000D03*
%TD*%
D19*
%TO.C,D4*%
X63000000Y-37810000D03*
D20*
X63000000Y-30190000D03*
%TD*%
D19*
%TO.C,D5*%
X63000000Y-54810000D03*
D20*
X63000000Y-47190000D03*
%TD*%
%TO.C,D6*%
X63000000Y-64190000D03*
D19*
X63000000Y-71810000D03*
%TD*%
D20*
%TO.C,D7*%
X81000000Y-30190000D03*
D19*
X81000000Y-37810000D03*
%TD*%
%TO.C,D8*%
X81000000Y-54810000D03*
D20*
X81000000Y-47190000D03*
%TD*%
D19*
%TO.C,D9*%
X81000000Y-71810000D03*
D20*
X81000000Y-64190000D03*
%TD*%
D19*
%TO.C,D10*%
X99000000Y-37910000D03*
D20*
X99000000Y-30290000D03*
%TD*%
%TO.C,D11*%
X99000000Y-47190000D03*
D19*
X99000000Y-54810000D03*
%TD*%
D20*
%TO.C,D12*%
X99000000Y-64190000D03*
D19*
X99000000Y-71810000D03*
%TD*%
D20*
%TO.C,D13*%
X86190000Y-77000000D03*
D19*
X93810000Y-77000000D03*
%TD*%
D20*
%TO.C,D14*%
X111810000Y-42500000D03*
D19*
X104190000Y-42500000D03*
%TD*%
%TO.C,D15*%
X104151000Y-59500000D03*
D20*
X111771000Y-59500000D03*
%TD*%
%TO.C,D16*%
X111810000Y-77000000D03*
D19*
X104190000Y-77000000D03*
%TD*%
%TO.C,D17*%
X99000000Y-74580000D03*
D20*
X99000000Y-82200000D03*
%TD*%
M02*
