M48
; DRILL file {KiCad (5.1.12)-1} date 12/05/21 03:50:04
; FORMAT={-:-/ absolute / inch / decimal}
; #@! TF.CreationDate,2021-12-05T03:50:04-08:00
; #@! TF.GenerationSoftware,Kicad,Pcbnew,(5.1.12)-1
; #@! TF.FileFunction,Plated,1,2,PTH
FMAT,2
INCH
T1C0.0157
T2C0.0273
T3C0.0390
T4C0.0500
%
G90
G05
T1
X1.2598Y-3.3346
X1.3346Y-3.3346
X1.3898Y-3.3346
X1.4882Y-3.3346
X1.5827Y-3.5906
X1.622Y-3.5748
X1.6535Y-3.0945
X1.685Y-3.5748
X1.7165Y-3.0945
X1.748Y-3.5748
X1.7874Y-3.0945
X1.878Y-3.3346
X1.878Y-3.4314
T2
X1.4488Y-3.1614
X1.4488Y-3.5079
X1.5236Y-3.1614
X1.5236Y-3.5079
T3
X1.7717Y-1.1886
X1.7717Y-1.4886
X1.7717Y-1.8579
X1.7717Y-2.1579
X1.7717Y-2.5272
X1.7717Y-2.8272
X2.4803Y-1.1886
X2.4803Y-1.4886
X2.4803Y-1.8579
X2.4803Y-2.1579
X2.4803Y-2.5272
X2.4803Y-2.8272
X3.189Y-1.1886
X3.189Y-1.4886
X3.189Y-1.8579
X3.189Y-2.1579
X3.189Y-2.5272
X3.189Y-2.8272
X3.3933Y-3.0315
X3.6933Y-3.0315
X3.8976Y-1.1925
X3.8976Y-1.4925
X3.8976Y-1.8579
X3.8976Y-2.1579
X3.8976Y-2.5272
X3.8976Y-2.8272
X3.8976Y-2.9362
X3.8976Y-3.2362
X4.1004Y-2.3425
X4.102Y-1.6732
X4.102Y-3.0315
X4.4004Y-2.3425
X4.402Y-1.6732
X4.402Y-3.0315
T4
X1.2205Y-1.189
X1.2205Y-1.8583
X1.2205Y-2.5276
X1.4173Y-1.1063
X1.4173Y-1.7756
X1.4173Y-2.4449
X1.6142Y-1.189
X1.6142Y-1.8583
X1.6142Y-2.5276
X1.9291Y-1.189
X1.9291Y-1.8583
X1.9291Y-2.5276
X2.126Y-1.1063
X2.126Y-1.7756
X2.126Y-2.4449
X2.3228Y-1.189
X2.3228Y-1.8583
X2.3228Y-2.5276
X2.6378Y-1.189
X2.6378Y-1.8583
X2.6378Y-2.5276
X2.8346Y-1.1063
X2.8346Y-1.7756
X2.8346Y-2.4449
X3.0315Y-1.189
X3.0315Y-1.8583
X3.0315Y-2.5276
X3.3465Y-1.189
X3.3465Y-1.8583
X3.3465Y-2.5276
X3.3465Y-3.2362
X3.5433Y-1.1063
X3.5433Y-1.7756
X3.5433Y-2.4449
X3.5433Y-3.1535
X3.7402Y-1.189
X3.7402Y-1.8583
X3.7402Y-2.5276
X3.7402Y-3.2362
X4.0551Y-1.189
X4.0551Y-1.8583
X4.0551Y-2.5276
X4.0551Y-3.2362
X4.252Y-1.1063
X4.252Y-1.7756
X4.252Y-2.4449
X4.252Y-3.1535
X4.4488Y-1.189
X4.4488Y-1.8583
X4.4488Y-2.5276
X4.4488Y-3.2362
T0
M30
