M48
; DRILL file {KiCad (5.1.12)-1} date 11/19/21 00:53:16
; FORMAT={-:-/ absolute / inch / decimal}
; #@! TF.CreationDate,2021-11-19T00:53:16-08:00
; #@! TF.GenerationSoftware,Kicad,Pcbnew,(5.1.12)-1
; #@! TF.FileFunction,NonPlated,1,2,NPTH
FMAT,2
INCH
T1C0.0315
T2C0.0390
T3C0.0670
T4C0.1350
%
G90
G05
T1
X3.5441Y-3.4333
X3.5441Y-3.7089
X3.5443Y-3.4333
X3.5443Y-3.7089
T2
X1.9205Y-1.5039
X1.9205Y-2.1732
X1.9205Y-2.8425
X2.3315Y-1.5039
X2.3315Y-2.1732
X2.3315Y-2.8425
X2.6291Y-1.5039
X2.6291Y-2.1732
X2.6291Y-2.8425
X3.0402Y-1.5039
X3.0402Y-2.1732
X3.0402Y-2.8425
X3.3378Y-1.5039
X3.3378Y-2.1732
X3.3378Y-2.8425
X3.7488Y-1.5039
X3.7488Y-2.1732
X3.7488Y-2.8425
X4.0465Y-1.5039
X4.0465Y-2.1732
X4.0465Y-2.8425
X4.0465Y-3.6004
X4.4575Y-1.5039
X4.4575Y-2.1732
X4.4575Y-2.8425
X4.4575Y-3.6004
X4.7551Y-1.5039
X4.7551Y-2.1732
X4.7551Y-2.8425
X4.7551Y-3.6004
X5.1661Y-1.5039
X5.1661Y-2.1732
X5.1661Y-2.8425
X5.1661Y-3.6004
T3
X1.9094Y-1.3386
X1.9094Y-2.0079
X1.9094Y-2.6772
X2.3425Y-1.3386
X2.3425Y-2.0079
X2.3425Y-2.6772
X2.6181Y-1.3386
X2.6181Y-2.0079
X2.6181Y-2.6772
X3.0512Y-1.3386
X3.0512Y-2.0079
X3.0512Y-2.6772
X3.3268Y-1.3386
X3.3268Y-2.0079
X3.3268Y-2.6772
X3.7598Y-1.3386
X3.7598Y-2.0079
X3.7598Y-2.6772
X4.0354Y-1.3386
X4.0354Y-2.0079
X4.0354Y-2.6772
X4.0354Y-3.435
X4.4685Y-1.3386
X4.4685Y-2.0079
X4.4685Y-2.6772
X4.4685Y-3.435
X4.7441Y-1.3386
X4.7441Y-2.0079
X4.7441Y-2.6772
X4.7441Y-3.435
X5.1772Y-1.3386
X5.1772Y-2.0079
X5.1772Y-2.6772
X5.1772Y-3.435
T4
X2.126Y-1.3386
X2.126Y-2.0079
X2.126Y-2.6772
X2.8346Y-1.3386
X2.8346Y-2.0079
X2.8346Y-2.6772
X3.5433Y-1.3386
X3.5433Y-2.0079
X3.5433Y-2.6772
X4.252Y-1.3386
X4.252Y-2.0079
X4.252Y-2.6772
X4.252Y-3.435
X4.9606Y-1.3386
X4.9606Y-2.0079
X4.9606Y-2.6772
X4.9606Y-3.435
T0
M30
