%TF.GenerationSoftware,KiCad,Pcbnew,(5.1.12)-1*%
%TF.CreationDate,2021-11-19T00:53:14-08:00*%
%TF.ProjectId,orthodox,6f727468-6f64-46f7-982e-6b696361645f,rev?*%
%TF.SameCoordinates,Original*%
%TF.FileFunction,Legend,Top*%
%TF.FilePolarity,Positive*%
%FSLAX46Y46*%
G04 Gerber Fmt 4.6, Leading zero omitted, Abs format (unit mm)*
G04 Created by KiCad (PCBNEW (5.1.12)-1) date 2021-11-19 00:53:14*
%MOMM*%
%LPD*%
G01*
G04 APERTURE LIST*
%ADD10C,0.037500*%
%ADD11C,0.150000*%
%ADD12C,0.125000*%
G04 APERTURE END LIST*
D10*
X56567676Y-88799214D02*
X56567676Y-89013500D01*
X56543866Y-89056357D01*
X56496247Y-89084928D01*
X56424819Y-89099214D01*
X56377200Y-89099214D01*
X57043866Y-89099214D02*
X56805771Y-89099214D01*
X56805771Y-88799214D01*
X57496247Y-89070642D02*
X57472438Y-89084928D01*
X57401009Y-89099214D01*
X57353390Y-89099214D01*
X57281961Y-89084928D01*
X57234342Y-89056357D01*
X57210533Y-89027785D01*
X57186723Y-88970642D01*
X57186723Y-88927785D01*
X57210533Y-88870642D01*
X57234342Y-88842071D01*
X57281961Y-88813500D01*
X57353390Y-88799214D01*
X57401009Y-88799214D01*
X57472438Y-88813500D01*
X57496247Y-88827785D01*
X57853390Y-88799214D02*
X57853390Y-89013500D01*
X57829580Y-89056357D01*
X57781961Y-89084928D01*
X57710533Y-89099214D01*
X57662914Y-89099214D01*
X58329580Y-89099214D02*
X58091485Y-89099214D01*
X58091485Y-88799214D01*
X58781961Y-89070642D02*
X58758152Y-89084928D01*
X58686723Y-89099214D01*
X58639104Y-89099214D01*
X58567676Y-89084928D01*
X58520057Y-89056357D01*
X58496247Y-89027785D01*
X58472438Y-88970642D01*
X58472438Y-88927785D01*
X58496247Y-88870642D01*
X58520057Y-88842071D01*
X58567676Y-88813500D01*
X58639104Y-88799214D01*
X58686723Y-88799214D01*
X58758152Y-88813500D01*
X58781961Y-88827785D01*
X59139104Y-88799214D02*
X59139104Y-89013500D01*
X59115295Y-89056357D01*
X59067676Y-89084928D01*
X58996247Y-89099214D01*
X58948628Y-89099214D01*
X59615295Y-89099214D02*
X59377200Y-89099214D01*
X59377200Y-88799214D01*
X60067676Y-89070642D02*
X60043866Y-89084928D01*
X59972438Y-89099214D01*
X59924819Y-89099214D01*
X59853390Y-89084928D01*
X59805771Y-89056357D01*
X59781961Y-89027785D01*
X59758152Y-88970642D01*
X59758152Y-88927785D01*
X59781961Y-88870642D01*
X59805771Y-88842071D01*
X59853390Y-88813500D01*
X59924819Y-88799214D01*
X59972438Y-88799214D01*
X60043866Y-88813500D01*
X60067676Y-88827785D01*
X60424819Y-88799214D02*
X60424819Y-89013500D01*
X60401009Y-89056357D01*
X60353390Y-89084928D01*
X60281961Y-89099214D01*
X60234342Y-89099214D01*
X60901009Y-89099214D02*
X60662914Y-89099214D01*
X60662914Y-88799214D01*
X61353390Y-89070642D02*
X61329580Y-89084928D01*
X61258152Y-89099214D01*
X61210533Y-89099214D01*
X61139104Y-89084928D01*
X61091485Y-89056357D01*
X61067676Y-89027785D01*
X61043866Y-88970642D01*
X61043866Y-88927785D01*
X61067676Y-88870642D01*
X61091485Y-88842071D01*
X61139104Y-88813500D01*
X61210533Y-88799214D01*
X61258152Y-88799214D01*
X61329580Y-88813500D01*
X61353390Y-88827785D01*
D11*
%TO.C,MX6*%
X66000000Y-75000000D02*
X65000000Y-75000000D01*
X65000000Y-75000000D02*
X65000000Y-74000000D01*
X65000000Y-62000000D02*
X65000000Y-61000000D01*
X65000000Y-61000000D02*
X66000000Y-61000000D01*
X78000000Y-61000000D02*
X79000000Y-61000000D01*
X79000000Y-61000000D02*
X79000000Y-62000000D01*
X79000000Y-74000000D02*
X79000000Y-75000000D01*
X79000000Y-75000000D02*
X78000000Y-75000000D01*
%TO.C,U2*%
X86970000Y-95805000D02*
X93070000Y-95805000D01*
X86970000Y-83705000D02*
X93070000Y-83705000D01*
X86970000Y-95805000D02*
X86970000Y-83705000D01*
X93070000Y-95805000D02*
X93070000Y-83705000D01*
X87220000Y-95805000D02*
X87220000Y-97805000D01*
X92820000Y-95805000D02*
X92820000Y-97805000D01*
X87220000Y-97805000D02*
X92820000Y-97805000D01*
%TO.C,MX1*%
X61000000Y-41000000D02*
X60000000Y-41000000D01*
X61000000Y-40000000D02*
X61000000Y-41000000D01*
X61000000Y-27000000D02*
X61000000Y-28000000D01*
X60000000Y-27000000D02*
X61000000Y-27000000D01*
X47000000Y-27000000D02*
X48000000Y-27000000D01*
X47000000Y-28000000D02*
X47000000Y-27000000D01*
X47000000Y-41000000D02*
X47000000Y-40000000D01*
X48000000Y-41000000D02*
X47000000Y-41000000D01*
%TO.C,MX2*%
X48000000Y-58000000D02*
X47000000Y-58000000D01*
X47000000Y-58000000D02*
X47000000Y-57000000D01*
X47000000Y-45000000D02*
X47000000Y-44000000D01*
X47000000Y-44000000D02*
X48000000Y-44000000D01*
X60000000Y-44000000D02*
X61000000Y-44000000D01*
X61000000Y-44000000D02*
X61000000Y-45000000D01*
X61000000Y-57000000D02*
X61000000Y-58000000D01*
X61000000Y-58000000D02*
X60000000Y-58000000D01*
%TO.C,MX3*%
X48000000Y-75000000D02*
X47000000Y-75000000D01*
X47000000Y-75000000D02*
X47000000Y-74000000D01*
X47000000Y-62000000D02*
X47000000Y-61000000D01*
X47000000Y-61000000D02*
X48000000Y-61000000D01*
X60000000Y-61000000D02*
X61000000Y-61000000D01*
X61000000Y-61000000D02*
X61000000Y-62000000D01*
X61000000Y-74000000D02*
X61000000Y-75000000D01*
X61000000Y-75000000D02*
X60000000Y-75000000D01*
%TO.C,MX4*%
X66000000Y-41000000D02*
X65000000Y-41000000D01*
X65000000Y-41000000D02*
X65000000Y-40000000D01*
X65000000Y-28000000D02*
X65000000Y-27000000D01*
X65000000Y-27000000D02*
X66000000Y-27000000D01*
X78000000Y-27000000D02*
X79000000Y-27000000D01*
X79000000Y-27000000D02*
X79000000Y-28000000D01*
X79000000Y-40000000D02*
X79000000Y-41000000D01*
X79000000Y-41000000D02*
X78000000Y-41000000D01*
%TO.C,MX5*%
X79000000Y-58000000D02*
X78000000Y-58000000D01*
X79000000Y-57000000D02*
X79000000Y-58000000D01*
X79000000Y-44000000D02*
X79000000Y-45000000D01*
X78000000Y-44000000D02*
X79000000Y-44000000D01*
X65000000Y-44000000D02*
X66000000Y-44000000D01*
X65000000Y-45000000D02*
X65000000Y-44000000D01*
X65000000Y-58000000D02*
X65000000Y-57000000D01*
X66000000Y-58000000D02*
X65000000Y-58000000D01*
%TO.C,MX7*%
X97000000Y-41000000D02*
X96000000Y-41000000D01*
X97000000Y-40000000D02*
X97000000Y-41000000D01*
X97000000Y-27000000D02*
X97000000Y-28000000D01*
X96000000Y-27000000D02*
X97000000Y-27000000D01*
X83000000Y-27000000D02*
X84000000Y-27000000D01*
X83000000Y-28000000D02*
X83000000Y-27000000D01*
X83000000Y-41000000D02*
X83000000Y-40000000D01*
X84000000Y-41000000D02*
X83000000Y-41000000D01*
%TO.C,MX8*%
X84000000Y-58000000D02*
X83000000Y-58000000D01*
X83000000Y-58000000D02*
X83000000Y-57000000D01*
X83000000Y-45000000D02*
X83000000Y-44000000D01*
X83000000Y-44000000D02*
X84000000Y-44000000D01*
X96000000Y-44000000D02*
X97000000Y-44000000D01*
X97000000Y-44000000D02*
X97000000Y-45000000D01*
X97000000Y-57000000D02*
X97000000Y-58000000D01*
X97000000Y-58000000D02*
X96000000Y-58000000D01*
%TO.C,MX9*%
X84000000Y-75000000D02*
X83000000Y-75000000D01*
X83000000Y-75000000D02*
X83000000Y-74000000D01*
X83000000Y-62000000D02*
X83000000Y-61000000D01*
X83000000Y-61000000D02*
X84000000Y-61000000D01*
X96000000Y-61000000D02*
X97000000Y-61000000D01*
X97000000Y-61000000D02*
X97000000Y-62000000D01*
X97000000Y-74000000D02*
X97000000Y-75000000D01*
X97000000Y-75000000D02*
X96000000Y-75000000D01*
%TO.C,MX10*%
X102000000Y-41000000D02*
X101000000Y-41000000D01*
X101000000Y-41000000D02*
X101000000Y-40000000D01*
X101000000Y-28000000D02*
X101000000Y-27000000D01*
X101000000Y-27000000D02*
X102000000Y-27000000D01*
X114000000Y-27000000D02*
X115000000Y-27000000D01*
X115000000Y-27000000D02*
X115000000Y-28000000D01*
X115000000Y-40000000D02*
X115000000Y-41000000D01*
X115000000Y-41000000D02*
X114000000Y-41000000D01*
%TO.C,MX11*%
X115000000Y-58000000D02*
X114000000Y-58000000D01*
X115000000Y-57000000D02*
X115000000Y-58000000D01*
X115000000Y-44000000D02*
X115000000Y-45000000D01*
X114000000Y-44000000D02*
X115000000Y-44000000D01*
X101000000Y-44000000D02*
X102000000Y-44000000D01*
X101000000Y-45000000D02*
X101000000Y-44000000D01*
X101000000Y-58000000D02*
X101000000Y-57000000D01*
X102000000Y-58000000D02*
X101000000Y-58000000D01*
%TO.C,MX12*%
X102000000Y-75000000D02*
X101000000Y-75000000D01*
X101000000Y-75000000D02*
X101000000Y-74000000D01*
X101000000Y-62000000D02*
X101000000Y-61000000D01*
X101000000Y-61000000D02*
X102000000Y-61000000D01*
X114000000Y-61000000D02*
X115000000Y-61000000D01*
X115000000Y-61000000D02*
X115000000Y-62000000D01*
X115000000Y-74000000D02*
X115000000Y-75000000D01*
X115000000Y-75000000D02*
X114000000Y-75000000D01*
%TO.C,MX13*%
X102000000Y-94250000D02*
X101000000Y-94250000D01*
X101000000Y-94250000D02*
X101000000Y-93250000D01*
X101000000Y-81250000D02*
X101000000Y-80250000D01*
X101000000Y-80250000D02*
X102000000Y-80250000D01*
X114000000Y-80250000D02*
X115000000Y-80250000D01*
X115000000Y-80250000D02*
X115000000Y-81250000D01*
X115000000Y-93250000D02*
X115000000Y-94250000D01*
X115000000Y-94250000D02*
X114000000Y-94250000D01*
%TO.C,MX14*%
X133000000Y-41000000D02*
X132000000Y-41000000D01*
X133000000Y-40000000D02*
X133000000Y-41000000D01*
X133000000Y-27000000D02*
X133000000Y-28000000D01*
X132000000Y-27000000D02*
X133000000Y-27000000D01*
X119000000Y-27000000D02*
X120000000Y-27000000D01*
X119000000Y-28000000D02*
X119000000Y-27000000D01*
X119000000Y-41000000D02*
X119000000Y-40000000D01*
X120000000Y-41000000D02*
X119000000Y-41000000D01*
%TO.C,MX15*%
X120000000Y-58000000D02*
X119000000Y-58000000D01*
X119000000Y-58000000D02*
X119000000Y-57000000D01*
X119000000Y-45000000D02*
X119000000Y-44000000D01*
X119000000Y-44000000D02*
X120000000Y-44000000D01*
X132000000Y-44000000D02*
X133000000Y-44000000D01*
X133000000Y-44000000D02*
X133000000Y-45000000D01*
X133000000Y-57000000D02*
X133000000Y-58000000D01*
X133000000Y-58000000D02*
X132000000Y-58000000D01*
%TO.C,MX16*%
X133000000Y-75000000D02*
X132000000Y-75000000D01*
X133000000Y-74000000D02*
X133000000Y-75000000D01*
X133000000Y-61000000D02*
X133000000Y-62000000D01*
X132000000Y-61000000D02*
X133000000Y-61000000D01*
X119000000Y-61000000D02*
X120000000Y-61000000D01*
X119000000Y-62000000D02*
X119000000Y-61000000D01*
X119000000Y-75000000D02*
X119000000Y-74000000D01*
X120000000Y-75000000D02*
X119000000Y-75000000D01*
%TO.C,MX17*%
X133000000Y-94250000D02*
X132000000Y-94250000D01*
X133000000Y-93250000D02*
X133000000Y-94250000D01*
X133000000Y-80250000D02*
X133000000Y-81250000D01*
X132000000Y-80250000D02*
X133000000Y-80250000D01*
X119000000Y-80250000D02*
X120000000Y-80250000D01*
X119000000Y-81250000D02*
X119000000Y-80250000D01*
X119000000Y-94250000D02*
X119000000Y-93250000D01*
X120000000Y-94250000D02*
X119000000Y-94250000D01*
%TO.C,SW1*%
X93000000Y-78980000D02*
X87000000Y-78980000D01*
X87000000Y-78980000D02*
X87000000Y-79230000D01*
X93000000Y-78980000D02*
X93000000Y-79230000D01*
X93000000Y-82480000D02*
X93000000Y-82230000D01*
X93000000Y-82480000D02*
X87000000Y-82480000D01*
X87000000Y-82480000D02*
X87000000Y-82230000D01*
%TO.C,U1*%
X79302000Y-76640000D02*
X48822000Y-76640000D01*
X79302000Y-79180000D02*
X79302000Y-76640000D01*
X48822000Y-79180000D02*
X79302000Y-79180000D01*
X48822000Y-76640000D02*
X48822000Y-79180000D01*
X79302000Y-91880000D02*
X48822000Y-91880000D01*
X79302000Y-94420000D02*
X79302000Y-91880000D01*
X48822000Y-94420000D02*
X79302000Y-94420000D01*
X48822000Y-91880000D02*
X48822000Y-94420000D01*
%TO.C,MX6*%
X70714285Y-76707380D02*
X70714285Y-75707380D01*
X71047619Y-76421666D01*
X71380952Y-75707380D01*
X71380952Y-76707380D01*
X71761904Y-75707380D02*
X72428571Y-76707380D01*
X72428571Y-75707380D02*
X71761904Y-76707380D01*
X73238095Y-75707380D02*
X73047619Y-75707380D01*
X72952380Y-75755000D01*
X72904761Y-75802619D01*
X72809523Y-75945476D01*
X72761904Y-76135952D01*
X72761904Y-76516904D01*
X72809523Y-76612142D01*
X72857142Y-76659761D01*
X72952380Y-76707380D01*
X73142857Y-76707380D01*
X73238095Y-76659761D01*
X73285714Y-76612142D01*
X73333333Y-76516904D01*
X73333333Y-76278809D01*
X73285714Y-76183571D01*
X73238095Y-76135952D01*
X73142857Y-76088333D01*
X72952380Y-76088333D01*
X72857142Y-76135952D01*
X72809523Y-76183571D01*
X72761904Y-76278809D01*
%TO.C,MX1*%
X52714285Y-42707380D02*
X52714285Y-41707380D01*
X53047619Y-42421666D01*
X53380952Y-41707380D01*
X53380952Y-42707380D01*
X53761904Y-41707380D02*
X54428571Y-42707380D01*
X54428571Y-41707380D02*
X53761904Y-42707380D01*
X55333333Y-42707380D02*
X54761904Y-42707380D01*
X55047619Y-42707380D02*
X55047619Y-41707380D01*
X54952380Y-41850238D01*
X54857142Y-41945476D01*
X54761904Y-41993095D01*
%TO.C,MX2*%
X52714285Y-59707380D02*
X52714285Y-58707380D01*
X53047619Y-59421666D01*
X53380952Y-58707380D01*
X53380952Y-59707380D01*
X53761904Y-58707380D02*
X54428571Y-59707380D01*
X54428571Y-58707380D02*
X53761904Y-59707380D01*
X54761904Y-58802619D02*
X54809523Y-58755000D01*
X54904761Y-58707380D01*
X55142857Y-58707380D01*
X55238095Y-58755000D01*
X55285714Y-58802619D01*
X55333333Y-58897857D01*
X55333333Y-58993095D01*
X55285714Y-59135952D01*
X54714285Y-59707380D01*
X55333333Y-59707380D01*
%TO.C,MX3*%
X52714285Y-76707380D02*
X52714285Y-75707380D01*
X53047619Y-76421666D01*
X53380952Y-75707380D01*
X53380952Y-76707380D01*
X53761904Y-75707380D02*
X54428571Y-76707380D01*
X54428571Y-75707380D02*
X53761904Y-76707380D01*
X54714285Y-75707380D02*
X55333333Y-75707380D01*
X55000000Y-76088333D01*
X55142857Y-76088333D01*
X55238095Y-76135952D01*
X55285714Y-76183571D01*
X55333333Y-76278809D01*
X55333333Y-76516904D01*
X55285714Y-76612142D01*
X55238095Y-76659761D01*
X55142857Y-76707380D01*
X54857142Y-76707380D01*
X54761904Y-76659761D01*
X54714285Y-76612142D01*
%TO.C,MX4*%
X70714285Y-42707380D02*
X70714285Y-41707380D01*
X71047619Y-42421666D01*
X71380952Y-41707380D01*
X71380952Y-42707380D01*
X71761904Y-41707380D02*
X72428571Y-42707380D01*
X72428571Y-41707380D02*
X71761904Y-42707380D01*
X73238095Y-42040714D02*
X73238095Y-42707380D01*
X73000000Y-41659761D02*
X72761904Y-42374047D01*
X73380952Y-42374047D01*
%TO.C,MX5*%
X70714285Y-59707380D02*
X70714285Y-58707380D01*
X71047619Y-59421666D01*
X71380952Y-58707380D01*
X71380952Y-59707380D01*
X71761904Y-58707380D02*
X72428571Y-59707380D01*
X72428571Y-58707380D02*
X71761904Y-59707380D01*
X73285714Y-58707380D02*
X72809523Y-58707380D01*
X72761904Y-59183571D01*
X72809523Y-59135952D01*
X72904761Y-59088333D01*
X73142857Y-59088333D01*
X73238095Y-59135952D01*
X73285714Y-59183571D01*
X73333333Y-59278809D01*
X73333333Y-59516904D01*
X73285714Y-59612142D01*
X73238095Y-59659761D01*
X73142857Y-59707380D01*
X72904761Y-59707380D01*
X72809523Y-59659761D01*
X72761904Y-59612142D01*
%TO.C,MX7*%
X88714285Y-42707380D02*
X88714285Y-41707380D01*
X89047619Y-42421666D01*
X89380952Y-41707380D01*
X89380952Y-42707380D01*
X89761904Y-41707380D02*
X90428571Y-42707380D01*
X90428571Y-41707380D02*
X89761904Y-42707380D01*
X90714285Y-41707380D02*
X91380952Y-41707380D01*
X90952380Y-42707380D01*
%TO.C,MX8*%
X88714285Y-59707380D02*
X88714285Y-58707380D01*
X89047619Y-59421666D01*
X89380952Y-58707380D01*
X89380952Y-59707380D01*
X89761904Y-58707380D02*
X90428571Y-59707380D01*
X90428571Y-58707380D02*
X89761904Y-59707380D01*
X90952380Y-59135952D02*
X90857142Y-59088333D01*
X90809523Y-59040714D01*
X90761904Y-58945476D01*
X90761904Y-58897857D01*
X90809523Y-58802619D01*
X90857142Y-58755000D01*
X90952380Y-58707380D01*
X91142857Y-58707380D01*
X91238095Y-58755000D01*
X91285714Y-58802619D01*
X91333333Y-58897857D01*
X91333333Y-58945476D01*
X91285714Y-59040714D01*
X91238095Y-59088333D01*
X91142857Y-59135952D01*
X90952380Y-59135952D01*
X90857142Y-59183571D01*
X90809523Y-59231190D01*
X90761904Y-59326428D01*
X90761904Y-59516904D01*
X90809523Y-59612142D01*
X90857142Y-59659761D01*
X90952380Y-59707380D01*
X91142857Y-59707380D01*
X91238095Y-59659761D01*
X91285714Y-59612142D01*
X91333333Y-59516904D01*
X91333333Y-59326428D01*
X91285714Y-59231190D01*
X91238095Y-59183571D01*
X91142857Y-59135952D01*
%TO.C,MX9*%
X88714285Y-76707380D02*
X88714285Y-75707380D01*
X89047619Y-76421666D01*
X89380952Y-75707380D01*
X89380952Y-76707380D01*
X89761904Y-75707380D02*
X90428571Y-76707380D01*
X90428571Y-75707380D02*
X89761904Y-76707380D01*
X90857142Y-76707380D02*
X91047619Y-76707380D01*
X91142857Y-76659761D01*
X91190476Y-76612142D01*
X91285714Y-76469285D01*
X91333333Y-76278809D01*
X91333333Y-75897857D01*
X91285714Y-75802619D01*
X91238095Y-75755000D01*
X91142857Y-75707380D01*
X90952380Y-75707380D01*
X90857142Y-75755000D01*
X90809523Y-75802619D01*
X90761904Y-75897857D01*
X90761904Y-76135952D01*
X90809523Y-76231190D01*
X90857142Y-76278809D01*
X90952380Y-76326428D01*
X91142857Y-76326428D01*
X91238095Y-76278809D01*
X91285714Y-76231190D01*
X91333333Y-76135952D01*
%TO.C,MX10*%
X106238095Y-42707380D02*
X106238095Y-41707380D01*
X106571428Y-42421666D01*
X106904761Y-41707380D01*
X106904761Y-42707380D01*
X107285714Y-41707380D02*
X107952380Y-42707380D01*
X107952380Y-41707380D02*
X107285714Y-42707380D01*
X108857142Y-42707380D02*
X108285714Y-42707380D01*
X108571428Y-42707380D02*
X108571428Y-41707380D01*
X108476190Y-41850238D01*
X108380952Y-41945476D01*
X108285714Y-41993095D01*
X109476190Y-41707380D02*
X109571428Y-41707380D01*
X109666666Y-41755000D01*
X109714285Y-41802619D01*
X109761904Y-41897857D01*
X109809523Y-42088333D01*
X109809523Y-42326428D01*
X109761904Y-42516904D01*
X109714285Y-42612142D01*
X109666666Y-42659761D01*
X109571428Y-42707380D01*
X109476190Y-42707380D01*
X109380952Y-42659761D01*
X109333333Y-42612142D01*
X109285714Y-42516904D01*
X109238095Y-42326428D01*
X109238095Y-42088333D01*
X109285714Y-41897857D01*
X109333333Y-41802619D01*
X109380952Y-41755000D01*
X109476190Y-41707380D01*
%TO.C,MX11*%
X106238095Y-59707380D02*
X106238095Y-58707380D01*
X106571428Y-59421666D01*
X106904761Y-58707380D01*
X106904761Y-59707380D01*
X107285714Y-58707380D02*
X107952380Y-59707380D01*
X107952380Y-58707380D02*
X107285714Y-59707380D01*
X108857142Y-59707380D02*
X108285714Y-59707380D01*
X108571428Y-59707380D02*
X108571428Y-58707380D01*
X108476190Y-58850238D01*
X108380952Y-58945476D01*
X108285714Y-58993095D01*
X109809523Y-59707380D02*
X109238095Y-59707380D01*
X109523809Y-59707380D02*
X109523809Y-58707380D01*
X109428571Y-58850238D01*
X109333333Y-58945476D01*
X109238095Y-58993095D01*
%TO.C,MX12*%
X106238095Y-76707380D02*
X106238095Y-75707380D01*
X106571428Y-76421666D01*
X106904761Y-75707380D01*
X106904761Y-76707380D01*
X107285714Y-75707380D02*
X107952380Y-76707380D01*
X107952380Y-75707380D02*
X107285714Y-76707380D01*
X108857142Y-76707380D02*
X108285714Y-76707380D01*
X108571428Y-76707380D02*
X108571428Y-75707380D01*
X108476190Y-75850238D01*
X108380952Y-75945476D01*
X108285714Y-75993095D01*
X109238095Y-75802619D02*
X109285714Y-75755000D01*
X109380952Y-75707380D01*
X109619047Y-75707380D01*
X109714285Y-75755000D01*
X109761904Y-75802619D01*
X109809523Y-75897857D01*
X109809523Y-75993095D01*
X109761904Y-76135952D01*
X109190476Y-76707380D01*
X109809523Y-76707380D01*
%TO.C,MX13*%
X106238095Y-95957380D02*
X106238095Y-94957380D01*
X106571428Y-95671666D01*
X106904761Y-94957380D01*
X106904761Y-95957380D01*
X107285714Y-94957380D02*
X107952380Y-95957380D01*
X107952380Y-94957380D02*
X107285714Y-95957380D01*
X108857142Y-95957380D02*
X108285714Y-95957380D01*
X108571428Y-95957380D02*
X108571428Y-94957380D01*
X108476190Y-95100238D01*
X108380952Y-95195476D01*
X108285714Y-95243095D01*
X109190476Y-94957380D02*
X109809523Y-94957380D01*
X109476190Y-95338333D01*
X109619047Y-95338333D01*
X109714285Y-95385952D01*
X109761904Y-95433571D01*
X109809523Y-95528809D01*
X109809523Y-95766904D01*
X109761904Y-95862142D01*
X109714285Y-95909761D01*
X109619047Y-95957380D01*
X109333333Y-95957380D01*
X109238095Y-95909761D01*
X109190476Y-95862142D01*
%TO.C,MX14*%
X124238095Y-42707380D02*
X124238095Y-41707380D01*
X124571428Y-42421666D01*
X124904761Y-41707380D01*
X124904761Y-42707380D01*
X125285714Y-41707380D02*
X125952380Y-42707380D01*
X125952380Y-41707380D02*
X125285714Y-42707380D01*
X126857142Y-42707380D02*
X126285714Y-42707380D01*
X126571428Y-42707380D02*
X126571428Y-41707380D01*
X126476190Y-41850238D01*
X126380952Y-41945476D01*
X126285714Y-41993095D01*
X127714285Y-42040714D02*
X127714285Y-42707380D01*
X127476190Y-41659761D02*
X127238095Y-42374047D01*
X127857142Y-42374047D01*
%TO.C,MX15*%
X124238095Y-59707380D02*
X124238095Y-58707380D01*
X124571428Y-59421666D01*
X124904761Y-58707380D01*
X124904761Y-59707380D01*
X125285714Y-58707380D02*
X125952380Y-59707380D01*
X125952380Y-58707380D02*
X125285714Y-59707380D01*
X126857142Y-59707380D02*
X126285714Y-59707380D01*
X126571428Y-59707380D02*
X126571428Y-58707380D01*
X126476190Y-58850238D01*
X126380952Y-58945476D01*
X126285714Y-58993095D01*
X127761904Y-58707380D02*
X127285714Y-58707380D01*
X127238095Y-59183571D01*
X127285714Y-59135952D01*
X127380952Y-59088333D01*
X127619047Y-59088333D01*
X127714285Y-59135952D01*
X127761904Y-59183571D01*
X127809523Y-59278809D01*
X127809523Y-59516904D01*
X127761904Y-59612142D01*
X127714285Y-59659761D01*
X127619047Y-59707380D01*
X127380952Y-59707380D01*
X127285714Y-59659761D01*
X127238095Y-59612142D01*
%TO.C,MX16*%
X124238095Y-76707380D02*
X124238095Y-75707380D01*
X124571428Y-76421666D01*
X124904761Y-75707380D01*
X124904761Y-76707380D01*
X125285714Y-75707380D02*
X125952380Y-76707380D01*
X125952380Y-75707380D02*
X125285714Y-76707380D01*
X126857142Y-76707380D02*
X126285714Y-76707380D01*
X126571428Y-76707380D02*
X126571428Y-75707380D01*
X126476190Y-75850238D01*
X126380952Y-75945476D01*
X126285714Y-75993095D01*
X127714285Y-75707380D02*
X127523809Y-75707380D01*
X127428571Y-75755000D01*
X127380952Y-75802619D01*
X127285714Y-75945476D01*
X127238095Y-76135952D01*
X127238095Y-76516904D01*
X127285714Y-76612142D01*
X127333333Y-76659761D01*
X127428571Y-76707380D01*
X127619047Y-76707380D01*
X127714285Y-76659761D01*
X127761904Y-76612142D01*
X127809523Y-76516904D01*
X127809523Y-76278809D01*
X127761904Y-76183571D01*
X127714285Y-76135952D01*
X127619047Y-76088333D01*
X127428571Y-76088333D01*
X127333333Y-76135952D01*
X127285714Y-76183571D01*
X127238095Y-76278809D01*
%TO.C,MX17*%
X124238095Y-95957380D02*
X124238095Y-94957380D01*
X124571428Y-95671666D01*
X124904761Y-94957380D01*
X124904761Y-95957380D01*
X125285714Y-94957380D02*
X125952380Y-95957380D01*
X125952380Y-94957380D02*
X125285714Y-95957380D01*
X126857142Y-95957380D02*
X126285714Y-95957380D01*
X126571428Y-95957380D02*
X126571428Y-94957380D01*
X126476190Y-95100238D01*
X126380952Y-95195476D01*
X126285714Y-95243095D01*
X127190476Y-94957380D02*
X127857142Y-94957380D01*
X127428571Y-95957380D01*
%TO.C,SW1*%
X88547619Y-81182380D02*
X88214285Y-80706190D01*
X87976190Y-81182380D02*
X87976190Y-80182380D01*
X88357142Y-80182380D01*
X88452380Y-80230000D01*
X88500000Y-80277619D01*
X88547619Y-80372857D01*
X88547619Y-80515714D01*
X88500000Y-80610952D01*
X88452380Y-80658571D01*
X88357142Y-80706190D01*
X87976190Y-80706190D01*
X88976190Y-80658571D02*
X89309523Y-80658571D01*
X89452380Y-81182380D02*
X88976190Y-81182380D01*
X88976190Y-80182380D01*
X89452380Y-80182380D01*
X89833333Y-81134761D02*
X89976190Y-81182380D01*
X90214285Y-81182380D01*
X90309523Y-81134761D01*
X90357142Y-81087142D01*
X90404761Y-80991904D01*
X90404761Y-80896666D01*
X90357142Y-80801428D01*
X90309523Y-80753809D01*
X90214285Y-80706190D01*
X90023809Y-80658571D01*
X89928571Y-80610952D01*
X89880952Y-80563333D01*
X89833333Y-80468095D01*
X89833333Y-80372857D01*
X89880952Y-80277619D01*
X89928571Y-80230000D01*
X90023809Y-80182380D01*
X90261904Y-80182380D01*
X90404761Y-80230000D01*
X90833333Y-80658571D02*
X91166666Y-80658571D01*
X91309523Y-81182380D02*
X90833333Y-81182380D01*
X90833333Y-80182380D01*
X91309523Y-80182380D01*
X91595238Y-80182380D02*
X92166666Y-80182380D01*
X91880952Y-81182380D02*
X91880952Y-80182380D01*
%TO.C,U1*%
D12*
X68274785Y-76130952D02*
X67917642Y-76297619D01*
X68274785Y-76416666D02*
X67524785Y-76416666D01*
X67524785Y-76226190D01*
X67560500Y-76178571D01*
X67596214Y-76154761D01*
X67667642Y-76130952D01*
X67774785Y-76130952D01*
X67846214Y-76154761D01*
X67881928Y-76178571D01*
X67917642Y-76226190D01*
X67917642Y-76416666D01*
X67524785Y-75821428D02*
X67524785Y-75726190D01*
X67560500Y-75678571D01*
X67631928Y-75630952D01*
X67774785Y-75607142D01*
X68024785Y-75607142D01*
X68167642Y-75630952D01*
X68239071Y-75678571D01*
X68274785Y-75726190D01*
X68274785Y-75821428D01*
X68239071Y-75869047D01*
X68167642Y-75916666D01*
X68024785Y-75940476D01*
X67774785Y-75940476D01*
X67631928Y-75916666D01*
X67560500Y-75869047D01*
X67524785Y-75821428D01*
X67524785Y-75440476D02*
X68274785Y-75321428D01*
X67739071Y-75226190D01*
X68274785Y-75130952D01*
X67524785Y-75011904D01*
X68274785Y-74559523D02*
X68274785Y-74845238D01*
X68274785Y-74702380D02*
X67524785Y-74702380D01*
X67631928Y-74750000D01*
X67703357Y-74797619D01*
X67739071Y-74845238D01*
X70679857Y-91297619D02*
X70715571Y-91321428D01*
X70751285Y-91392857D01*
X70751285Y-91440476D01*
X70715571Y-91511904D01*
X70644142Y-91559523D01*
X70572714Y-91583333D01*
X70429857Y-91607142D01*
X70322714Y-91607142D01*
X70179857Y-91583333D01*
X70108428Y-91559523D01*
X70037000Y-91511904D01*
X70001285Y-91440476D01*
X70001285Y-91392857D01*
X70037000Y-91321428D01*
X70072714Y-91297619D01*
X70001285Y-90988095D02*
X70001285Y-90892857D01*
X70037000Y-90845238D01*
X70108428Y-90797619D01*
X70251285Y-90773809D01*
X70501285Y-90773809D01*
X70644142Y-90797619D01*
X70715571Y-90845238D01*
X70751285Y-90892857D01*
X70751285Y-90988095D01*
X70715571Y-91035714D01*
X70644142Y-91083333D01*
X70501285Y-91107142D01*
X70251285Y-91107142D01*
X70108428Y-91083333D01*
X70037000Y-91035714D01*
X70001285Y-90988095D01*
X70751285Y-90321428D02*
X70751285Y-90559523D01*
X70001285Y-90559523D01*
X70251285Y-89940476D02*
X70751285Y-89940476D01*
X69965571Y-90059523D02*
X70501285Y-90178571D01*
X70501285Y-89869047D01*
X70878285Y-76130952D02*
X70521142Y-76297619D01*
X70878285Y-76416666D02*
X70128285Y-76416666D01*
X70128285Y-76226190D01*
X70164000Y-76178571D01*
X70199714Y-76154761D01*
X70271142Y-76130952D01*
X70378285Y-76130952D01*
X70449714Y-76154761D01*
X70485428Y-76178571D01*
X70521142Y-76226190D01*
X70521142Y-76416666D01*
X70128285Y-75821428D02*
X70128285Y-75726190D01*
X70164000Y-75678571D01*
X70235428Y-75630952D01*
X70378285Y-75607142D01*
X70628285Y-75607142D01*
X70771142Y-75630952D01*
X70842571Y-75678571D01*
X70878285Y-75726190D01*
X70878285Y-75821428D01*
X70842571Y-75869047D01*
X70771142Y-75916666D01*
X70628285Y-75940476D01*
X70378285Y-75940476D01*
X70235428Y-75916666D01*
X70164000Y-75869047D01*
X70128285Y-75821428D01*
X70128285Y-75440476D02*
X70878285Y-75321428D01*
X70342571Y-75226190D01*
X70878285Y-75130952D01*
X70128285Y-75011904D01*
X70199714Y-74845238D02*
X70164000Y-74821428D01*
X70128285Y-74773809D01*
X70128285Y-74654761D01*
X70164000Y-74607142D01*
X70199714Y-74583333D01*
X70271142Y-74559523D01*
X70342571Y-74559523D01*
X70449714Y-74583333D01*
X70878285Y-74869047D01*
X70878285Y-74559523D01*
X73317857Y-91347619D02*
X73353571Y-91371428D01*
X73389285Y-91442857D01*
X73389285Y-91490476D01*
X73353571Y-91561904D01*
X73282142Y-91609523D01*
X73210714Y-91633333D01*
X73067857Y-91657142D01*
X72960714Y-91657142D01*
X72817857Y-91633333D01*
X72746428Y-91609523D01*
X72675000Y-91561904D01*
X72639285Y-91490476D01*
X72639285Y-91442857D01*
X72675000Y-91371428D01*
X72710714Y-91347619D01*
X72639285Y-91038095D02*
X72639285Y-90942857D01*
X72675000Y-90895238D01*
X72746428Y-90847619D01*
X72889285Y-90823809D01*
X73139285Y-90823809D01*
X73282142Y-90847619D01*
X73353571Y-90895238D01*
X73389285Y-90942857D01*
X73389285Y-91038095D01*
X73353571Y-91085714D01*
X73282142Y-91133333D01*
X73139285Y-91157142D01*
X72889285Y-91157142D01*
X72746428Y-91133333D01*
X72675000Y-91085714D01*
X72639285Y-91038095D01*
X73389285Y-90371428D02*
X73389285Y-90609523D01*
X72639285Y-90609523D01*
X72639285Y-89966666D02*
X72639285Y-90204761D01*
X72996428Y-90228571D01*
X72960714Y-90204761D01*
X72925000Y-90157142D01*
X72925000Y-90038095D01*
X72960714Y-89990476D01*
X72996428Y-89966666D01*
X73067857Y-89942857D01*
X73246428Y-89942857D01*
X73317857Y-89966666D01*
X73353571Y-89990476D01*
X73389285Y-90038095D01*
X73389285Y-90157142D01*
X73353571Y-90204761D01*
X73317857Y-90228571D01*
X73389285Y-76130952D02*
X73032142Y-76297619D01*
X73389285Y-76416666D02*
X72639285Y-76416666D01*
X72639285Y-76226190D01*
X72675000Y-76178571D01*
X72710714Y-76154761D01*
X72782142Y-76130952D01*
X72889285Y-76130952D01*
X72960714Y-76154761D01*
X72996428Y-76178571D01*
X73032142Y-76226190D01*
X73032142Y-76416666D01*
X72639285Y-75821428D02*
X72639285Y-75726190D01*
X72675000Y-75678571D01*
X72746428Y-75630952D01*
X72889285Y-75607142D01*
X73139285Y-75607142D01*
X73282142Y-75630952D01*
X73353571Y-75678571D01*
X73389285Y-75726190D01*
X73389285Y-75821428D01*
X73353571Y-75869047D01*
X73282142Y-75916666D01*
X73139285Y-75940476D01*
X72889285Y-75940476D01*
X72746428Y-75916666D01*
X72675000Y-75869047D01*
X72639285Y-75821428D01*
X72639285Y-75440476D02*
X73389285Y-75321428D01*
X72853571Y-75226190D01*
X73389285Y-75130952D01*
X72639285Y-75011904D01*
X72639285Y-74869047D02*
X72639285Y-74559523D01*
X72925000Y-74726190D01*
X72925000Y-74654761D01*
X72960714Y-74607142D01*
X72996428Y-74583333D01*
X73067857Y-74559523D01*
X73246428Y-74559523D01*
X73317857Y-74583333D01*
X73353571Y-74607142D01*
X73389285Y-74654761D01*
X73389285Y-74797619D01*
X73353571Y-74845238D01*
X73317857Y-74869047D01*
X75374928Y-91510880D02*
X75410642Y-91439452D01*
X75446357Y-91415642D01*
X75517785Y-91391833D01*
X75624928Y-91391833D01*
X75696357Y-91415642D01*
X75732071Y-91439452D01*
X75767785Y-91487071D01*
X75767785Y-91677547D01*
X75017785Y-91677547D01*
X75017785Y-91510880D01*
X75053500Y-91463261D01*
X75089214Y-91439452D01*
X75160642Y-91415642D01*
X75232071Y-91415642D01*
X75303500Y-91439452D01*
X75339214Y-91463261D01*
X75374928Y-91510880D01*
X75374928Y-91677547D01*
X75089214Y-91201357D02*
X75053500Y-91177547D01*
X75017785Y-91129928D01*
X75017785Y-91010880D01*
X75053500Y-90963261D01*
X75089214Y-90939452D01*
X75160642Y-90915642D01*
X75232071Y-90915642D01*
X75339214Y-90939452D01*
X75767785Y-91225166D01*
X75767785Y-90915642D01*
X75501928Y-75953380D02*
X75537642Y-75881952D01*
X75573357Y-75858142D01*
X75644785Y-75834333D01*
X75751928Y-75834333D01*
X75823357Y-75858142D01*
X75859071Y-75881952D01*
X75894785Y-75929571D01*
X75894785Y-76120047D01*
X75144785Y-76120047D01*
X75144785Y-75953380D01*
X75180500Y-75905761D01*
X75216214Y-75881952D01*
X75287642Y-75858142D01*
X75359071Y-75858142D01*
X75430500Y-75881952D01*
X75466214Y-75905761D01*
X75501928Y-75953380D01*
X75501928Y-76120047D01*
X75394785Y-75405761D02*
X75894785Y-75405761D01*
X75109071Y-75524809D02*
X75644785Y-75643857D01*
X75644785Y-75334333D01*
X78041928Y-75953380D02*
X78077642Y-75881952D01*
X78113357Y-75858142D01*
X78184785Y-75834333D01*
X78291928Y-75834333D01*
X78363357Y-75858142D01*
X78399071Y-75881952D01*
X78434785Y-75929571D01*
X78434785Y-76120047D01*
X77684785Y-76120047D01*
X77684785Y-75953380D01*
X77720500Y-75905761D01*
X77756214Y-75881952D01*
X77827642Y-75858142D01*
X77899071Y-75858142D01*
X77970500Y-75881952D01*
X78006214Y-75905761D01*
X78041928Y-75953380D01*
X78041928Y-76120047D01*
X77684785Y-75381952D02*
X77684785Y-75620047D01*
X78041928Y-75643857D01*
X78006214Y-75620047D01*
X77970500Y-75572428D01*
X77970500Y-75453380D01*
X78006214Y-75405761D01*
X78041928Y-75381952D01*
X78113357Y-75358142D01*
X78291928Y-75358142D01*
X78363357Y-75381952D01*
X78399071Y-75405761D01*
X78434785Y-75453380D01*
X78434785Y-75572428D01*
X78399071Y-75620047D01*
X78363357Y-75643857D01*
X77978428Y-91447380D02*
X78014142Y-91375952D01*
X78049857Y-91352142D01*
X78121285Y-91328333D01*
X78228428Y-91328333D01*
X78299857Y-91352142D01*
X78335571Y-91375952D01*
X78371285Y-91423571D01*
X78371285Y-91614047D01*
X77621285Y-91614047D01*
X77621285Y-91447380D01*
X77657000Y-91399761D01*
X77692714Y-91375952D01*
X77764142Y-91352142D01*
X77835571Y-91352142D01*
X77907000Y-91375952D01*
X77942714Y-91399761D01*
X77978428Y-91447380D01*
X77978428Y-91614047D01*
X77621285Y-90899761D02*
X77621285Y-90995000D01*
X77657000Y-91042619D01*
X77692714Y-91066428D01*
X77799857Y-91114047D01*
X77942714Y-91137857D01*
X78228428Y-91137857D01*
X78299857Y-91114047D01*
X78335571Y-91090238D01*
X78371285Y-91042619D01*
X78371285Y-90947380D01*
X78335571Y-90899761D01*
X78299857Y-90875952D01*
X78228428Y-90852142D01*
X78049857Y-90852142D01*
X77978428Y-90875952D01*
X77942714Y-90899761D01*
X77907000Y-90947380D01*
X77907000Y-91042619D01*
X77942714Y-91090238D01*
X77978428Y-91114047D01*
X78049857Y-91137857D01*
X60617857Y-91347619D02*
X60653571Y-91371428D01*
X60689285Y-91442857D01*
X60689285Y-91490476D01*
X60653571Y-91561904D01*
X60582142Y-91609523D01*
X60510714Y-91633333D01*
X60367857Y-91657142D01*
X60260714Y-91657142D01*
X60117857Y-91633333D01*
X60046428Y-91609523D01*
X59975000Y-91561904D01*
X59939285Y-91490476D01*
X59939285Y-91442857D01*
X59975000Y-91371428D01*
X60010714Y-91347619D01*
X59939285Y-91038095D02*
X59939285Y-90942857D01*
X59975000Y-90895238D01*
X60046428Y-90847619D01*
X60189285Y-90823809D01*
X60439285Y-90823809D01*
X60582142Y-90847619D01*
X60653571Y-90895238D01*
X60689285Y-90942857D01*
X60689285Y-91038095D01*
X60653571Y-91085714D01*
X60582142Y-91133333D01*
X60439285Y-91157142D01*
X60189285Y-91157142D01*
X60046428Y-91133333D01*
X59975000Y-91085714D01*
X59939285Y-91038095D01*
X60689285Y-90371428D02*
X60689285Y-90609523D01*
X59939285Y-90609523D01*
X59939285Y-90109523D02*
X59939285Y-90061904D01*
X59975000Y-90014285D01*
X60010714Y-89990476D01*
X60082142Y-89966666D01*
X60225000Y-89942857D01*
X60403571Y-89942857D01*
X60546428Y-89966666D01*
X60617857Y-89990476D01*
X60653571Y-90014285D01*
X60689285Y-90061904D01*
X60689285Y-90109523D01*
X60653571Y-90157142D01*
X60617857Y-90180952D01*
X60546428Y-90204761D01*
X60403571Y-90228571D01*
X60225000Y-90228571D01*
X60082142Y-90204761D01*
X60010714Y-90180952D01*
X59975000Y-90157142D01*
X59939285Y-90109523D01*
X60619071Y-76358142D02*
X60654785Y-76286714D01*
X60654785Y-76167666D01*
X60619071Y-76120047D01*
X60583357Y-76096238D01*
X60511928Y-76072428D01*
X60440500Y-76072428D01*
X60369071Y-76096238D01*
X60333357Y-76120047D01*
X60297642Y-76167666D01*
X60261928Y-76262904D01*
X60226214Y-76310523D01*
X60190500Y-76334333D01*
X60119071Y-76358142D01*
X60047642Y-76358142D01*
X59976214Y-76334333D01*
X59940500Y-76310523D01*
X59904785Y-76262904D01*
X59904785Y-76143857D01*
X59940500Y-76072428D01*
X60654785Y-75858142D02*
X59904785Y-75858142D01*
X59904785Y-75739095D01*
X59940500Y-75667666D01*
X60011928Y-75620047D01*
X60083357Y-75596238D01*
X60226214Y-75572428D01*
X60333357Y-75572428D01*
X60476214Y-75596238D01*
X60547642Y-75620047D01*
X60619071Y-75667666D01*
X60654785Y-75739095D01*
X60654785Y-75858142D01*
X60440500Y-75381952D02*
X60440500Y-75143857D01*
X60654785Y-75429571D02*
X59904785Y-75262904D01*
X60654785Y-75096238D01*
X63123357Y-91347619D02*
X63159071Y-91371428D01*
X63194785Y-91442857D01*
X63194785Y-91490476D01*
X63159071Y-91561904D01*
X63087642Y-91609523D01*
X63016214Y-91633333D01*
X62873357Y-91657142D01*
X62766214Y-91657142D01*
X62623357Y-91633333D01*
X62551928Y-91609523D01*
X62480500Y-91561904D01*
X62444785Y-91490476D01*
X62444785Y-91442857D01*
X62480500Y-91371428D01*
X62516214Y-91347619D01*
X62444785Y-91038095D02*
X62444785Y-90942857D01*
X62480500Y-90895238D01*
X62551928Y-90847619D01*
X62694785Y-90823809D01*
X62944785Y-90823809D01*
X63087642Y-90847619D01*
X63159071Y-90895238D01*
X63194785Y-90942857D01*
X63194785Y-91038095D01*
X63159071Y-91085714D01*
X63087642Y-91133333D01*
X62944785Y-91157142D01*
X62694785Y-91157142D01*
X62551928Y-91133333D01*
X62480500Y-91085714D01*
X62444785Y-91038095D01*
X63194785Y-90371428D02*
X63194785Y-90609523D01*
X62444785Y-90609523D01*
X63194785Y-89942857D02*
X63194785Y-90228571D01*
X63194785Y-90085714D02*
X62444785Y-90085714D01*
X62551928Y-90133333D01*
X62623357Y-90180952D01*
X62659071Y-90228571D01*
X63159071Y-76346238D02*
X63194785Y-76274809D01*
X63194785Y-76155761D01*
X63159071Y-76108142D01*
X63123357Y-76084333D01*
X63051928Y-76060523D01*
X62980500Y-76060523D01*
X62909071Y-76084333D01*
X62873357Y-76108142D01*
X62837642Y-76155761D01*
X62801928Y-76251000D01*
X62766214Y-76298619D01*
X62730500Y-76322428D01*
X62659071Y-76346238D01*
X62587642Y-76346238D01*
X62516214Y-76322428D01*
X62480500Y-76298619D01*
X62444785Y-76251000D01*
X62444785Y-76131952D01*
X62480500Y-76060523D01*
X63123357Y-75560523D02*
X63159071Y-75584333D01*
X63194785Y-75655761D01*
X63194785Y-75703380D01*
X63159071Y-75774809D01*
X63087642Y-75822428D01*
X63016214Y-75846238D01*
X62873357Y-75870047D01*
X62766214Y-75870047D01*
X62623357Y-75846238D01*
X62551928Y-75822428D01*
X62480500Y-75774809D01*
X62444785Y-75703380D01*
X62444785Y-75655761D01*
X62480500Y-75584333D01*
X62516214Y-75560523D01*
X63194785Y-75108142D02*
X63194785Y-75346238D01*
X62444785Y-75346238D01*
X65667857Y-91347619D02*
X65703571Y-91371428D01*
X65739285Y-91442857D01*
X65739285Y-91490476D01*
X65703571Y-91561904D01*
X65632142Y-91609523D01*
X65560714Y-91633333D01*
X65417857Y-91657142D01*
X65310714Y-91657142D01*
X65167857Y-91633333D01*
X65096428Y-91609523D01*
X65025000Y-91561904D01*
X64989285Y-91490476D01*
X64989285Y-91442857D01*
X65025000Y-91371428D01*
X65060714Y-91347619D01*
X64989285Y-91038095D02*
X64989285Y-90942857D01*
X65025000Y-90895238D01*
X65096428Y-90847619D01*
X65239285Y-90823809D01*
X65489285Y-90823809D01*
X65632142Y-90847619D01*
X65703571Y-90895238D01*
X65739285Y-90942857D01*
X65739285Y-91038095D01*
X65703571Y-91085714D01*
X65632142Y-91133333D01*
X65489285Y-91157142D01*
X65239285Y-91157142D01*
X65096428Y-91133333D01*
X65025000Y-91085714D01*
X64989285Y-91038095D01*
X65739285Y-90371428D02*
X65739285Y-90609523D01*
X64989285Y-90609523D01*
X65060714Y-90228571D02*
X65025000Y-90204761D01*
X64989285Y-90157142D01*
X64989285Y-90038095D01*
X65025000Y-89990476D01*
X65060714Y-89966666D01*
X65132142Y-89942857D01*
X65203571Y-89942857D01*
X65310714Y-89966666D01*
X65739285Y-90252380D01*
X65739285Y-89942857D01*
X65671285Y-76130952D02*
X65314142Y-76297619D01*
X65671285Y-76416666D02*
X64921285Y-76416666D01*
X64921285Y-76226190D01*
X64957000Y-76178571D01*
X64992714Y-76154761D01*
X65064142Y-76130952D01*
X65171285Y-76130952D01*
X65242714Y-76154761D01*
X65278428Y-76178571D01*
X65314142Y-76226190D01*
X65314142Y-76416666D01*
X64921285Y-75821428D02*
X64921285Y-75726190D01*
X64957000Y-75678571D01*
X65028428Y-75630952D01*
X65171285Y-75607142D01*
X65421285Y-75607142D01*
X65564142Y-75630952D01*
X65635571Y-75678571D01*
X65671285Y-75726190D01*
X65671285Y-75821428D01*
X65635571Y-75869047D01*
X65564142Y-75916666D01*
X65421285Y-75940476D01*
X65171285Y-75940476D01*
X65028428Y-75916666D01*
X64957000Y-75869047D01*
X64921285Y-75821428D01*
X64921285Y-75440476D02*
X65671285Y-75321428D01*
X65135571Y-75226190D01*
X65671285Y-75130952D01*
X64921285Y-75011904D01*
X64921285Y-74726190D02*
X64921285Y-74678571D01*
X64957000Y-74630952D01*
X64992714Y-74607142D01*
X65064142Y-74583333D01*
X65207000Y-74559523D01*
X65385571Y-74559523D01*
X65528428Y-74583333D01*
X65599857Y-74607142D01*
X65635571Y-74630952D01*
X65671285Y-74678571D01*
X65671285Y-74726190D01*
X65635571Y-74773809D01*
X65599857Y-74797619D01*
X65528428Y-74821428D01*
X65385571Y-74845238D01*
X65207000Y-74845238D01*
X65064142Y-74821428D01*
X64992714Y-74797619D01*
X64957000Y-74773809D01*
X64921285Y-74726190D01*
X68167857Y-91347619D02*
X68203571Y-91371428D01*
X68239285Y-91442857D01*
X68239285Y-91490476D01*
X68203571Y-91561904D01*
X68132142Y-91609523D01*
X68060714Y-91633333D01*
X67917857Y-91657142D01*
X67810714Y-91657142D01*
X67667857Y-91633333D01*
X67596428Y-91609523D01*
X67525000Y-91561904D01*
X67489285Y-91490476D01*
X67489285Y-91442857D01*
X67525000Y-91371428D01*
X67560714Y-91347619D01*
X67489285Y-91038095D02*
X67489285Y-90942857D01*
X67525000Y-90895238D01*
X67596428Y-90847619D01*
X67739285Y-90823809D01*
X67989285Y-90823809D01*
X68132142Y-90847619D01*
X68203571Y-90895238D01*
X68239285Y-90942857D01*
X68239285Y-91038095D01*
X68203571Y-91085714D01*
X68132142Y-91133333D01*
X67989285Y-91157142D01*
X67739285Y-91157142D01*
X67596428Y-91133333D01*
X67525000Y-91085714D01*
X67489285Y-91038095D01*
X68239285Y-90371428D02*
X68239285Y-90609523D01*
X67489285Y-90609523D01*
X67489285Y-90252380D02*
X67489285Y-89942857D01*
X67775000Y-90109523D01*
X67775000Y-90038095D01*
X67810714Y-89990476D01*
X67846428Y-89966666D01*
X67917857Y-89942857D01*
X68096428Y-89942857D01*
X68167857Y-89966666D01*
X68203571Y-89990476D01*
X68239285Y-90038095D01*
X68239285Y-90180952D01*
X68203571Y-90228571D01*
X68167857Y-90252380D01*
X57400500Y-76131952D02*
X57364785Y-76179571D01*
X57364785Y-76251000D01*
X57400500Y-76322428D01*
X57471928Y-76370047D01*
X57543357Y-76393857D01*
X57686214Y-76417666D01*
X57793357Y-76417666D01*
X57936214Y-76393857D01*
X58007642Y-76370047D01*
X58079071Y-76322428D01*
X58114785Y-76251000D01*
X58114785Y-76203380D01*
X58079071Y-76131952D01*
X58043357Y-76108142D01*
X57793357Y-76108142D01*
X57793357Y-76203380D01*
X58114785Y-75893857D02*
X57364785Y-75893857D01*
X58114785Y-75608142D01*
X57364785Y-75608142D01*
X58114785Y-75370047D02*
X57364785Y-75370047D01*
X57364785Y-75251000D01*
X57400500Y-75179571D01*
X57471928Y-75131952D01*
X57543357Y-75108142D01*
X57686214Y-75084333D01*
X57793357Y-75084333D01*
X57936214Y-75108142D01*
X58007642Y-75131952D01*
X58079071Y-75179571D01*
X58114785Y-75251000D01*
X58114785Y-75370047D01*
X57364785Y-91594166D02*
X58114785Y-91427500D01*
X57364785Y-91260833D01*
X58043357Y-90808452D02*
X58079071Y-90832261D01*
X58114785Y-90903690D01*
X58114785Y-90951309D01*
X58079071Y-91022738D01*
X58007642Y-91070357D01*
X57936214Y-91094166D01*
X57793357Y-91117976D01*
X57686214Y-91117976D01*
X57543357Y-91094166D01*
X57471928Y-91070357D01*
X57400500Y-91022738D01*
X57364785Y-90951309D01*
X57364785Y-90903690D01*
X57400500Y-90832261D01*
X57436214Y-90808452D01*
X58043357Y-90308452D02*
X58079071Y-90332261D01*
X58114785Y-90403690D01*
X58114785Y-90451309D01*
X58079071Y-90522738D01*
X58007642Y-90570357D01*
X57936214Y-90594166D01*
X57793357Y-90617976D01*
X57686214Y-90617976D01*
X57543357Y-90594166D01*
X57471928Y-90570357D01*
X57400500Y-90522738D01*
X57364785Y-90451309D01*
X57364785Y-90403690D01*
X57400500Y-90332261D01*
X57436214Y-90308452D01*
X54860500Y-76131952D02*
X54824785Y-76179571D01*
X54824785Y-76251000D01*
X54860500Y-76322428D01*
X54931928Y-76370047D01*
X55003357Y-76393857D01*
X55146214Y-76417666D01*
X55253357Y-76417666D01*
X55396214Y-76393857D01*
X55467642Y-76370047D01*
X55539071Y-76322428D01*
X55574785Y-76251000D01*
X55574785Y-76203380D01*
X55539071Y-76131952D01*
X55503357Y-76108142D01*
X55253357Y-76108142D01*
X55253357Y-76203380D01*
X55574785Y-75893857D02*
X54824785Y-75893857D01*
X55574785Y-75608142D01*
X54824785Y-75608142D01*
X55574785Y-75370047D02*
X54824785Y-75370047D01*
X54824785Y-75251000D01*
X54860500Y-75179571D01*
X54931928Y-75131952D01*
X55003357Y-75108142D01*
X55146214Y-75084333D01*
X55253357Y-75084333D01*
X55396214Y-75108142D01*
X55467642Y-75131952D01*
X55539071Y-75179571D01*
X55574785Y-75251000D01*
X55574785Y-75370047D01*
X55574785Y-91264809D02*
X55217642Y-91431476D01*
X55574785Y-91550523D02*
X54824785Y-91550523D01*
X54824785Y-91360047D01*
X54860500Y-91312428D01*
X54896214Y-91288619D01*
X54967642Y-91264809D01*
X55074785Y-91264809D01*
X55146214Y-91288619D01*
X55181928Y-91312428D01*
X55217642Y-91360047D01*
X55217642Y-91550523D01*
X55539071Y-91074333D02*
X55574785Y-91002904D01*
X55574785Y-90883857D01*
X55539071Y-90836238D01*
X55503357Y-90812428D01*
X55431928Y-90788619D01*
X55360500Y-90788619D01*
X55289071Y-90812428D01*
X55253357Y-90836238D01*
X55217642Y-90883857D01*
X55181928Y-90979095D01*
X55146214Y-91026714D01*
X55110500Y-91050523D01*
X55039071Y-91074333D01*
X54967642Y-91074333D01*
X54896214Y-91050523D01*
X54860500Y-91026714D01*
X54824785Y-90979095D01*
X54824785Y-90860047D01*
X54860500Y-90788619D01*
X54824785Y-90645761D02*
X54824785Y-90360047D01*
X55574785Y-90502904D02*
X54824785Y-90502904D01*
X53139285Y-76350000D02*
X52389285Y-76350000D01*
X52389285Y-76230952D01*
X52425000Y-76159523D01*
X52496428Y-76111904D01*
X52567857Y-76088095D01*
X52710714Y-76064285D01*
X52817857Y-76064285D01*
X52960714Y-76088095D01*
X53032142Y-76111904D01*
X53103571Y-76159523D01*
X53139285Y-76230952D01*
X53139285Y-76350000D01*
X52925000Y-75873809D02*
X52925000Y-75635714D01*
X53139285Y-75921428D02*
X52389285Y-75754761D01*
X53139285Y-75588095D01*
X52389285Y-75492857D02*
X52389285Y-75207142D01*
X53139285Y-75350000D02*
X52389285Y-75350000D01*
X52925000Y-75064285D02*
X52925000Y-74826190D01*
X53139285Y-75111904D02*
X52389285Y-74945238D01*
X53139285Y-74778571D01*
X52257000Y-91308452D02*
X52221285Y-91356071D01*
X52221285Y-91427500D01*
X52257000Y-91498928D01*
X52328428Y-91546547D01*
X52399857Y-91570357D01*
X52542714Y-91594166D01*
X52649857Y-91594166D01*
X52792714Y-91570357D01*
X52864142Y-91546547D01*
X52935571Y-91498928D01*
X52971285Y-91427500D01*
X52971285Y-91379880D01*
X52935571Y-91308452D01*
X52899857Y-91284642D01*
X52649857Y-91284642D01*
X52649857Y-91379880D01*
X52971285Y-91070357D02*
X52221285Y-91070357D01*
X52971285Y-90784642D01*
X52221285Y-90784642D01*
X52971285Y-90546547D02*
X52221285Y-90546547D01*
X52221285Y-90427500D01*
X52257000Y-90356071D01*
X52328428Y-90308452D01*
X52399857Y-90284642D01*
X52542714Y-90260833D01*
X52649857Y-90260833D01*
X52792714Y-90284642D01*
X52864142Y-90308452D01*
X52935571Y-90356071D01*
X52971285Y-90427500D01*
X52971285Y-90546547D01*
X50494785Y-76072428D02*
X50494785Y-76310523D01*
X49744785Y-76310523D01*
X50101928Y-75905761D02*
X50101928Y-75739095D01*
X50494785Y-75667666D02*
X50494785Y-75905761D01*
X49744785Y-75905761D01*
X49744785Y-75667666D01*
X50494785Y-75453380D02*
X49744785Y-75453380D01*
X49744785Y-75334333D01*
X49780500Y-75262904D01*
X49851928Y-75215285D01*
X49923357Y-75191476D01*
X50066214Y-75167666D01*
X50173357Y-75167666D01*
X50316214Y-75191476D01*
X50387642Y-75215285D01*
X50459071Y-75262904D01*
X50494785Y-75334333D01*
X50494785Y-75453380D01*
X50494785Y-91336238D02*
X50137642Y-91502904D01*
X50494785Y-91621952D02*
X49744785Y-91621952D01*
X49744785Y-91431476D01*
X49780500Y-91383857D01*
X49816214Y-91360047D01*
X49887642Y-91336238D01*
X49994785Y-91336238D01*
X50066214Y-91360047D01*
X50101928Y-91383857D01*
X50137642Y-91431476D01*
X50137642Y-91621952D01*
X50280500Y-91145761D02*
X50280500Y-90907666D01*
X50494785Y-91193380D02*
X49744785Y-91026714D01*
X50494785Y-90860047D01*
X49744785Y-90741000D02*
X50494785Y-90621952D01*
X49959071Y-90526714D01*
X50494785Y-90431476D01*
X49744785Y-90312428D01*
%TD*%
M02*
