M48
; DRILL file {KiCad (5.1.12)-1} date 11/19/21 00:53:16
; FORMAT={-:-/ absolute / inch / decimal}
; #@! TF.CreationDate,2021-11-19T00:53:16-08:00
; #@! TF.GenerationSoftware,Kicad,Pcbnew,(5.1.12)-1
; #@! TF.FileFunction,Plated,1,2,PTH
FMAT,2
INCH
T1C0.0157
T2C0.0320
T3C0.0354
T4C0.0500
T5C0.0512
%
G90
G05
T1
X2.0721Y-3.5027
X2.4724Y-3.4252
X2.5669Y-3.4252
X2.6732Y-3.4252
X2.7717Y-3.4252
X2.8701Y-3.4252
X2.9724Y-3.4252
X3.0669Y-3.4252
T2
X1.9221Y-3.1195
X1.9221Y-3.7188
X1.9721Y-3.0673
X1.9721Y-3.6673
X2.0221Y-3.1195
X2.0221Y-3.7188
X2.0721Y-3.0673
X2.0721Y-3.6673
X2.1221Y-3.1195
X2.1221Y-3.7188
X2.1721Y-3.0673
X2.1721Y-3.6673
X2.2221Y-3.1195
X2.2221Y-3.7188
X2.2721Y-3.0673
X2.2721Y-3.6673
X2.3221Y-3.1195
X2.3221Y-3.7188
X2.3721Y-3.0673
X2.3721Y-3.6673
X2.4221Y-3.1195
X2.4221Y-3.7188
X2.4721Y-3.0673
X2.4721Y-3.6673
X2.5221Y-3.1195
X2.5221Y-3.7188
X2.5721Y-3.0673
X2.5721Y-3.6673
X2.6221Y-3.1195
X2.6221Y-3.7188
X2.6721Y-3.0673
X2.6721Y-3.6673
X2.7221Y-3.1195
X2.7221Y-3.7188
X2.7721Y-3.0673
X2.7721Y-3.6673
X2.8221Y-3.1195
X2.8221Y-3.7188
X2.8721Y-3.0673
X2.8721Y-3.6673
X2.9221Y-3.1195
X2.9221Y-3.7188
X2.9721Y-3.0673
X2.9721Y-3.6673
X3.0221Y-3.1195
X3.0221Y-3.7188
X3.0721Y-3.0673
X3.0721Y-3.6673
T4
X1.9291Y-1.189
X1.9291Y-1.8583
X1.9291Y-2.5276
X2.126Y-1.1063
X2.126Y-1.7756
X2.126Y-2.4449
X2.3228Y-1.189
X2.3228Y-1.8583
X2.3228Y-2.5276
X2.6378Y-1.189
X2.6378Y-1.8583
X2.6378Y-2.5276
X2.8346Y-1.1063
X2.8346Y-1.7756
X2.8346Y-2.4449
X3.0315Y-1.189
X3.0315Y-1.8583
X3.0315Y-2.5276
X3.3465Y-1.189
X3.3465Y-1.8583
X3.3465Y-2.5276
X3.5433Y-1.1063
X3.5433Y-1.7756
X3.5433Y-2.4449
X3.7402Y-1.189
X3.7402Y-1.8583
X3.7402Y-2.5276
X4.0551Y-1.189
X4.0551Y-1.8583
X4.0551Y-2.5276
X4.0551Y-3.2854
X4.252Y-1.1063
X4.252Y-1.7756
X4.252Y-2.4449
X4.252Y-3.2028
X4.4488Y-1.189
X4.4488Y-1.8583
X4.4488Y-2.5276
X4.4488Y-3.2854
X4.7638Y-1.189
X4.7638Y-1.8583
X4.7638Y-2.5276
X4.7638Y-3.2854
X4.9606Y-1.1063
X4.9606Y-1.7756
X4.9606Y-2.4449
X4.9606Y-3.2028
X5.1575Y-1.189
X5.1575Y-1.8583
X5.1575Y-2.5276
X5.1575Y-3.2854
T5
X3.4154Y-3.1783
X3.6713Y-3.1783
T3
G00X3.4535Y-3.3781
M15
G01X3.4535Y-3.3624
M16
G05
G00X3.4535Y-3.3781
M15
G01X3.4535Y-3.3624
M16
G05
G00X3.4535Y-3.5356
M15
G01X3.4535Y-3.5199
M16
G05
G00X3.4535Y-3.5356
M15
G01X3.4535Y-3.5199
M16
G05
G00X3.4535Y-3.6537
M15
G01X3.4535Y-3.638
M16
G05
G00X3.4535Y-3.6537
M15
G01X3.4535Y-3.638
M16
G05
G00X3.4537Y-3.3191
M15
G01X3.4537Y-3.3348
M16
G05
G00X3.4537Y-3.3191
M15
G01X3.4537Y-3.3348
M16
G05
G00X3.6346Y-3.3348
M15
G01X3.6346Y-3.3191
M16
G05
G00X3.6346Y-3.3348
M15
G01X3.6346Y-3.3191
M16
G05
G00X3.6348Y-3.3624
M15
G01X3.6348Y-3.3781
M16
G05
G00X3.6348Y-3.3624
M15
G01X3.6348Y-3.3781
M16
G05
G00X3.6348Y-3.5199
M15
G01X3.6348Y-3.5356
M16
G05
G00X3.6348Y-3.5199
M15
G01X3.6348Y-3.5356
M16
G05
G00X3.6348Y-3.638
M15
G01X3.6348Y-3.6537
M16
G05
G00X3.6348Y-3.638
M15
G01X3.6348Y-3.6537
M16
G05
T0
M30
